<svg xmlns="http://www.w3.org/2000/svg" width="800" height="64" style="background:#0B1E26;border-radius:6px">
<rect x="175.7" y="19.2" width="2.7" height="2.0" fill="#4FD1C5" opacity="0.87" rx="1"/>
<rect x="313.5" y="26.9" width="2.7" height="2.0" fill="#4FD1C5" opacity="0.89" rx="1"/>
<rect x="316.2" y="26.9" width="10.8" height="2.0" fill="#4FD1C5" opacity="0.91" rx="1"/>
<rect x="337.8" y="24.3" width="2.7" height="2.0" fill="#4FD1C5" opacity="0.91" rx="1"/>
<rect x="343.2" y="25.6" width="2.7" height="2.0" fill="#4FD1C5" opacity="0.87" rx="1"/>
<rect x="345.9" y="25.6" width="10.8" height="2.0" fill="#4FD1C5" opacity="0.92" rx="1"/>
<rect x="400.0" y="25.6" width="10.8" height="2.0" fill="#4FD1C5" opacity="0.88" rx="1"/>
<rect x="402.7" y="19.2" width="10.8" height="2.0" fill="#4FD1C5" opacity="0.87" rx="1"/>
<rect x="418.1" y="28.2" width="10.8" height="2.0" fill="#4FD1C5" opacity="0.89" rx="1"/>
<rect x="418.1" y="23.0" width="10.8" height="2.0" fill="#4FD1C5" opacity="0.89" rx="1"/>
<rect x="435.1" y="17.9" width="5.4" height="2.0" fill="#4FD1C5" opacity="0.91" rx="1"/>
<rect x="440.5" y="23.0" width="5.4" height="2.0" fill="#4FD1C5" opacity="0.86" rx="1"/>
<rect x="445.9" y="23.0" width="8.1" height="2.0" fill="#4FD1C5" opacity="0.89" rx="1"/>
<rect x="461.4" y="14.1" width="10.8" height="2.0" fill="#4FD1C5" opacity="0.89" rx="1"/>
<rect x="173.0" y="49.9" width="5.4" height="2.0" fill="#F4C471" opacity="0.76" rx="1"/>
<rect x="173.0" y="33.3" width="43.2" height="2.0" fill="#F4C471" opacity="0.80" rx="1"/>
<rect x="305.4" y="58.9" width="8.1" height="2.0" fill="#F4C471" opacity="0.78" rx="1"/>
<rect x="305.4" y="43.5" width="8.1" height="2.0" fill="#F4C471" opacity="0.77" rx="1"/>
<rect x="331.6" y="58.9" width="118.9" height="2.0" fill="#F4C471" opacity="0.80" rx="1"/>
<rect x="331.6" y="43.5" width="118.9" height="2.0" fill="#F4C471" opacity="0.78" rx="1"/>
<rect x="464.9" y="49.9" width="8.1" height="2.0" fill="#F4C471" opacity="0.79" rx="1"/>
<rect x="464.9" y="32.0" width="8.1" height="2.0" fill="#F4C471" opacity="0.77" rx="1"/>
<rect x="464.9" y="38.4" width="8.1" height="2.0" fill="#F4C471" opacity="0.78" rx="1"/>
<rect x="467.6" y="47.4" width="8.1" height="2.0" fill="#F4C471" opacity="0.76" rx="1"/>
<rect x="173.0" y="24.3" width="2.7" height="2.0" fill="#81E6D9" opacity="0.78" rx="1"/>
<rect x="173.0" y="17.9" width="151.4" height="2.0" fill="#81E6D9" opacity="0.77" rx="1"/>
<rect x="302.7" y="23.0" width="21.6" height="2.0" fill="#81E6D9" opacity="0.80" rx="1"/>
<rect x="173.0" y="25.6" width="162.2" height="2.0" fill="#81E6D9" opacity="0.76" rx="1"/>
<rect x="173.0" y="14.1" width="162.2" height="2.0" fill="#81E6D9" opacity="0.78" rx="1"/>
<rect x="173.0" y="34.6" width="162.2" height="2.0" fill="#81E6D9" opacity="0.78" rx="1"/>
<rect x="331.6" y="23.0" width="10.8" height="2.0" fill="#81E6D9" opacity="0.79" rx="1"/>
<rect x="331.6" y="28.2" width="10.8" height="2.0" fill="#81E6D9" opacity="0.81" rx="1"/>
<rect x="331.6" y="17.9" width="10.8" height="2.0" fill="#81E6D9" opacity="0.81" rx="1"/>
<rect x="173.0" y="15.4" width="173.0" height="2.0" fill="#81E6D9" opacity="0.81" rx="1"/>
<rect x="173.0" y="29.4" width="173.0" height="2.0" fill="#81E6D9" opacity="0.79" rx="1"/>
<rect x="173.0" y="30.7" width="173.0" height="2.0" fill="#81E6D9" opacity="0.79" rx="1"/>
<rect x="335.1" y="24.3" width="10.8" height="2.0" fill="#81E6D9" opacity="0.80" rx="1"/>
<rect x="389.2" y="28.2" width="10.8" height="2.0" fill="#81E6D9" opacity="0.79" rx="1"/>
<rect x="389.2" y="23.0" width="10.8" height="2.0" fill="#81E6D9" opacity="0.76" rx="1"/>
<rect x="302.7" y="12.8" width="151.4" height="2.0" fill="#81E6D9" opacity="0.81" rx="1"/>
<rect x="432.4" y="23.0" width="32.4" height="2.0" fill="#81E6D9" opacity="0.76" rx="1"/>
<rect x="432.4" y="19.2" width="32.4" height="2.0" fill="#81E6D9" opacity="0.77" rx="1"/>
<rect x="432.4" y="30.7" width="43.2" height="2.0" fill="#81E6D9" opacity="0.80" rx="1"/>
<rect x="464.9" y="23.0" width="335.1" height="2.0" fill="#81E6D9" opacity="0.79" rx="1"/>
<rect x="173.0" y="56.3" width="5.4" height="2.0" fill="#8AAABB" opacity="0.87" rx="1"/>
<rect x="173.0" y="26.9" width="8.1" height="2.0" fill="#8AAABB" opacity="0.87" rx="1"/>
<rect x="173.0" y="49.9" width="10.8" height="2.0" fill="#8AAABB" opacity="0.87" rx="1"/>
<rect x="173.0" y="58.9" width="10.8" height="2.0" fill="#8AAABB" opacity="0.88" rx="1"/>
<rect x="173.0" y="15.4" width="21.6" height="2.0" fill="#8AAABB" opacity="0.85" rx="1"/>
<rect x="194.6" y="49.9" width="5.4" height="2.0" fill="#8AAABB" opacity="0.86" rx="1"/>
<rect x="194.6" y="26.9" width="8.1" height="2.0" fill="#8AAABB" opacity="0.86" rx="1"/>
<rect x="173.0" y="57.6" width="32.4" height="2.0" fill="#8AAABB" opacity="0.85" rx="1"/>
<rect x="216.2" y="24.3" width="8.1" height="2.0" fill="#8AAABB" opacity="0.86" rx="1"/>
<rect x="194.6" y="5.1" width="43.2" height="2.0" fill="#8AAABB" opacity="0.85" rx="1"/>
<rect x="259.5" y="25.6" width="2.7" height="2.0" fill="#8AAABB" opacity="0.88" rx="1"/>
<rect x="259.5" y="49.9" width="5.4" height="2.0" fill="#8AAABB" opacity="0.88" rx="1"/>
<rect x="259.5" y="21.8" width="10.8" height="2.0" fill="#8AAABB" opacity="0.87" rx="1"/>
<rect x="259.5" y="58.9" width="21.6" height="2.0" fill="#8AAABB" opacity="0.88" rx="1"/>
<rect x="281.1" y="26.9" width="10.8" height="2.0" fill="#8AAABB" opacity="0.85" rx="1"/>
<rect x="281.1" y="21.8" width="10.8" height="2.0" fill="#8AAABB" opacity="0.87" rx="1"/>
<rect x="291.9" y="49.9" width="5.4" height="2.0" fill="#8AAABB" opacity="0.83" rx="1"/>
<rect x="302.7" y="49.9" width="5.4" height="2.0" fill="#8AAABB" opacity="0.88" rx="1"/>
<rect x="302.7" y="25.6" width="8.1" height="2.0" fill="#8AAABB" opacity="0.89" rx="1"/>
<rect x="313.5" y="14.1" width="10.8" height="2.0" fill="#8AAABB" opacity="0.84" rx="1"/>
<rect x="324.3" y="49.9" width="2.7" height="2.0" fill="#8AAABB" opacity="0.82" rx="1"/>
<rect x="302.7" y="58.9" width="32.4" height="2.0" fill="#8AAABB" opacity="0.86" rx="1"/>
<rect x="324.3" y="26.9" width="10.8" height="2.0" fill="#8AAABB" opacity="0.88" rx="1"/>
<rect x="324.3" y="10.2" width="10.8" height="2.0" fill="#8AAABB" opacity="0.85" rx="1"/>
<rect x="335.1" y="20.5" width="2.7" height="2.0" fill="#8AAABB" opacity="0.85" rx="1"/>
<rect x="335.1" y="15.4" width="10.8" height="2.0" fill="#8AAABB" opacity="0.85" rx="1"/>
<rect x="337.8" y="20.5" width="8.1" height="2.0" fill="#8AAABB" opacity="0.83" rx="1"/>
<rect x="335.1" y="25.6" width="10.8" height="2.0" fill="#8AAABB" opacity="0.86" rx="1"/>
<rect x="389.2" y="25.6" width="2.7" height="2.0" fill="#8AAABB" opacity="0.87" rx="1"/>
<rect x="389.2" y="49.9" width="5.4" height="2.0" fill="#8AAABB" opacity="0.87" rx="1"/>
<rect x="389.2" y="21.8" width="10.8" height="2.0" fill="#8AAABB" opacity="0.84" rx="1"/>
<rect x="400.0" y="21.8" width="2.7" height="2.0" fill="#8AAABB" opacity="0.87" rx="1"/>
<rect x="389.2" y="58.9" width="21.6" height="2.0" fill="#8AAABB" opacity="0.87" rx="1"/>
<rect x="400.0" y="15.4" width="10.8" height="2.0" fill="#8AAABB" opacity="0.84" rx="1"/>
<rect x="410.8" y="21.8" width="10.8" height="2.0" fill="#8AAABB" opacity="0.85" rx="1"/>
<rect x="421.6" y="49.9" width="5.4" height="2.0" fill="#8AAABB" opacity="0.86" rx="1"/>
<rect x="421.6" y="17.9" width="10.8" height="2.0" fill="#8AAABB" opacity="0.82" rx="1"/>
<rect x="432.4" y="49.9" width="8.1" height="2.0" fill="#8AAABB" opacity="0.88" rx="1"/>
<rect x="432.4" y="25.6" width="8.1" height="2.0" fill="#8AAABB" opacity="0.88" rx="1"/>
<rect x="432.4" y="23.0" width="10.8" height="2.0" fill="#8AAABB" opacity="0.85" rx="1"/>
<rect x="432.4" y="5.1" width="10.8" height="2.0" fill="#8AAABB" opacity="0.83" rx="1"/>
<rect x="432.4" y="58.9" width="21.6" height="2.0" fill="#8AAABB" opacity="0.87" rx="1"/>
<rect x="443.2" y="25.6" width="10.8" height="2.0" fill="#8AAABB" opacity="0.84" rx="1"/>
<rect x="443.2" y="21.8" width="10.8" height="2.0" fill="#8AAABB" opacity="0.85" rx="1"/>
<rect x="443.2" y="16.6" width="10.8" height="2.0" fill="#8AAABB" opacity="0.88" rx="1"/>
<rect x="443.2" y="44.8" width="21.6" height="2.0" fill="#8AAABB" opacity="0.85" rx="1"/>
<rect x="454.1" y="26.9" width="10.8" height="2.0" fill="#8AAABB" opacity="0.86" rx="1"/>
<rect x="454.1" y="5.1" width="10.8" height="2.0" fill="#8AAABB" opacity="0.87" rx="1"/>
<rect x="454.1" y="6.4" width="10.8" height="2.0" fill="#8AAABB" opacity="0.86" rx="1"/>
<rect x="464.9" y="49.9" width="5.4" height="2.0" fill="#8AAABB" opacity="0.86" rx="1"/>
<rect x="464.9" y="16.6" width="8.1" height="2.0" fill="#8AAABB" opacity="0.84" rx="1"/>
<rect x="464.9" y="25.6" width="10.8" height="2.0" fill="#8AAABB" opacity="0.87" rx="1"/>
<rect x="464.9" y="14.1" width="10.8" height="2.0" fill="#8AAABB" opacity="0.85" rx="1"/>
<rect x="464.9" y="21.8" width="10.8" height="2.0" fill="#8AAABB" opacity="0.85" rx="1"/>
<rect x="464.9" y="24.3" width="21.6" height="2.0" fill="#8AAABB" opacity="0.89" rx="1"/>
</svg>