<svg xmlns="http://www.w3.org/2000/svg" width="800" height="64" style="background:#0B1E26;border-radius:6px">
<rect x="175.7" y="19.2" width="2.7" height="2.0" fill="#4FD1C5" opacity="0.91" rx="1"/>
<rect x="313.5" y="26.9" width="2.7" height="2.0" fill="#4FD1C5" opacity="0.89" rx="1"/>
<rect x="316.2" y="26.9" width="10.8" height="2.0" fill="#4FD1C5" opacity="0.93" rx="1"/>
<rect x="337.8" y="24.3" width="2.7" height="2.0" fill="#4FD1C5" opacity="0.89" rx="1"/>
<rect x="343.2" y="25.6" width="2.7" height="2.0" fill="#4FD1C5" opacity="0.92" rx="1"/>
<rect x="345.9" y="25.6" width="10.8" height="2.0" fill="#4FD1C5" opacity="0.90" rx="1"/>
<rect x="400.0" y="24.3" width="10.8" height="2.0" fill="#4FD1C5" opacity="0.92" rx="1"/>
<rect x="402.7" y="17.9" width="10.8" height="2.0" fill="#4FD1C5" opacity="0.94" rx="1"/>
<rect x="418.9" y="28.2" width="10.8" height="2.0" fill="#4FD1C5" opacity="0.89" rx="1"/>
<rect x="418.9" y="23.0" width="10.8" height="2.0" fill="#4FD1C5" opacity="0.89" rx="1"/>
<rect x="435.1" y="17.9" width="5.4" height="2.0" fill="#4FD1C5" opacity="0.89" rx="1"/>
<rect x="440.5" y="23.0" width="5.4" height="2.0" fill="#4FD1C5" opacity="0.90" rx="1"/>
<rect x="445.9" y="23.0" width="8.1" height="2.0" fill="#4FD1C5" opacity="0.93" rx="1"/>
<rect x="462.2" y="14.1" width="10.8" height="2.0" fill="#4FD1C5" opacity="0.93" rx="1"/>
<rect x="470.3" y="15.4" width="2.7" height="2.0" fill="#4FD1C5" opacity="0.94" rx="1"/>
<rect x="473.0" y="16.6" width="32.4" height="2.0" fill="#4FD1C5" opacity="0.93" rx="1"/>
<rect x="518.9" y="16.6" width="21.6" height="2.0" fill="#4FD1C5" opacity="0.94" rx="1"/>
<rect x="547.8" y="15.4" width="10.8" height="2.0" fill="#4FD1C5" opacity="0.92" rx="1"/>
<rect x="551.4" y="23.0" width="10.8" height="2.0" fill="#4FD1C5" opacity="0.90" rx="1"/>
<rect x="551.4" y="32.0" width="10.8" height="2.0" fill="#4FD1C5" opacity="0.88" rx="1"/>
<rect x="551.4" y="17.9" width="10.8" height="2.0" fill="#4FD1C5" opacity="0.93" rx="1"/>
<rect x="551.4" y="24.3" width="10.8" height="2.0" fill="#4FD1C5" opacity="0.90" rx="1"/>
<rect x="547.8" y="37.1" width="32.4" height="2.0" fill="#4FD1C5" opacity="0.92" rx="1"/>
<rect x="562.2" y="32.0" width="29.7" height="2.0" fill="#4FD1C5" opacity="0.89" rx="1"/>
<rect x="562.2" y="19.2" width="32.4" height="2.0" fill="#4FD1C5" opacity="0.89" rx="1"/>
<rect x="562.2" y="28.2" width="32.4" height="2.0" fill="#4FD1C5" opacity="0.89" rx="1"/>
<rect x="562.2" y="38.4" width="40.5" height="2.0" fill="#4FD1C5" opacity="0.89" rx="1"/>
<rect x="594.6" y="26.9" width="10.8" height="2.0" fill="#4FD1C5" opacity="0.91" rx="1"/>
<rect x="600.0" y="30.7" width="8.1" height="2.0" fill="#4FD1C5" opacity="0.88" rx="1"/>
<rect x="605.4" y="33.3" width="10.8" height="2.0" fill="#4FD1C5" opacity="0.88" rx="1"/>
<rect x="616.2" y="32.0" width="2.7" height="2.0" fill="#4FD1C5" opacity="0.88" rx="1"/>
<rect x="608.1" y="29.4" width="16.2" height="2.0" fill="#4FD1C5" opacity="0.91" rx="1"/>
<rect x="616.2" y="33.3" width="10.8" height="2.0" fill="#4FD1C5" opacity="0.93" rx="1"/>
<rect x="618.9" y="30.7" width="10.8" height="2.0" fill="#4FD1C5" opacity="0.91" rx="1"/>
<rect x="634.3" y="30.7" width="10.8" height="2.0" fill="#4FD1C5" opacity="0.89" rx="1"/>
<rect x="634.3" y="16.6" width="10.8" height="2.0" fill="#4FD1C5" opacity="0.90" rx="1"/>
<rect x="634.3" y="10.2" width="10.8" height="2.0" fill="#4FD1C5" opacity="0.93" rx="1"/>
<rect x="173.0" y="48.6" width="5.4" height="2.0" fill="#F4C471" opacity="0.79" rx="1"/>
<rect x="173.0" y="33.3" width="43.2" height="2.0" fill="#F4C471" opacity="0.78" rx="1"/>
<rect x="305.4" y="58.9" width="8.1" height="2.0" fill="#F4C471" opacity="0.76" rx="1"/>
<rect x="305.4" y="43.5" width="8.1" height="2.0" fill="#F4C471" opacity="0.74" rx="1"/>
<rect x="332.4" y="58.9" width="118.9" height="2.0" fill="#F4C471" opacity="0.76" rx="1"/>
<rect x="332.4" y="43.5" width="118.9" height="2.0" fill="#F4C471" opacity="0.77" rx="1"/>
<rect x="464.9" y="38.4" width="2.7" height="2.0" fill="#F4C471" opacity="0.79" rx="1"/>
<rect x="464.9" y="48.6" width="8.1" height="2.0" fill="#F4C471" opacity="0.75" rx="1"/>
<rect x="464.9" y="32.0" width="8.1" height="2.0" fill="#F4C471" opacity="0.74" rx="1"/>
<rect x="467.6" y="46.1" width="8.1" height="2.0" fill="#F4C471" opacity="0.74" rx="1"/>
<rect x="467.6" y="38.4" width="8.1" height="2.0" fill="#F4C471" opacity="0.78" rx="1"/>
<rect x="467.6" y="37.1" width="8.1" height="2.0" fill="#F4C471" opacity="0.77" rx="1"/>
<rect x="467.6" y="42.2" width="10.8" height="2.0" fill="#F4C471" opacity="0.75" rx="1"/>
<rect x="529.7" y="38.4" width="10.8" height="2.0" fill="#F4C471" opacity="0.75" rx="1"/>
<rect x="547.8" y="38.4" width="2.7" height="2.0" fill="#F4C471" opacity="0.75" rx="1"/>
<rect x="547.8" y="30.7" width="8.1" height="2.0" fill="#F4C471" opacity="0.80" rx="1"/>
<rect x="551.4" y="37.1" width="7.3" height="2.0" fill="#F4C471" opacity="0.79" rx="1"/>
<rect x="551.4" y="38.4" width="8.1" height="2.0" fill="#F4C471" opacity="0.79" rx="1"/>
<rect x="551.4" y="32.0" width="10.8" height="2.0" fill="#F4C471" opacity="0.78" rx="1"/>
<rect x="551.4" y="41.0" width="10.8" height="2.0" fill="#F4C471" opacity="0.79" rx="1"/>
<rect x="547.8" y="53.8" width="32.4" height="2.0" fill="#F4C471" opacity="0.76" rx="1"/>
<rect x="562.2" y="38.4" width="18.9" height="2.0" fill="#F4C471" opacity="0.76" rx="1"/>
<rect x="562.2" y="34.6" width="21.6" height="2.0" fill="#F4C471" opacity="0.79" rx="1"/>
<rect x="562.2" y="30.7" width="21.6" height="2.0" fill="#F4C471" opacity="0.77" rx="1"/>
<rect x="562.2" y="43.5" width="27.0" height="2.0" fill="#F4C471" opacity="0.78" rx="1"/>
<rect x="591.9" y="38.4" width="7.3" height="2.0" fill="#F4C471" opacity="0.76" rx="1"/>
<rect x="594.6" y="32.0" width="7.3" height="2.0" fill="#F4C471" opacity="0.80" rx="1"/>
<rect x="591.1" y="34.6" width="10.8" height="2.0" fill="#F4C471" opacity="0.79" rx="1"/>
<rect x="594.6" y="33.3" width="8.1" height="2.0" fill="#F4C471" opacity="0.76" rx="1"/>
<rect x="597.3" y="43.5" width="8.1" height="2.0" fill="#F4C471" opacity="0.76" rx="1"/>
<rect x="605.4" y="32.0" width="8.1" height="2.0" fill="#F4C471" opacity="0.79" rx="1"/>
<rect x="605.4" y="44.8" width="10.8" height="2.0" fill="#F4C471" opacity="0.78" rx="1"/>
<rect x="605.4" y="39.7" width="10.8" height="2.0" fill="#F4C471" opacity="0.79" rx="1"/>
<rect x="605.4" y="38.4" width="10.8" height="2.0" fill="#F4C471" opacity="0.79" rx="1"/>
<rect x="608.1" y="43.5" width="8.1" height="2.0" fill="#F4C471" opacity="0.75" rx="1"/>
<rect x="613.5" y="47.4" width="2.7" height="2.0" fill="#F4C471" opacity="0.77" rx="1"/>
<rect x="613.5" y="32.0" width="10.8" height="2.0" fill="#F4C471" opacity="0.79" rx="1"/>
<rect x="616.2" y="38.4" width="10.8" height="2.0" fill="#F4C471" opacity="0.78" rx="1"/>
<rect x="616.2" y="47.4" width="10.8" height="2.0" fill="#F4C471" opacity="0.76" rx="1"/>
<rect x="634.3" y="35.8" width="2.7" height="2.0" fill="#F4C471" opacity="0.80" rx="1"/>
<rect x="634.3" y="38.4" width="10.8" height="2.0" fill="#F4C471" opacity="0.79" rx="1"/>
<rect x="634.3" y="30.7" width="10.8" height="2.0" fill="#F4C471" opacity="0.77" rx="1"/>
<rect x="634.3" y="41.0" width="10.8" height="2.0" fill="#F4C471" opacity="0.79" rx="1"/>
<rect x="634.3" y="33.3" width="10.8" height="2.0" fill="#F4C471" opacity="0.79" rx="1"/>
<rect x="634.3" y="47.4" width="10.8" height="2.0" fill="#F4C471" opacity="0.79" rx="1"/>
<rect x="173.0" y="24.3" width="2.7" height="2.0" fill="#81E6D9" opacity="0.78" rx="1"/>
<rect x="173.0" y="17.9" width="151.4" height="2.0" fill="#81E6D9" opacity="0.81" rx="1"/>
<rect x="302.7" y="23.0" width="21.6" height="2.0" fill="#81E6D9" opacity="0.78" rx="1"/>
<rect x="173.0" y="33.3" width="162.2" height="2.0" fill="#81E6D9" opacity="0.76" rx="1"/>
<rect x="332.4" y="23.0" width="10.8" height="2.0" fill="#81E6D9" opacity="0.82" rx="1"/>
<rect x="332.4" y="26.9" width="10.8" height="2.0" fill="#81E6D9" opacity="0.78" rx="1"/>
<rect x="332.4" y="17.9" width="10.8" height="2.0" fill="#81E6D9" opacity="0.82" rx="1"/>
<rect x="173.0" y="30.7" width="173.0" height="2.0" fill="#81E6D9" opacity="0.81" rx="1"/>
<rect x="335.1" y="24.3" width="10.8" height="2.0" fill="#81E6D9" opacity="0.79" rx="1"/>
<rect x="389.2" y="28.2" width="10.8" height="2.0" fill="#81E6D9" opacity="0.79" rx="1"/>
<rect x="389.2" y="23.0" width="10.8" height="2.0" fill="#81E6D9" opacity="0.81" rx="1"/>
<rect x="302.7" y="12.8" width="151.4" height="2.0" fill="#81E6D9" opacity="0.80" rx="1"/>
<rect x="432.4" y="23.0" width="32.4" height="2.0" fill="#81E6D9" opacity="0.82" rx="1"/>
<rect x="432.4" y="19.2" width="32.4" height="2.0" fill="#81E6D9" opacity="0.82" rx="1"/>
<rect x="432.4" y="30.7" width="43.2" height="2.0" fill="#81E6D9" opacity="0.81" rx="1"/>
<rect x="634.3" y="38.4" width="2.7" height="2.0" fill="#81E6D9" opacity="0.77" rx="1"/>
<rect x="634.3" y="39.7" width="2.7" height="2.0" fill="#81E6D9" opacity="0.82" rx="1"/>
<rect x="634.3" y="33.3" width="2.7" height="2.0" fill="#81E6D9" opacity="0.78" rx="1"/>
<rect x="635.1" y="37.1" width="5.4" height="2.0" fill="#81E6D9" opacity="0.78" rx="1"/>
<rect x="464.9" y="23.0" width="335.1" height="2.0" fill="#81E6D9" opacity="0.80" rx="1"/>
<rect x="173.0" y="56.3" width="5.4" height="2.0" fill="#8AAABB" opacity="0.87" rx="1"/>
<rect x="173.0" y="26.9" width="8.1" height="2.0" fill="#8AAABB" opacity="0.88" rx="1"/>
<rect x="173.0" y="58.9" width="10.8" height="2.0" fill="#8AAABB" opacity="0.85" rx="1"/>
<rect x="173.0" y="15.4" width="21.6" height="2.0" fill="#8AAABB" opacity="0.86" rx="1"/>
<rect x="194.6" y="49.9" width="5.4" height="2.0" fill="#8AAABB" opacity="0.86" rx="1"/>
<rect x="194.6" y="26.9" width="8.1" height="2.0" fill="#8AAABB" opacity="0.87" rx="1"/>
<rect x="173.0" y="57.6" width="32.4" height="2.0" fill="#8AAABB" opacity="0.85" rx="1"/>
<rect x="216.2" y="24.3" width="8.1" height="2.0" fill="#8AAABB" opacity="0.85" rx="1"/>
<rect x="194.6" y="5.1" width="43.2" height="2.0" fill="#8AAABB" opacity="0.85" rx="1"/>
<rect x="259.5" y="25.6" width="2.7" height="2.0" fill="#8AAABB" opacity="0.85" rx="1"/>
<rect x="259.5" y="49.9" width="5.4" height="2.0" fill="#8AAABB" opacity="0.88" rx="1"/>
<rect x="259.5" y="21.8" width="10.8" height="2.0" fill="#8AAABB" opacity="0.85" rx="1"/>
<rect x="259.5" y="58.9" width="21.6" height="2.0" fill="#8AAABB" opacity="0.85" rx="1"/>
<rect x="281.1" y="26.9" width="10.8" height="2.0" fill="#8AAABB" opacity="0.87" rx="1"/>
<rect x="281.1" y="21.8" width="10.8" height="2.0" fill="#8AAABB" opacity="0.87" rx="1"/>
<rect x="291.9" y="49.9" width="5.4" height="2.0" fill="#8AAABB" opacity="0.83" rx="1"/>
<rect x="302.7" y="49.9" width="5.4" height="2.0" fill="#8AAABB" opacity="0.86" rx="1"/>
<rect x="302.7" y="25.6" width="8.1" height="2.0" fill="#8AAABB" opacity="0.88" rx="1"/>
<rect x="313.5" y="14.1" width="10.8" height="2.0" fill="#8AAABB" opacity="0.84" rx="1"/>
<rect x="324.3" y="49.9" width="2.7" height="2.0" fill="#8AAABB" opacity="0.84" rx="1"/>
<rect x="302.7" y="58.9" width="32.4" height="2.0" fill="#8AAABB" opacity="0.87" rx="1"/>
<rect x="324.3" y="26.9" width="10.8" height="2.0" fill="#8AAABB" opacity="0.85" rx="1"/>
<rect x="324.3" y="10.2" width="10.8" height="2.0" fill="#8AAABB" opacity="0.87" rx="1"/>
<rect x="335.1" y="20.5" width="2.7" height="2.0" fill="#8AAABB" opacity="0.86" rx="1"/>
<rect x="335.1" y="15.4" width="10.8" height="2.0" fill="#8AAABB" opacity="0.84" rx="1"/>
<rect x="335.1" y="25.6" width="10.8" height="2.0" fill="#8AAABB" opacity="0.87" rx="1"/>
<rect x="337.8" y="20.5" width="8.1" height="2.0" fill="#8AAABB" opacity="0.85" rx="1"/>
<rect x="389.2" y="25.6" width="2.7" height="2.0" fill="#8AAABB" opacity="0.87" rx="1"/>
<rect x="389.2" y="49.9" width="5.4" height="2.0" fill="#8AAABB" opacity="0.88" rx="1"/>
<rect x="389.2" y="21.8" width="10.8" height="2.0" fill="#8AAABB" opacity="0.86" rx="1"/>
<rect x="400.0" y="21.8" width="2.7" height="2.0" fill="#8AAABB" opacity="0.86" rx="1"/>
<rect x="389.2" y="58.9" width="21.6" height="2.0" fill="#8AAABB" opacity="0.87" rx="1"/>
<rect x="400.0" y="15.4" width="10.8" height="2.0" fill="#8AAABB" opacity="0.85" rx="1"/>
<rect x="410.8" y="21.8" width="10.8" height="2.0" fill="#8AAABB" opacity="0.85" rx="1"/>
<rect x="421.6" y="49.9" width="5.4" height="2.0" fill="#8AAABB" opacity="0.87" rx="1"/>
<rect x="421.6" y="17.9" width="10.8" height="2.0" fill="#8AAABB" opacity="0.84" rx="1"/>
<rect x="432.4" y="49.9" width="8.1" height="2.0" fill="#8AAABB" opacity="0.87" rx="1"/>
<rect x="432.4" y="25.6" width="8.1" height="2.0" fill="#8AAABB" opacity="0.86" rx="1"/>
<rect x="432.4" y="23.0" width="10.8" height="2.0" fill="#8AAABB" opacity="0.84" rx="1"/>
<rect x="432.4" y="5.1" width="10.8" height="2.0" fill="#8AAABB" opacity="0.86" rx="1"/>
<rect x="432.4" y="58.9" width="21.6" height="2.0" fill="#8AAABB" opacity="0.87" rx="1"/>
<rect x="443.2" y="25.6" width="10.8" height="2.0" fill="#8AAABB" opacity="0.87" rx="1"/>
<rect x="443.2" y="21.8" width="10.8" height="2.0" fill="#8AAABB" opacity="0.84" rx="1"/>
<rect x="443.2" y="16.6" width="10.8" height="2.0" fill="#8AAABB" opacity="0.87" rx="1"/>
<rect x="443.2" y="44.8" width="21.6" height="2.0" fill="#8AAABB" opacity="0.87" rx="1"/>
<rect x="454.1" y="26.9" width="10.8" height="2.0" fill="#8AAABB" opacity="0.85" rx="1"/>
<rect x="454.1" y="5.1" width="10.8" height="2.0" fill="#8AAABB" opacity="0.85" rx="1"/>
<rect x="454.1" y="6.4" width="10.8" height="2.0" fill="#8AAABB" opacity="0.85" rx="1"/>
<rect x="464.9" y="49.9" width="5.4" height="2.0" fill="#8AAABB" opacity="0.87" rx="1"/>
<rect x="464.9" y="16.6" width="8.1" height="2.0" fill="#8AAABB" opacity="0.86" rx="1"/>
<rect x="464.9" y="25.6" width="10.8" height="2.0" fill="#8AAABB" opacity="0.85" rx="1"/>
<rect x="464.9" y="14.1" width="10.8" height="2.0" fill="#8AAABB" opacity="0.84" rx="1"/>
<rect x="464.9" y="21.8" width="10.8" height="2.0" fill="#8AAABB" opacity="0.87" rx="1"/>
<rect x="464.9" y="24.3" width="21.6" height="2.0" fill="#8AAABB" opacity="0.85" rx="1"/>
<rect x="475.7" y="23.0" width="16.2" height="2.0" fill="#8AAABB" opacity="0.86" rx="1"/>
<rect x="518.9" y="49.9" width="10.8" height="2.0" fill="#8AAABB" opacity="0.86" rx="1"/>
<rect x="518.9" y="26.9" width="10.8" height="2.0" fill="#8AAABB" opacity="0.85" rx="1"/>
<rect x="518.9" y="25.6" width="10.8" height="2.0" fill="#8AAABB" opacity="0.84" rx="1"/>
<rect x="518.9" y="58.9" width="21.6" height="2.0" fill="#8AAABB" opacity="0.87" rx="1"/>
<rect x="529.7" y="15.4" width="10.8" height="2.0" fill="#8AAABB" opacity="0.87" rx="1"/>
<rect x="529.7" y="26.9" width="10.8" height="2.0" fill="#8AAABB" opacity="0.85" rx="1"/>
<rect x="529.7" y="25.6" width="10.8" height="2.0" fill="#8AAABB" opacity="0.83" rx="1"/>
<rect x="540.5" y="25.6" width="10.8" height="2.0" fill="#8AAABB" opacity="0.85" rx="1"/>
<rect x="540.5" y="23.0" width="10.8" height="2.0" fill="#8AAABB" opacity="0.84" rx="1"/>
<rect x="540.5" y="26.9" width="10.8" height="2.0" fill="#8AAABB" opacity="0.84" rx="1"/>
<rect x="551.4" y="49.9" width="10.8" height="2.0" fill="#8AAABB" opacity="0.88" rx="1"/>
<rect x="551.4" y="26.9" width="10.8" height="2.0" fill="#8AAABB" opacity="0.86" rx="1"/>
<rect x="551.4" y="25.6" width="10.8" height="2.0" fill="#8AAABB" opacity="0.85" rx="1"/>
<rect x="551.4" y="21.8" width="10.8" height="2.0" fill="#8AAABB" opacity="0.84" rx="1"/>
<rect x="551.4" y="23.0" width="10.8" height="2.0" fill="#8AAABB" opacity="0.84" rx="1"/>
<rect x="551.4" y="15.4" width="10.8" height="2.0" fill="#8AAABB" opacity="0.85" rx="1"/>
<rect x="562.2" y="49.9" width="10.8" height="2.0" fill="#8AAABB" opacity="0.87" rx="1"/>
<rect x="562.2" y="23.0" width="10.8" height="2.0" fill="#8AAABB" opacity="0.85" rx="1"/>
<rect x="562.2" y="58.9" width="10.8" height="2.0" fill="#8AAABB" opacity="0.88" rx="1"/>
<rect x="562.2" y="14.1" width="10.8" height="2.0" fill="#8AAABB" opacity="0.86" rx="1"/>
<rect x="573.0" y="15.4" width="10.8" height="2.0" fill="#8AAABB" opacity="0.86" rx="1"/>
<rect x="573.0" y="25.6" width="10.8" height="2.0" fill="#8AAABB" opacity="0.85" rx="1"/>
<rect x="583.8" y="25.6" width="10.8" height="2.0" fill="#8AAABB" opacity="0.85" rx="1"/>
<rect x="583.8" y="21.8" width="10.8" height="2.0" fill="#8AAABB" opacity="0.87" rx="1"/>
<rect x="583.8" y="26.9" width="10.8" height="2.0" fill="#8AAABB" opacity="0.86" rx="1"/>
<rect x="594.6" y="14.1" width="10.8" height="2.0" fill="#8AAABB" opacity="0.85" rx="1"/>
<rect x="605.4" y="23.0" width="8.1" height="2.0" fill="#8AAABB" opacity="0.83" rx="1"/>
<rect x="605.4" y="26.9" width="10.8" height="2.0" fill="#8AAABB" opacity="0.85" rx="1"/>
<rect x="605.4" y="10.2" width="10.8" height="2.0" fill="#8AAABB" opacity="0.85" rx="1"/>
<rect x="605.4" y="7.7" width="10.8" height="2.0" fill="#8AAABB" opacity="0.84" rx="1"/>
<rect x="605.4" y="25.6" width="10.8" height="2.0" fill="#8AAABB" opacity="0.86" rx="1"/>
<rect x="605.4" y="58.9" width="10.8" height="2.0" fill="#8AAABB" opacity="0.87" rx="1"/>
<rect x="605.4" y="24.3" width="10.8" height="2.0" fill="#8AAABB" opacity="0.84" rx="1"/>
<rect x="616.2" y="10.2" width="8.1" height="2.0" fill="#8AAABB" opacity="0.84" rx="1"/>
<rect x="605.4" y="49.9" width="21.6" height="2.0" fill="#8AAABB" opacity="0.85" rx="1"/>
<rect x="616.2" y="26.9" width="10.8" height="2.0" fill="#8AAABB" opacity="0.88" rx="1"/>
<rect x="616.2" y="21.8" width="10.8" height="2.0" fill="#8AAABB" opacity="0.86" rx="1"/>
<rect x="616.2" y="23.0" width="10.8" height="2.0" fill="#8AAABB" opacity="0.85" rx="1"/>
<rect x="616.2" y="25.6" width="10.8" height="2.0" fill="#8AAABB" opacity="0.85" rx="1"/>
<rect x="618.9" y="14.1" width="10.8" height="2.0" fill="#8AAABB" opacity="0.88" rx="1"/>
<rect x="627.0" y="24.3" width="10.8" height="2.0" fill="#8AAABB" opacity="0.86" rx="1"/>
<rect x="627.0" y="10.2" width="10.8" height="2.0" fill="#8AAABB" opacity="0.86" rx="1"/>
<rect x="627.0" y="26.9" width="10.8" height="2.0" fill="#8AAABB" opacity="0.85" rx="1"/>
<rect x="627.0" y="23.0" width="10.8" height="2.0" fill="#8AAABB" opacity="0.86" rx="1"/>
</svg>