<svg xmlns="http://www.w3.org/2000/svg" width="800" height="64" style="background:#0B1E26;border-radius:6px">
<rect x="141.3" y="19.2" width="2.2" height="2.0" fill="#4FD1C5" opacity="0.94" rx="1"/>
<rect x="252.2" y="26.9" width="2.2" height="2.0" fill="#4FD1C5" opacity="0.89" rx="1"/>
<rect x="254.3" y="26.9" width="8.7" height="2.0" fill="#4FD1C5" opacity="0.90" rx="1"/>
<rect x="271.7" y="24.3" width="2.2" height="2.0" fill="#4FD1C5" opacity="0.88" rx="1"/>
<rect x="276.1" y="25.6" width="2.2" height="2.0" fill="#4FD1C5" opacity="0.95" rx="1"/>
<rect x="278.3" y="24.3" width="8.7" height="2.0" fill="#4FD1C5" opacity="0.90" rx="1"/>
<rect x="321.7" y="24.3" width="8.7" height="2.0" fill="#4FD1C5" opacity="0.92" rx="1"/>
<rect x="323.9" y="17.9" width="8.7" height="2.0" fill="#4FD1C5" opacity="0.90" rx="1"/>
<rect x="337.0" y="26.9" width="8.7" height="2.0" fill="#4FD1C5" opacity="0.88" rx="1"/>
<rect x="337.0" y="23.0" width="8.7" height="2.0" fill="#4FD1C5" opacity="0.89" rx="1"/>
<rect x="350.0" y="17.9" width="4.3" height="2.0" fill="#4FD1C5" opacity="0.93" rx="1"/>
<rect x="354.3" y="23.0" width="4.3" height="2.0" fill="#4FD1C5" opacity="0.91" rx="1"/>
<rect x="358.7" y="23.0" width="6.5" height="2.0" fill="#4FD1C5" opacity="0.91" rx="1"/>
<rect x="371.7" y="14.1" width="8.7" height="2.0" fill="#4FD1C5" opacity="0.95" rx="1"/>
<rect x="378.3" y="15.4" width="2.2" height="2.0" fill="#4FD1C5" opacity="0.95" rx="1"/>
<rect x="380.4" y="15.4" width="26.1" height="2.0" fill="#4FD1C5" opacity="0.90" rx="1"/>
<rect x="417.4" y="16.6" width="17.4" height="2.0" fill="#4FD1C5" opacity="0.93" rx="1"/>
<rect x="441.3" y="15.4" width="8.7" height="2.0" fill="#4FD1C5" opacity="0.93" rx="1"/>
<rect x="443.5" y="23.0" width="8.7" height="2.0" fill="#4FD1C5" opacity="0.91" rx="1"/>
<rect x="443.5" y="32.0" width="8.7" height="2.0" fill="#4FD1C5" opacity="0.89" rx="1"/>
<rect x="443.5" y="17.9" width="8.7" height="2.0" fill="#4FD1C5" opacity="0.95" rx="1"/>
<rect x="443.5" y="24.3" width="8.7" height="2.0" fill="#4FD1C5" opacity="0.95" rx="1"/>
<rect x="441.3" y="37.1" width="26.1" height="2.0" fill="#4FD1C5" opacity="0.95" rx="1"/>
<rect x="452.2" y="32.0" width="23.9" height="2.0" fill="#4FD1C5" opacity="0.91" rx="1"/>
<rect x="452.2" y="19.2" width="26.1" height="2.0" fill="#4FD1C5" opacity="0.89" rx="1"/>
<rect x="452.2" y="26.9" width="26.1" height="2.0" fill="#4FD1C5" opacity="0.94" rx="1"/>
<rect x="452.2" y="38.4" width="32.6" height="2.0" fill="#4FD1C5" opacity="0.90" rx="1"/>
<rect x="478.3" y="26.9" width="8.7" height="2.0" fill="#4FD1C5" opacity="0.92" rx="1"/>
<rect x="482.6" y="30.7" width="6.5" height="2.0" fill="#4FD1C5" opacity="0.94" rx="1"/>
<rect x="487.0" y="33.3" width="8.7" height="2.0" fill="#4FD1C5" opacity="0.92" rx="1"/>
<rect x="495.7" y="32.0" width="2.2" height="2.0" fill="#4FD1C5" opacity="0.91" rx="1"/>
<rect x="489.1" y="29.4" width="13.0" height="2.0" fill="#4FD1C5" opacity="0.92" rx="1"/>
<rect x="495.7" y="33.3" width="8.7" height="2.0" fill="#4FD1C5" opacity="0.95" rx="1"/>
<rect x="497.8" y="30.7" width="8.7" height="2.0" fill="#4FD1C5" opacity="0.93" rx="1"/>
<rect x="510.9" y="30.7" width="8.7" height="2.0" fill="#4FD1C5" opacity="0.93" rx="1"/>
<rect x="510.9" y="15.4" width="8.7" height="2.0" fill="#4FD1C5" opacity="0.94" rx="1"/>
<rect x="510.9" y="10.2" width="8.7" height="2.0" fill="#4FD1C5" opacity="0.95" rx="1"/>
<rect x="513.0" y="11.5" width="8.7" height="2.0" fill="#4FD1C5" opacity="0.93" rx="1"/>
<rect x="523.9" y="12.8" width="6.5" height="2.0" fill="#4FD1C5" opacity="0.94" rx="1"/>
<rect x="521.7" y="16.6" width="26.1" height="2.0" fill="#4FD1C5" opacity="0.93" rx="1"/>
<rect x="521.7" y="39.7" width="26.1" height="2.0" fill="#4FD1C5" opacity="0.95" rx="1"/>
<rect x="521.7" y="10.2" width="26.1" height="2.0" fill="#4FD1C5" opacity="0.91" rx="1"/>
<rect x="547.8" y="42.2" width="8.7" height="2.0" fill="#4FD1C5" opacity="0.92" rx="1"/>
<rect x="547.8" y="21.8" width="8.7" height="2.0" fill="#4FD1C5" opacity="0.95" rx="1"/>
<rect x="547.8" y="28.2" width="8.7" height="2.0" fill="#4FD1C5" opacity="0.91" rx="1"/>
<rect x="547.8" y="15.4" width="8.7" height="2.0" fill="#4FD1C5" opacity="0.90" rx="1"/>
<rect x="547.8" y="17.9" width="8.7" height="2.0" fill="#4FD1C5" opacity="0.92" rx="1"/>
<rect x="545.7" y="32.0" width="45.7" height="2.0" fill="#4FD1C5" opacity="0.91" rx="1"/>
<rect x="591.3" y="20.5" width="8.7" height="2.0" fill="#4FD1C5" opacity="0.93" rx="1"/>
<rect x="591.3" y="26.9" width="8.7" height="2.0" fill="#4FD1C5" opacity="0.94" rx="1"/>
<rect x="591.3" y="42.2" width="8.7" height="2.0" fill="#4FD1C5" opacity="0.95" rx="1"/>
<rect x="600.0" y="42.2" width="6.5" height="2.0" fill="#4FD1C5" opacity="0.95" rx="1"/>
<rect x="591.3" y="23.0" width="19.6" height="2.0" fill="#4FD1C5" opacity="0.94" rx="1"/>
<rect x="591.3" y="30.7" width="21.7" height="2.0" fill="#4FD1C5" opacity="0.92" rx="1"/>
<rect x="615.2" y="24.3" width="28.3" height="2.0" fill="#4FD1C5" opacity="0.90" rx="1"/>
<rect x="615.2" y="32.0" width="34.8" height="2.0" fill="#4FD1C5" opacity="0.95" rx="1"/>
<rect x="615.2" y="35.8" width="37.0" height="2.0" fill="#4FD1C5" opacity="0.93" rx="1"/>
<rect x="650.0" y="26.9" width="6.5" height="2.0" fill="#4FD1C5" opacity="0.89" rx="1"/>
<rect x="650.0" y="37.1" width="10.9" height="2.0" fill="#4FD1C5" opacity="0.93" rx="1"/>
<rect x="652.2" y="29.4" width="8.7" height="2.0" fill="#4FD1C5" opacity="0.88" rx="1"/>
<rect x="652.2" y="39.7" width="8.7" height="2.0" fill="#4FD1C5" opacity="0.90" rx="1"/>
<rect x="652.2" y="30.7" width="8.7" height="2.0" fill="#4FD1C5" opacity="0.93" rx="1"/>
<rect x="652.2" y="38.4" width="8.7" height="2.0" fill="#4FD1C5" opacity="0.93" rx="1"/>
<rect x="652.2" y="25.6" width="23.9" height="2.0" fill="#4FD1C5" opacity="0.91" rx="1"/>
<rect x="650.0" y="23.0" width="37.0" height="2.0" fill="#4FD1C5" opacity="0.91" rx="1"/>
<rect x="660.9" y="37.1" width="34.8" height="2.0" fill="#4FD1C5" opacity="0.93" rx="1"/>
<rect x="687.0" y="23.0" width="8.7" height="2.0" fill="#4FD1C5" opacity="0.91" rx="1"/>
<rect x="687.0" y="25.6" width="8.7" height="2.0" fill="#4FD1C5" opacity="0.94" rx="1"/>
<rect x="695.7" y="28.2" width="8.7" height="2.0" fill="#4FD1C5" opacity="0.91" rx="1"/>
<rect x="704.3" y="16.6" width="8.7" height="2.0" fill="#4FD1C5" opacity="0.92" rx="1"/>
<rect x="704.3" y="26.9" width="8.7" height="2.0" fill="#4FD1C5" opacity="0.89" rx="1"/>
<rect x="660.9" y="38.4" width="58.7" height="2.0" fill="#4FD1C5" opacity="0.88" rx="1"/>
<rect x="660.9" y="42.2" width="63.0" height="2.0" fill="#4FD1C5" opacity="0.92" rx="1"/>
<rect x="660.9" y="32.0" width="67.4" height="2.0" fill="#4FD1C5" opacity="0.90" rx="1"/>
<rect x="695.7" y="39.7" width="32.6" height="2.0" fill="#4FD1C5" opacity="0.90" rx="1"/>
<rect x="704.3" y="25.6" width="23.9" height="2.0" fill="#4FD1C5" opacity="0.93" rx="1"/>
<rect x="660.9" y="43.5" width="69.6" height="2.0" fill="#4FD1C5" opacity="0.89" rx="1"/>
<rect x="695.7" y="23.0" width="34.8" height="2.0" fill="#4FD1C5" opacity="0.95" rx="1"/>
<rect x="695.7" y="41.0" width="34.8" height="2.0" fill="#4FD1C5" opacity="0.91" rx="1"/>
<rect x="139.1" y="48.6" width="4.3" height="2.0" fill="#F4C471" opacity="0.76" rx="1"/>
<rect x="139.1" y="33.3" width="34.8" height="2.0" fill="#F4C471" opacity="0.77" rx="1"/>
<rect x="245.7" y="58.9" width="6.5" height="2.0" fill="#F4C471" opacity="0.74" rx="1"/>
<rect x="245.7" y="43.5" width="6.5" height="2.0" fill="#F4C471" opacity="0.75" rx="1"/>
<rect x="267.4" y="58.9" width="95.7" height="2.0" fill="#F4C471" opacity="0.74" rx="1"/>
<rect x="267.4" y="43.5" width="95.7" height="2.0" fill="#F4C471" opacity="0.76" rx="1"/>
<rect x="373.9" y="38.4" width="2.2" height="2.0" fill="#F4C471" opacity="0.78" rx="1"/>
<rect x="373.9" y="48.6" width="6.5" height="2.0" fill="#F4C471" opacity="0.78" rx="1"/>
<rect x="373.9" y="30.7" width="6.5" height="2.0" fill="#F4C471" opacity="0.77" rx="1"/>
<rect x="376.1" y="46.1" width="6.5" height="2.0" fill="#F4C471" opacity="0.77" rx="1"/>
<rect x="376.1" y="38.4" width="6.5" height="2.0" fill="#F4C471" opacity="0.77" rx="1"/>
<rect x="376.1" y="37.1" width="6.5" height="2.0" fill="#F4C471" opacity="0.77" rx="1"/>
<rect x="376.1" y="42.2" width="8.7" height="2.0" fill="#F4C471" opacity="0.78" rx="1"/>
<rect x="426.1" y="38.4" width="8.7" height="2.0" fill="#F4C471" opacity="0.76" rx="1"/>
<rect x="441.3" y="38.4" width="2.2" height="2.0" fill="#F4C471" opacity="0.79" rx="1"/>
<rect x="441.3" y="30.7" width="6.5" height="2.0" fill="#F4C471" opacity="0.76" rx="1"/>
<rect x="443.5" y="37.1" width="6.5" height="2.0" fill="#F4C471" opacity="0.78" rx="1"/>
<rect x="443.5" y="38.4" width="6.5" height="2.0" fill="#F4C471" opacity="0.76" rx="1"/>
<rect x="443.5" y="32.0" width="8.7" height="2.0" fill="#F4C471" opacity="0.77" rx="1"/>
<rect x="443.5" y="41.0" width="8.7" height="2.0" fill="#F4C471" opacity="0.79" rx="1"/>
<rect x="441.3" y="53.8" width="26.1" height="2.0" fill="#F4C471" opacity="0.78" rx="1"/>
<rect x="452.2" y="38.4" width="15.2" height="2.0" fill="#F4C471" opacity="0.78" rx="1"/>
<rect x="452.2" y="34.6" width="17.4" height="2.0" fill="#F4C471" opacity="0.78" rx="1"/>
<rect x="452.2" y="30.7" width="17.4" height="2.0" fill="#F4C471" opacity="0.79" rx="1"/>
<rect x="452.2" y="43.5" width="21.7" height="2.0" fill="#F4C471" opacity="0.78" rx="1"/>
<rect x="476.1" y="38.4" width="6.5" height="2.0" fill="#F4C471" opacity="0.77" rx="1"/>
<rect x="476.1" y="34.6" width="8.7" height="2.0" fill="#F4C471" opacity="0.79" rx="1"/>
<rect x="478.3" y="30.7" width="6.5" height="2.0" fill="#F4C471" opacity="0.79" rx="1"/>
<rect x="478.3" y="33.3" width="6.5" height="2.0" fill="#F4C471" opacity="0.77" rx="1"/>
<rect x="480.4" y="43.5" width="6.5" height="2.0" fill="#F4C471" opacity="0.77" rx="1"/>
<rect x="487.0" y="32.0" width="6.5" height="2.0" fill="#F4C471" opacity="0.81" rx="1"/>
<rect x="487.0" y="44.8" width="8.7" height="2.0" fill="#F4C471" opacity="0.79" rx="1"/>
<rect x="487.0" y="39.7" width="8.7" height="2.0" fill="#F4C471" opacity="0.81" rx="1"/>
<rect x="487.0" y="38.4" width="8.7" height="2.0" fill="#F4C471" opacity="0.78" rx="1"/>
<rect x="489.1" y="43.5" width="6.5" height="2.0" fill="#F4C471" opacity="0.78" rx="1"/>
<rect x="493.5" y="47.4" width="2.2" height="2.0" fill="#F4C471" opacity="0.75" rx="1"/>
<rect x="493.5" y="32.0" width="8.7" height="2.0" fill="#F4C471" opacity="0.76" rx="1"/>
<rect x="495.7" y="38.4" width="8.7" height="2.0" fill="#F4C471" opacity="0.79" rx="1"/>
<rect x="495.7" y="47.4" width="8.7" height="2.0" fill="#F4C471" opacity="0.76" rx="1"/>
<rect x="510.9" y="35.8" width="2.2" height="2.0" fill="#F4C471" opacity="0.76" rx="1"/>
<rect x="510.9" y="38.4" width="8.7" height="2.0" fill="#F4C471" opacity="0.78" rx="1"/>
<rect x="510.9" y="30.7" width="8.7" height="2.0" fill="#F4C471" opacity="0.79" rx="1"/>
<rect x="510.9" y="39.7" width="8.7" height="2.0" fill="#F4C471" opacity="0.80" rx="1"/>
<rect x="510.9" y="33.3" width="8.7" height="2.0" fill="#F4C471" opacity="0.75" rx="1"/>
<rect x="510.9" y="47.4" width="8.7" height="2.0" fill="#F4C471" opacity="0.76" rx="1"/>
<rect x="547.8" y="47.4" width="8.7" height="2.0" fill="#F4C471" opacity="0.78" rx="1"/>
<rect x="521.7" y="37.1" width="58.7" height="2.0" fill="#F4C471" opacity="0.78" rx="1"/>
<rect x="521.7" y="39.7" width="58.7" height="2.0" fill="#F4C471" opacity="0.78" rx="1"/>
<rect x="591.3" y="35.8" width="21.7" height="2.0" fill="#F4C471" opacity="0.76" rx="1"/>
<rect x="591.3" y="46.1" width="21.7" height="2.0" fill="#F4C471" opacity="0.80" rx="1"/>
<rect x="591.3" y="38.4" width="21.7" height="2.0" fill="#F4C471" opacity="0.77" rx="1"/>
<rect x="615.2" y="38.4" width="41.3" height="2.0" fill="#F4C471" opacity="0.80" rx="1"/>
<rect x="615.2" y="44.8" width="43.5" height="2.0" fill="#F4C471" opacity="0.79" rx="1"/>
<rect x="615.2" y="43.5" width="43.5" height="2.0" fill="#F4C471" opacity="0.78" rx="1"/>
<rect x="660.9" y="47.4" width="65.2" height="2.0" fill="#F4C471" opacity="0.74" rx="1"/>
<rect x="660.9" y="52.5" width="67.4" height="2.0" fill="#F4C471" opacity="0.80" rx="1"/>
<rect x="660.9" y="38.4" width="67.4" height="2.0" fill="#F4C471" opacity="0.79" rx="1"/>
<rect x="660.9" y="43.5" width="139.1" height="2.0" fill="#F4C471" opacity="0.78" rx="1"/>
<rect x="139.1" y="24.3" width="2.2" height="2.0" fill="#81E6D9" opacity="0.79" rx="1"/>
<rect x="139.1" y="17.9" width="121.7" height="2.0" fill="#81E6D9" opacity="0.80" rx="1"/>
<rect x="243.5" y="23.0" width="17.4" height="2.0" fill="#81E6D9" opacity="0.77" rx="1"/>
<rect x="139.1" y="33.3" width="130.4" height="2.0" fill="#81E6D9" opacity="0.81" rx="1"/>
<rect x="267.4" y="23.0" width="8.7" height="2.0" fill="#81E6D9" opacity="0.78" rx="1"/>
<rect x="267.4" y="26.9" width="8.7" height="2.0" fill="#81E6D9" opacity="0.80" rx="1"/>
<rect x="267.4" y="17.9" width="8.7" height="2.0" fill="#81E6D9" opacity="0.78" rx="1"/>
<rect x="139.1" y="30.7" width="139.1" height="2.0" fill="#81E6D9" opacity="0.82" rx="1"/>
<rect x="269.6" y="24.3" width="8.7" height="2.0" fill="#81E6D9" opacity="0.77" rx="1"/>
<rect x="313.0" y="28.2" width="8.7" height="2.0" fill="#81E6D9" opacity="0.79" rx="1"/>
<rect x="313.0" y="23.0" width="8.7" height="2.0" fill="#81E6D9" opacity="0.82" rx="1"/>
<rect x="243.5" y="12.8" width="121.7" height="2.0" fill="#81E6D9" opacity="0.79" rx="1"/>
<rect x="347.8" y="23.0" width="26.1" height="2.0" fill="#81E6D9" opacity="0.82" rx="1"/>
<rect x="347.8" y="17.9" width="26.1" height="2.0" fill="#81E6D9" opacity="0.77" rx="1"/>
<rect x="347.8" y="30.7" width="34.8" height="2.0" fill="#81E6D9" opacity="0.79" rx="1"/>
<rect x="510.9" y="38.4" width="2.2" height="2.0" fill="#81E6D9" opacity="0.78" rx="1"/>
<rect x="510.9" y="39.7" width="2.2" height="2.0" fill="#81E6D9" opacity="0.79" rx="1"/>
<rect x="510.9" y="33.3" width="2.2" height="2.0" fill="#81E6D9" opacity="0.78" rx="1"/>
<rect x="510.9" y="30.7" width="2.2" height="2.0" fill="#81E6D9" opacity="0.78" rx="1"/>
<rect x="510.9" y="37.1" width="4.3" height="2.0" fill="#81E6D9" opacity="0.77" rx="1"/>
<rect x="513.0" y="35.8" width="2.2" height="2.0" fill="#81E6D9" opacity="0.77" rx="1"/>
<rect x="510.9" y="41.0" width="6.5" height="2.0" fill="#81E6D9" opacity="0.78" rx="1"/>
<rect x="510.9" y="32.0" width="8.7" height="2.0" fill="#81E6D9" opacity="0.81" rx="1"/>
<rect x="510.9" y="25.6" width="8.7" height="2.0" fill="#81E6D9" opacity="0.79" rx="1"/>
<rect x="513.0" y="30.7" width="6.5" height="2.0" fill="#81E6D9" opacity="0.81" rx="1"/>
<rect x="513.0" y="29.4" width="6.5" height="2.0" fill="#81E6D9" opacity="0.81" rx="1"/>
<rect x="521.7" y="37.1" width="26.1" height="2.0" fill="#81E6D9" opacity="0.82" rx="1"/>
<rect x="521.7" y="28.2" width="26.1" height="2.0" fill="#81E6D9" opacity="0.78" rx="1"/>
<rect x="521.7" y="33.3" width="26.1" height="2.0" fill="#81E6D9" opacity="0.78" rx="1"/>
<rect x="521.7" y="21.8" width="26.1" height="2.0" fill="#81E6D9" opacity="0.79" rx="1"/>
<rect x="547.8" y="20.5" width="8.7" height="2.0" fill="#81E6D9" opacity="0.80" rx="1"/>
<rect x="547.8" y="33.3" width="8.7" height="2.0" fill="#81E6D9" opacity="0.82" rx="1"/>
<rect x="547.8" y="39.7" width="8.7" height="2.0" fill="#81E6D9" opacity="0.77" rx="1"/>
<rect x="547.8" y="37.1" width="8.7" height="2.0" fill="#81E6D9" opacity="0.79" rx="1"/>
<rect x="521.7" y="30.7" width="54.3" height="2.0" fill="#81E6D9" opacity="0.77" rx="1"/>
<rect x="521.7" y="25.6" width="58.7" height="2.0" fill="#81E6D9" opacity="0.79" rx="1"/>
<rect x="373.9" y="23.0" width="217.4" height="2.0" fill="#81E6D9" opacity="0.79" rx="1"/>
<rect x="591.3" y="29.4" width="21.7" height="2.0" fill="#81E6D9" opacity="0.77" rx="1"/>
<rect x="591.3" y="32.0" width="21.7" height="2.0" fill="#81E6D9" opacity="0.78" rx="1"/>
<rect x="591.3" y="37.1" width="21.7" height="2.0" fill="#81E6D9" opacity="0.82" rx="1"/>
<rect x="591.3" y="38.4" width="21.7" height="2.0" fill="#81E6D9" opacity="0.80" rx="1"/>
<rect x="591.3" y="23.0" width="21.7" height="2.0" fill="#81E6D9" opacity="0.81" rx="1"/>
<rect x="615.2" y="32.0" width="34.8" height="2.0" fill="#81E6D9" opacity="0.78" rx="1"/>
<rect x="615.2" y="29.4" width="39.1" height="2.0" fill="#81E6D9" opacity="0.77" rx="1"/>
<rect x="615.2" y="28.2" width="43.5" height="2.0" fill="#81E6D9" opacity="0.79" rx="1"/>
<rect x="615.2" y="35.8" width="43.5" height="2.0" fill="#81E6D9" opacity="0.78" rx="1"/>
<rect x="652.2" y="37.1" width="8.7" height="2.0" fill="#81E6D9" opacity="0.79" rx="1"/>
<rect x="652.2" y="38.4" width="8.7" height="2.0" fill="#81E6D9" opacity="0.79" rx="1"/>
<rect x="652.2" y="32.0" width="8.7" height="2.0" fill="#81E6D9" opacity="0.81" rx="1"/>
<rect x="654.3" y="30.7" width="6.5" height="2.0" fill="#81E6D9" opacity="0.77" rx="1"/>
<rect x="654.3" y="34.6" width="34.8" height="2.0" fill="#81E6D9" opacity="0.78" rx="1"/>
<rect x="684.8" y="21.8" width="4.3" height="2.0" fill="#81E6D9" opacity="0.81" rx="1"/>
<rect x="687.0" y="23.0" width="2.2" height="2.0" fill="#81E6D9" opacity="0.77" rx="1"/>
<rect x="689.1" y="23.0" width="2.2" height="2.0" fill="#81E6D9" opacity="0.77" rx="1"/>
<rect x="660.9" y="30.7" width="34.8" height="2.0" fill="#81E6D9" opacity="0.81" rx="1"/>
<rect x="660.9" y="38.4" width="34.8" height="2.0" fill="#81E6D9" opacity="0.79" rx="1"/>
<rect x="687.0" y="16.6" width="10.9" height="2.0" fill="#81E6D9" opacity="0.76" rx="1"/>
<rect x="689.1" y="21.8" width="8.7" height="2.0" fill="#81E6D9" opacity="0.79" rx="1"/>
<rect x="695.7" y="24.3" width="8.7" height="2.0" fill="#81E6D9" opacity="0.80" rx="1"/>
<rect x="695.7" y="23.0" width="8.7" height="2.0" fill="#81E6D9" opacity="0.78" rx="1"/>
<rect x="697.8" y="16.6" width="6.5" height="2.0" fill="#81E6D9" opacity="0.77" rx="1"/>
<rect x="704.3" y="24.3" width="8.7" height="2.0" fill="#81E6D9" opacity="0.79" rx="1"/>
<rect x="660.9" y="37.1" width="67.4" height="2.0" fill="#81E6D9" opacity="0.82" rx="1"/>
<rect x="663.0" y="26.9" width="65.2" height="2.0" fill="#81E6D9" opacity="0.79" rx="1"/>
<rect x="704.3" y="23.0" width="23.9" height="2.0" fill="#81E6D9" opacity="0.76" rx="1"/>
<rect x="660.9" y="41.0" width="69.6" height="2.0" fill="#81E6D9" opacity="0.78" rx="1"/>
<rect x="695.7" y="19.2" width="34.8" height="2.0" fill="#81E6D9" opacity="0.76" rx="1"/>
<rect x="704.3" y="16.6" width="26.1" height="2.0" fill="#81E6D9" opacity="0.81" rx="1"/>
<rect x="139.1" y="56.3" width="4.3" height="2.0" fill="#8AAABB" opacity="0.86" rx="1"/>
<rect x="139.1" y="26.9" width="6.5" height="2.0" fill="#8AAABB" opacity="0.85" rx="1"/>
<rect x="139.1" y="58.9" width="8.7" height="2.0" fill="#8AAABB" opacity="0.84" rx="1"/>
<rect x="139.1" y="15.4" width="17.4" height="2.0" fill="#8AAABB" opacity="0.87" rx="1"/>
<rect x="156.5" y="49.9" width="4.3" height="2.0" fill="#8AAABB" opacity="0.84" rx="1"/>
<rect x="156.5" y="26.9" width="6.5" height="2.0" fill="#8AAABB" opacity="0.87" rx="1"/>
<rect x="139.1" y="57.6" width="26.1" height="2.0" fill="#8AAABB" opacity="0.87" rx="1"/>
<rect x="173.9" y="24.3" width="6.5" height="2.0" fill="#8AAABB" opacity="0.84" rx="1"/>
<rect x="156.5" y="5.1" width="34.8" height="2.0" fill="#8AAABB" opacity="0.84" rx="1"/>
<rect x="208.7" y="25.6" width="2.2" height="2.0" fill="#8AAABB" opacity="0.86" rx="1"/>
<rect x="208.7" y="49.9" width="4.3" height="2.0" fill="#8AAABB" opacity="0.88" rx="1"/>
<rect x="208.7" y="21.8" width="8.7" height="2.0" fill="#8AAABB" opacity="0.86" rx="1"/>
<rect x="208.7" y="58.9" width="17.4" height="2.0" fill="#8AAABB" opacity="0.84" rx="1"/>
<rect x="226.1" y="26.9" width="8.7" height="2.0" fill="#8AAABB" opacity="0.85" rx="1"/>
<rect x="226.1" y="21.8" width="8.7" height="2.0" fill="#8AAABB" opacity="0.85" rx="1"/>
<rect x="234.8" y="49.9" width="4.3" height="2.0" fill="#8AAABB" opacity="0.86" rx="1"/>
<rect x="243.5" y="49.9" width="4.3" height="2.0" fill="#8AAABB" opacity="0.85" rx="1"/>
<rect x="243.5" y="25.6" width="6.5" height="2.0" fill="#8AAABB" opacity="0.88" rx="1"/>
<rect x="252.2" y="14.1" width="8.7" height="2.0" fill="#8AAABB" opacity="0.85" rx="1"/>
<rect x="260.9" y="49.9" width="2.2" height="2.0" fill="#8AAABB" opacity="0.85" rx="1"/>
<rect x="243.5" y="58.9" width="26.1" height="2.0" fill="#8AAABB" opacity="0.88" rx="1"/>
<rect x="260.9" y="26.9" width="8.7" height="2.0" fill="#8AAABB" opacity="0.87" rx="1"/>
<rect x="260.9" y="10.2" width="8.7" height="2.0" fill="#8AAABB" opacity="0.87" rx="1"/>
<rect x="269.6" y="20.5" width="2.2" height="2.0" fill="#8AAABB" opacity="0.86" rx="1"/>
<rect x="269.6" y="15.4" width="8.7" height="2.0" fill="#8AAABB" opacity="0.86" rx="1"/>
<rect x="269.6" y="25.6" width="8.7" height="2.0" fill="#8AAABB" opacity="0.85" rx="1"/>
<rect x="271.7" y="20.5" width="6.5" height="2.0" fill="#8AAABB" opacity="0.85" rx="1"/>
<rect x="313.0" y="25.6" width="2.2" height="2.0" fill="#8AAABB" opacity="0.88" rx="1"/>
<rect x="313.0" y="49.9" width="4.3" height="2.0" fill="#8AAABB" opacity="0.87" rx="1"/>
<rect x="313.0" y="21.8" width="8.7" height="2.0" fill="#8AAABB" opacity="0.87" rx="1"/>
<rect x="321.7" y="21.8" width="2.2" height="2.0" fill="#8AAABB" opacity="0.86" rx="1"/>
<rect x="313.0" y="58.9" width="17.4" height="2.0" fill="#8AAABB" opacity="0.85" rx="1"/>
<rect x="321.7" y="15.4" width="8.7" height="2.0" fill="#8AAABB" opacity="0.87" rx="1"/>
<rect x="330.4" y="21.8" width="8.7" height="2.0" fill="#8AAABB" opacity="0.87" rx="1"/>
<rect x="339.1" y="49.9" width="4.3" height="2.0" fill="#8AAABB" opacity="0.85" rx="1"/>
<rect x="339.1" y="17.9" width="8.7" height="2.0" fill="#8AAABB" opacity="0.84" rx="1"/>
<rect x="347.8" y="49.9" width="6.5" height="2.0" fill="#8AAABB" opacity="0.87" rx="1"/>
<rect x="347.8" y="25.6" width="6.5" height="2.0" fill="#8AAABB" opacity="0.86" rx="1"/>
<rect x="347.8" y="23.0" width="8.7" height="2.0" fill="#8AAABB" opacity="0.87" rx="1"/>
<rect x="347.8" y="5.1" width="8.7" height="2.0" fill="#8AAABB" opacity="0.87" rx="1"/>
<rect x="347.8" y="58.9" width="17.4" height="2.0" fill="#8AAABB" opacity="0.86" rx="1"/>
<rect x="356.5" y="25.6" width="8.7" height="2.0" fill="#8AAABB" opacity="0.85" rx="1"/>
<rect x="356.5" y="21.8" width="8.7" height="2.0" fill="#8AAABB" opacity="0.85" rx="1"/>
<rect x="356.5" y="16.6" width="8.7" height="2.0" fill="#8AAABB" opacity="0.86" rx="1"/>
<rect x="356.5" y="44.8" width="17.4" height="2.0" fill="#8AAABB" opacity="0.85" rx="1"/>
<rect x="365.2" y="26.9" width="8.7" height="2.0" fill="#8AAABB" opacity="0.84" rx="1"/>
<rect x="365.2" y="5.1" width="8.7" height="2.0" fill="#8AAABB" opacity="0.85" rx="1"/>
<rect x="365.2" y="6.4" width="8.7" height="2.0" fill="#8AAABB" opacity="0.84" rx="1"/>
<rect x="373.9" y="49.9" width="4.3" height="2.0" fill="#8AAABB" opacity="0.85" rx="1"/>
<rect x="373.9" y="16.6" width="6.5" height="2.0" fill="#8AAABB" opacity="0.86" rx="1"/>
<rect x="373.9" y="25.6" width="8.7" height="2.0" fill="#8AAABB" opacity="0.86" rx="1"/>
<rect x="373.9" y="14.1" width="8.7" height="2.0" fill="#8AAABB" opacity="0.87" rx="1"/>
<rect x="373.9" y="21.8" width="8.7" height="2.0" fill="#8AAABB" opacity="0.88" rx="1"/>
<rect x="373.9" y="24.3" width="17.4" height="2.0" fill="#8AAABB" opacity="0.84" rx="1"/>
<rect x="382.6" y="23.0" width="13.0" height="2.0" fill="#8AAABB" opacity="0.84" rx="1"/>
<rect x="417.4" y="49.9" width="8.7" height="2.0" fill="#8AAABB" opacity="0.87" rx="1"/>
<rect x="417.4" y="26.9" width="8.7" height="2.0" fill="#8AAABB" opacity="0.87" rx="1"/>
<rect x="417.4" y="25.6" width="8.7" height="2.0" fill="#8AAABB" opacity="0.85" rx="1"/>
<rect x="417.4" y="58.9" width="17.4" height="2.0" fill="#8AAABB" opacity="0.85" rx="1"/>
<rect x="426.1" y="15.4" width="8.7" height="2.0" fill="#8AAABB" opacity="0.85" rx="1"/>
<rect x="426.1" y="26.9" width="8.7" height="2.0" fill="#8AAABB" opacity="0.84" rx="1"/>
<rect x="426.1" y="25.6" width="8.7" height="2.0" fill="#8AAABB" opacity="0.84" rx="1"/>
<rect x="434.8" y="25.6" width="8.7" height="2.0" fill="#8AAABB" opacity="0.85" rx="1"/>
<rect x="434.8" y="23.0" width="8.7" height="2.0" fill="#8AAABB" opacity="0.84" rx="1"/>
<rect x="434.8" y="26.9" width="8.7" height="2.0" fill="#8AAABB" opacity="0.84" rx="1"/>
<rect x="443.5" y="49.9" width="8.7" height="2.0" fill="#8AAABB" opacity="0.87" rx="1"/>
<rect x="443.5" y="26.9" width="8.7" height="2.0" fill="#8AAABB" opacity="0.87" rx="1"/>
<rect x="443.5" y="25.6" width="8.7" height="2.0" fill="#8AAABB" opacity="0.85" rx="1"/>
<rect x="443.5" y="21.8" width="8.7" height="2.0" fill="#8AAABB" opacity="0.86" rx="1"/>
<rect x="443.5" y="23.0" width="8.7" height="2.0" fill="#8AAABB" opacity="0.85" rx="1"/>
<rect x="443.5" y="15.4" width="8.7" height="2.0" fill="#8AAABB" opacity="0.85" rx="1"/>
<rect x="452.2" y="49.9" width="8.7" height="2.0" fill="#8AAABB" opacity="0.85" rx="1"/>
<rect x="452.2" y="23.0" width="8.7" height="2.0" fill="#8AAABB" opacity="0.85" rx="1"/>
<rect x="452.2" y="58.9" width="8.7" height="2.0" fill="#8AAABB" opacity="0.87" rx="1"/>
<rect x="452.2" y="14.1" width="8.7" height="2.0" fill="#8AAABB" opacity="0.84" rx="1"/>
<rect x="460.9" y="15.4" width="8.7" height="2.0" fill="#8AAABB" opacity="0.84" rx="1"/>
<rect x="460.9" y="25.6" width="8.7" height="2.0" fill="#8AAABB" opacity="0.84" rx="1"/>
<rect x="469.6" y="25.6" width="8.7" height="2.0" fill="#8AAABB" opacity="0.87" rx="1"/>
<rect x="469.6" y="21.8" width="8.7" height="2.0" fill="#8AAABB" opacity="0.87" rx="1"/>
<rect x="469.6" y="26.9" width="8.7" height="2.0" fill="#8AAABB" opacity="0.87" rx="1"/>
<rect x="478.3" y="14.1" width="8.7" height="2.0" fill="#8AAABB" opacity="0.85" rx="1"/>
<rect x="487.0" y="23.0" width="6.5" height="2.0" fill="#8AAABB" opacity="0.84" rx="1"/>
<rect x="487.0" y="26.9" width="8.7" height="2.0" fill="#8AAABB" opacity="0.86" rx="1"/>
<rect x="487.0" y="10.2" width="8.7" height="2.0" fill="#8AAABB" opacity="0.85" rx="1"/>
<rect x="487.0" y="7.7" width="8.7" height="2.0" fill="#8AAABB" opacity="0.85" rx="1"/>
<rect x="487.0" y="25.6" width="8.7" height="2.0" fill="#8AAABB" opacity="0.87" rx="1"/>
<rect x="487.0" y="58.9" width="8.7" height="2.0" fill="#8AAABB" opacity="0.85" rx="1"/>
<rect x="487.0" y="24.3" width="8.7" height="2.0" fill="#8AAABB" opacity="0.85" rx="1"/>
<rect x="495.7" y="10.2" width="6.5" height="2.0" fill="#8AAABB" opacity="0.87" rx="1"/>
<rect x="487.0" y="49.9" width="17.4" height="2.0" fill="#8AAABB" opacity="0.84" rx="1"/>
<rect x="495.7" y="26.9" width="8.7" height="2.0" fill="#8AAABB" opacity="0.87" rx="1"/>
<rect x="495.7" y="21.8" width="8.7" height="2.0" fill="#8AAABB" opacity="0.87" rx="1"/>
<rect x="495.7" y="23.0" width="8.7" height="2.0" fill="#8AAABB" opacity="0.87" rx="1"/>
<rect x="495.7" y="25.6" width="8.7" height="2.0" fill="#8AAABB" opacity="0.87" rx="1"/>
<rect x="497.8" y="14.1" width="8.7" height="2.0" fill="#8AAABB" opacity="0.85" rx="1"/>
<rect x="504.3" y="24.3" width="8.7" height="2.0" fill="#8AAABB" opacity="0.87" rx="1"/>
<rect x="504.3" y="10.2" width="8.7" height="2.0" fill="#8AAABB" opacity="0.86" rx="1"/>
<rect x="504.3" y="26.9" width="8.7" height="2.0" fill="#8AAABB" opacity="0.87" rx="1"/>
<rect x="504.3" y="23.0" width="8.7" height="2.0" fill="#8AAABB" opacity="0.87" rx="1"/>
<rect x="513.0" y="21.8" width="8.7" height="2.0" fill="#8AAABB" opacity="0.86" rx="1"/>
<rect x="513.0" y="25.6" width="8.7" height="2.0" fill="#8AAABB" opacity="0.84" rx="1"/>
<rect x="513.0" y="14.1" width="8.7" height="2.0" fill="#8AAABB" opacity="0.86" rx="1"/>
<rect x="513.0" y="23.0" width="8.7" height="2.0" fill="#8AAABB" opacity="0.85" rx="1"/>
<rect x="513.0" y="35.8" width="17.4" height="2.0" fill="#8AAABB" opacity="0.85" rx="1"/>
<rect x="530.4" y="25.6" width="8.7" height="2.0" fill="#8AAABB" opacity="0.86" rx="1"/>
<rect x="530.4" y="23.0" width="8.7" height="2.0" fill="#8AAABB" opacity="0.87" rx="1"/>
<rect x="530.4" y="21.8" width="10.9" height="2.0" fill="#8AAABB" opacity="0.86" rx="1"/>
<rect x="539.1" y="25.6" width="10.9" height="2.0" fill="#8AAABB" opacity="0.85" rx="1"/>
<rect x="521.7" y="14.1" width="34.8" height="2.0" fill="#8AAABB" opacity="0.85" rx="1"/>
<rect x="547.8" y="23.0" width="8.7" height="2.0" fill="#8AAABB" opacity="0.87" rx="1"/>
<rect x="547.8" y="38.4" width="8.7" height="2.0" fill="#8AAABB" opacity="0.85" rx="1"/>
<rect x="556.5" y="14.1" width="6.5" height="2.0" fill="#8AAABB" opacity="0.86" rx="1"/>
<rect x="521.7" y="26.9" width="58.7" height="2.0" fill="#8AAABB" opacity="0.84" rx="1"/>
<rect x="521.7" y="9.0" width="60.9" height="2.0" fill="#8AAABB" opacity="0.85" rx="1"/>
<rect x="521.7" y="5.1" width="60.9" height="2.0" fill="#8AAABB" opacity="0.84" rx="1"/>
<rect x="521.7" y="49.9" width="63.0" height="2.0" fill="#8AAABB" opacity="0.87" rx="1"/>
<rect x="608.7" y="14.1" width="2.2" height="2.0" fill="#8AAABB" opacity="0.86" rx="1"/>
<rect x="591.3" y="58.9" width="21.7" height="2.0" fill="#8AAABB" opacity="0.84" rx="1"/>
<rect x="615.2" y="26.9" width="4.3" height="2.0" fill="#8AAABB" opacity="0.86" rx="1"/>
<rect x="617.4" y="58.9" width="2.2" height="2.0" fill="#8AAABB" opacity="0.85" rx="1"/>
<rect x="615.2" y="23.0" width="43.5" height="2.0" fill="#8AAABB" opacity="0.85" rx="1"/>
<rect x="650.0" y="28.2" width="43.5" height="2.0" fill="#8AAABB" opacity="0.86" rx="1"/>
<rect x="650.0" y="24.3" width="43.5" height="2.0" fill="#8AAABB" opacity="0.85" rx="1"/>
<rect x="695.7" y="25.6" width="6.5" height="2.0" fill="#8AAABB" opacity="0.84" rx="1"/>
<rect x="695.7" y="38.4" width="26.1" height="2.0" fill="#8AAABB" opacity="0.84" rx="1"/>
<rect x="704.3" y="26.9" width="23.9" height="2.0" fill="#8AAABB" opacity="0.86" rx="1"/>
</svg>