<svg xmlns="http://www.w3.org/2000/svg" width="800" height="64" style="background:#0B1E26;border-radius:6px">
<rect x="180.3" y="56.2" width="33.8" height="2.0" fill="#F4C471" opacity="0.78" rx="1"/>
<rect x="254.6" y="51.5" width="33.8" height="2.0" fill="#F4C471" opacity="0.79" rx="1"/>
<rect x="324.5" y="56.2" width="33.8" height="2.0" fill="#F4C471" opacity="0.80" rx="1"/>
<rect x="396.6" y="57.8" width="38.3" height="2.0" fill="#F4C471" opacity="0.80" rx="1"/>
<rect x="432.7" y="51.5" width="38.3" height="2.0" fill="#F4C471" opacity="0.82" rx="1"/>
<rect x="144.2" y="17.2" width="15.8" height="2.0" fill="#81E6D9" opacity="0.79" rx="1"/>
<rect x="144.2" y="14.0" width="15.8" height="2.0" fill="#81E6D9" opacity="0.79" rx="1"/>
<rect x="166.9" y="18.7" width="13.5" height="2.0" fill="#81E6D9" opacity="0.77" rx="1"/>
<rect x="166.9" y="14.0" width="15.8" height="2.0" fill="#81E6D9" opacity="0.80" rx="1"/>
<rect x="169.0" y="32.8" width="15.8" height="2.0" fill="#81E6D9" opacity="0.83" rx="1"/>
<rect x="216.3" y="32.8" width="13.5" height="2.0" fill="#81E6D9" opacity="0.77" rx="1"/>
<rect x="216.3" y="18.7" width="13.5" height="2.0" fill="#81E6D9" opacity="0.82" rx="1"/>
<rect x="216.3" y="14.0" width="15.8" height="2.0" fill="#81E6D9" opacity="0.81" rx="1"/>
<rect x="252.4" y="14.0" width="9.0" height="2.0" fill="#81E6D9" opacity="0.79" rx="1"/>
<rect x="254.6" y="25.0" width="11.3" height="2.0" fill="#81E6D9" opacity="0.77" rx="1"/>
<rect x="254.6" y="17.2" width="11.3" height="2.0" fill="#81E6D9" opacity="0.84" rx="1"/>
<rect x="313.2" y="32.8" width="2.3" height="2.0" fill="#81E6D9" opacity="0.80" rx="1"/>
<rect x="313.2" y="18.7" width="4.5" height="2.0" fill="#81E6D9" opacity="0.81" rx="1"/>
<rect x="313.2" y="14.0" width="4.5" height="2.0" fill="#81E6D9" opacity="0.81" rx="1"/>
<rect x="313.2" y="25.0" width="4.5" height="2.0" fill="#81E6D9" opacity="0.82" rx="1"/>
<rect x="398.9" y="32.8" width="11.3" height="2.0" fill="#81E6D9" opacity="0.79" rx="1"/>
<rect x="396.6" y="20.3" width="18.0" height="2.0" fill="#81E6D9" opacity="0.78" rx="1"/>
<rect x="421.4" y="6.2" width="11.3" height="2.0" fill="#81E6D9" opacity="0.79" rx="1"/>
<rect x="421.4" y="14.0" width="13.5" height="2.0" fill="#81E6D9" opacity="0.82" rx="1"/>
<rect x="421.4" y="20.3" width="13.5" height="2.0" fill="#81E6D9" opacity="0.79" rx="1"/>
<rect x="468.7" y="18.7" width="13.5" height="2.0" fill="#81E6D9" opacity="0.81" rx="1"/>
<rect x="468.7" y="25.0" width="13.5" height="2.0" fill="#81E6D9" opacity="0.83" rx="1"/>
<rect x="468.7" y="14.0" width="15.8" height="2.0" fill="#81E6D9" opacity="0.82" rx="1"/>
<rect x="468.7" y="6.2" width="15.8" height="2.0" fill="#81E6D9" opacity="0.78" rx="1"/>
<rect x="468.7" y="10.9" width="15.8" height="2.0" fill="#81E6D9" opacity="0.80" rx="1"/>
<rect x="491.4" y="32.8" width="9.0" height="2.0" fill="#81E6D9" opacity="0.77" rx="1"/>
<rect x="491.4" y="51.5" width="15.8" height="2.0" fill="#81E6D9" opacity="0.79" rx="1"/>
<rect x="504.8" y="28.1" width="4.5" height="2.0" fill="#81E6D9" opacity="0.82" rx="1"/>
<rect x="529.6" y="28.1" width="4.5" height="2.0" fill="#81E6D9" opacity="0.82" rx="1"/>
<rect x="529.6" y="14.0" width="4.5" height="2.0" fill="#81E6D9" opacity="0.81" rx="1"/>
<rect x="529.6" y="10.9" width="4.5" height="2.0" fill="#81E6D9" opacity="0.81" rx="1"/>
<rect x="529.6" y="17.2" width="4.5" height="2.0" fill="#81E6D9" opacity="0.81" rx="1"/>
<rect x="529.6" y="32.8" width="6.8" height="2.0" fill="#81E6D9" opacity="0.82" rx="1"/>
<rect x="529.6" y="9.4" width="9.0" height="2.0" fill="#81E6D9" opacity="0.77" rx="1"/>
<rect x="601.7" y="18.7" width="2.3" height="2.0" fill="#81E6D9" opacity="0.80" rx="1"/>
<rect x="599.6" y="14.0" width="4.5" height="2.0" fill="#81E6D9" opacity="0.78" rx="1"/>
<rect x="599.6" y="10.9" width="4.5" height="2.0" fill="#81E6D9" opacity="0.82" rx="1"/>
<rect x="599.6" y="28.1" width="4.5" height="2.0" fill="#81E6D9" opacity="0.81" rx="1"/>
<rect x="599.6" y="9.4" width="4.5" height="2.0" fill="#81E6D9" opacity="0.80" rx="1"/>
<rect x="646.8" y="17.2" width="2.3" height="2.0" fill="#81E6D9" opacity="0.81" rx="1"/>
<rect x="649.0" y="18.7" width="4.5" height="2.0" fill="#81E6D9" opacity="0.81" rx="1"/>
<rect x="649.0" y="28.1" width="6.8" height="2.0" fill="#81E6D9" opacity="0.79" rx="1"/>
<rect x="649.0" y="9.4" width="9.0" height="2.0" fill="#81E6D9" opacity="0.82" rx="1"/>
<rect x="721.1" y="14.0" width="9.0" height="2.0" fill="#81E6D9" opacity="0.79" rx="1"/>
<rect x="721.1" y="17.2" width="11.3" height="2.0" fill="#81E6D9" opacity="0.83" rx="1"/>
<rect x="721.1" y="6.2" width="13.5" height="2.0" fill="#81E6D9" opacity="0.78" rx="1"/>
<rect x="721.1" y="28.1" width="15.8" height="2.0" fill="#81E6D9" opacity="0.81" rx="1"/>
<rect x="721.1" y="25.0" width="15.8" height="2.0" fill="#81E6D9" opacity="0.82" rx="1"/>
<rect x="743.8" y="6.2" width="11.3" height="2.0" fill="#81E6D9" opacity="0.81" rx="1"/>
<rect x="743.8" y="14.0" width="13.5" height="2.0" fill="#81E6D9" opacity="0.81" rx="1"/>
<rect x="743.8" y="18.7" width="15.8" height="2.0" fill="#81E6D9" opacity="0.82" rx="1"/>
<rect x="791.0" y="25.0" width="9.0" height="2.0" fill="#81E6D9" opacity="0.81" rx="1"/>
<rect x="791.0" y="17.2" width="9.0" height="2.0" fill="#81E6D9" opacity="0.79" rx="1"/>
<rect x="793.2" y="10.9" width="6.8" height="2.0" fill="#81E6D9" opacity="0.77" rx="1"/>
<rect x="793.2" y="14.0" width="6.8" height="2.0" fill="#81E6D9" opacity="0.80" rx="1"/>
<rect x="144.2" y="39.0" width="22.5" height="2.0" fill="#8AAABB" opacity="0.86" rx="1"/>
<rect x="144.2" y="31.2" width="24.8" height="2.0" fill="#8AAABB" opacity="0.87" rx="1"/>
<rect x="144.2" y="56.2" width="24.8" height="2.0" fill="#8AAABB" opacity="0.86" rx="1"/>
<rect x="144.2" y="45.3" width="36.1" height="2.0" fill="#8AAABB" opacity="0.88" rx="1"/>
<rect x="252.4" y="26.5" width="27.0" height="2.0" fill="#8AAABB" opacity="0.87" rx="1"/>
<rect x="252.4" y="45.3" width="36.1" height="2.0" fill="#8AAABB" opacity="0.86" rx="1"/>
<rect x="252.4" y="31.2" width="38.3" height="2.0" fill="#8AAABB" opacity="0.85" rx="1"/>
<rect x="313.2" y="39.0" width="13.5" height="2.0" fill="#8AAABB" opacity="0.86" rx="1"/>
<rect x="349.3" y="48.4" width="4.5" height="2.0" fill="#8AAABB" opacity="0.85" rx="1"/>
<rect x="349.3" y="26.5" width="4.5" height="2.0" fill="#8AAABB" opacity="0.84" rx="1"/>
<rect x="349.3" y="54.6" width="13.5" height="2.0" fill="#8AAABB" opacity="0.85" rx="1"/>
<rect x="360.6" y="45.3" width="13.5" height="2.0" fill="#8AAABB" opacity="0.87" rx="1"/>
<rect x="385.4" y="26.5" width="2.3" height="2.0" fill="#8AAABB" opacity="0.83" rx="1"/>
<rect x="396.6" y="45.3" width="6.8" height="2.0" fill="#8AAABB" opacity="0.87" rx="1"/>
<rect x="396.6" y="26.5" width="6.8" height="2.0" fill="#8AAABB" opacity="0.87" rx="1"/>
<rect x="421.4" y="26.5" width="4.5" height="2.0" fill="#8AAABB" opacity="0.82" rx="1"/>
<rect x="468.7" y="28.1" width="13.5" height="2.0" fill="#8AAABB" opacity="0.88" rx="1"/>
<rect x="473.2" y="48.4" width="11.3" height="2.0" fill="#8AAABB" opacity="0.84" rx="1"/>
<rect x="468.7" y="26.5" width="22.5" height="2.0" fill="#8AAABB" opacity="0.82" rx="1"/>
<rect x="468.7" y="56.2" width="27.0" height="2.0" fill="#8AAABB" opacity="0.85" rx="1"/>
<rect x="468.7" y="39.0" width="36.1" height="2.0" fill="#8AAABB" opacity="0.86" rx="1"/>
<rect x="468.7" y="31.2" width="38.3" height="2.0" fill="#8AAABB" opacity="0.88" rx="1"/>
<rect x="529.6" y="26.5" width="4.5" height="2.0" fill="#8AAABB" opacity="0.83" rx="1"/>
<rect x="529.6" y="31.2" width="9.0" height="2.0" fill="#8AAABB" opacity="0.86" rx="1"/>
<rect x="576.9" y="12.5" width="9.0" height="2.0" fill="#8AAABB" opacity="0.87" rx="1"/>
<rect x="576.9" y="48.4" width="27.0" height="2.0" fill="#8AAABB" opacity="0.83" rx="1"/>
<rect x="576.9" y="26.5" width="31.5" height="2.0" fill="#8AAABB" opacity="0.84" rx="1"/>
<rect x="583.7" y="15.6" width="27.0" height="2.0" fill="#8AAABB" opacity="0.85" rx="1"/>
<rect x="601.7" y="12.5" width="11.3" height="2.0" fill="#8AAABB" opacity="0.87" rx="1"/>
<rect x="613.0" y="54.6" width="9.0" height="2.0" fill="#8AAABB" opacity="0.86" rx="1"/>
<rect x="610.7" y="28.1" width="22.5" height="2.0" fill="#8AAABB" opacity="0.87" rx="1"/>
<rect x="637.7" y="45.3" width="9.0" height="2.0" fill="#8AAABB" opacity="0.86" rx="1"/>
<rect x="649.0" y="48.4" width="9.0" height="2.0" fill="#8AAABB" opacity="0.87" rx="1"/>
<rect x="649.0" y="45.3" width="9.0" height="2.0" fill="#8AAABB" opacity="0.87" rx="1"/>
<rect x="673.8" y="26.5" width="6.8" height="2.0" fill="#8AAABB" opacity="0.83" rx="1"/>
<rect x="721.1" y="28.1" width="9.0" height="2.0" fill="#8AAABB" opacity="0.87" rx="1"/>
<rect x="721.1" y="39.0" width="13.5" height="2.0" fill="#8AAABB" opacity="0.87" rx="1"/>
<rect x="721.1" y="25.0" width="15.8" height="2.0" fill="#8AAABB" opacity="0.86" rx="1"/>
<rect x="721.1" y="45.3" width="20.3" height="2.0" fill="#8AAABB" opacity="0.88" rx="1"/>
<rect x="745.9" y="56.2" width="22.5" height="2.0" fill="#8AAABB" opacity="0.87" rx="1"/>
</svg>