<svg xmlns="http://www.w3.org/2000/svg" width="800" height="64" style="background:#0B1E26;border-radius:6px">
<rect x="125.0" y="56.2" width="23.4" height="2.0" fill="#F4C471" opacity="0.78" rx="1"/>
<rect x="176.6" y="51.5" width="23.4" height="2.0" fill="#F4C471" opacity="0.79" rx="1"/>
<rect x="225.0" y="56.2" width="23.4" height="2.0" fill="#F4C471" opacity="0.79" rx="1"/>
<rect x="275.0" y="57.8" width="26.6" height="2.0" fill="#F4C471" opacity="0.77" rx="1"/>
<rect x="300.0" y="51.5" width="26.6" height="2.0" fill="#F4C471" opacity="0.76" rx="1"/>
<rect x="650.0" y="51.5" width="28.1" height="2.0" fill="#F4C471" opacity="0.76" rx="1"/>
<rect x="100.0" y="14.0" width="10.9" height="2.0" fill="#81E6D9" opacity="0.76" rx="1"/>
<rect x="115.7" y="18.7" width="9.4" height="2.0" fill="#81E6D9" opacity="0.76" rx="1"/>
<rect x="115.7" y="14.0" width="10.9" height="2.0" fill="#81E6D9" opacity="0.81" rx="1"/>
<rect x="117.2" y="32.8" width="10.9" height="2.0" fill="#81E6D9" opacity="0.80" rx="1"/>
<rect x="150.0" y="32.8" width="9.4" height="2.0" fill="#81E6D9" opacity="0.79" rx="1"/>
<rect x="150.0" y="18.7" width="9.4" height="2.0" fill="#81E6D9" opacity="0.79" rx="1"/>
<rect x="150.0" y="14.0" width="10.9" height="2.0" fill="#81E6D9" opacity="0.77" rx="1"/>
<rect x="175.0" y="14.0" width="6.2" height="2.0" fill="#81E6D9" opacity="0.80" rx="1"/>
<rect x="176.6" y="25.0" width="7.8" height="2.0" fill="#81E6D9" opacity="0.79" rx="1"/>
<rect x="176.6" y="17.2" width="7.8" height="2.0" fill="#81E6D9" opacity="0.81" rx="1"/>
<rect x="217.2" y="32.8" width="1.6" height="2.0" fill="#81E6D9" opacity="0.79" rx="1"/>
<rect x="217.2" y="17.2" width="3.1" height="2.0" fill="#81E6D9" opacity="0.79" rx="1"/>
<rect x="217.2" y="14.0" width="3.1" height="2.0" fill="#81E6D9" opacity="0.81" rx="1"/>
<rect x="217.2" y="25.0" width="3.1" height="2.0" fill="#81E6D9" opacity="0.82" rx="1"/>
<rect x="276.6" y="32.8" width="7.8" height="2.0" fill="#81E6D9" opacity="0.82" rx="1"/>
<rect x="275.0" y="20.3" width="12.5" height="2.0" fill="#81E6D9" opacity="0.78" rx="1"/>
<rect x="292.2" y="6.2" width="7.8" height="2.0" fill="#81E6D9" opacity="0.78" rx="1"/>
<rect x="292.2" y="14.0" width="9.4" height="2.0" fill="#81E6D9" opacity="0.78" rx="1"/>
<rect x="292.2" y="20.3" width="9.4" height="2.0" fill="#81E6D9" opacity="0.78" rx="1"/>
<rect x="325.0" y="17.2" width="9.4" height="2.0" fill="#81E6D9" opacity="0.77" rx="1"/>
<rect x="325.0" y="25.0" width="9.4" height="2.0" fill="#81E6D9" opacity="0.77" rx="1"/>
<rect x="325.0" y="14.0" width="10.9" height="2.0" fill="#81E6D9" opacity="0.77" rx="1"/>
<rect x="325.0" y="6.2" width="10.9" height="2.0" fill="#81E6D9" opacity="0.77" rx="1"/>
<rect x="325.0" y="10.9" width="10.9" height="2.0" fill="#81E6D9" opacity="0.77" rx="1"/>
<rect x="340.7" y="32.8" width="6.2" height="2.0" fill="#81E6D9" opacity="0.81" rx="1"/>
<rect x="340.7" y="51.5" width="10.9" height="2.0" fill="#81E6D9" opacity="0.82" rx="1"/>
<rect x="350.0" y="28.1" width="3.1" height="2.0" fill="#81E6D9" opacity="0.81" rx="1"/>
<rect x="367.2" y="28.1" width="3.1" height="2.0" fill="#81E6D9" opacity="0.82" rx="1"/>
<rect x="367.2" y="14.0" width="3.1" height="2.0" fill="#81E6D9" opacity="0.81" rx="1"/>
<rect x="367.2" y="9.4" width="3.1" height="2.0" fill="#81E6D9" opacity="0.80" rx="1"/>
<rect x="367.2" y="17.2" width="3.1" height="2.0" fill="#81E6D9" opacity="0.80" rx="1"/>
<rect x="367.2" y="32.8" width="4.7" height="2.0" fill="#81E6D9" opacity="0.82" rx="1"/>
<rect x="417.2" y="20.3" width="1.6" height="2.0" fill="#81E6D9" opacity="0.80" rx="1"/>
<rect x="415.7" y="14.0" width="3.1" height="2.0" fill="#81E6D9" opacity="0.81" rx="1"/>
<rect x="415.7" y="10.9" width="3.1" height="2.0" fill="#81E6D9" opacity="0.77" rx="1"/>
<rect x="415.7" y="28.1" width="3.1" height="2.0" fill="#81E6D9" opacity="0.79" rx="1"/>
<rect x="415.7" y="9.4" width="3.1" height="2.0" fill="#81E6D9" opacity="0.82" rx="1"/>
<rect x="448.4" y="17.2" width="1.6" height="2.0" fill="#81E6D9" opacity="0.77" rx="1"/>
<rect x="450.0" y="18.7" width="3.1" height="2.0" fill="#81E6D9" opacity="0.80" rx="1"/>
<rect x="450.0" y="28.1" width="4.7" height="2.0" fill="#81E6D9" opacity="0.80" rx="1"/>
<rect x="450.0" y="9.4" width="6.2" height="2.0" fill="#81E6D9" opacity="0.80" rx="1"/>
<rect x="500.0" y="14.0" width="6.2" height="2.0" fill="#81E6D9" opacity="0.79" rx="1"/>
<rect x="500.0" y="17.2" width="7.8" height="2.0" fill="#81E6D9" opacity="0.83" rx="1"/>
<rect x="500.0" y="6.2" width="9.4" height="2.0" fill="#81E6D9" opacity="0.82" rx="1"/>
<rect x="500.0" y="28.1" width="10.9" height="2.0" fill="#81E6D9" opacity="0.79" rx="1"/>
<rect x="500.0" y="25.0" width="10.9" height="2.0" fill="#81E6D9" opacity="0.80" rx="1"/>
<rect x="515.7" y="6.2" width="7.8" height="2.0" fill="#81E6D9" opacity="0.81" rx="1"/>
<rect x="515.7" y="14.0" width="9.4" height="2.0" fill="#81E6D9" opacity="0.78" rx="1"/>
<rect x="515.7" y="17.2" width="10.9" height="2.0" fill="#81E6D9" opacity="0.79" rx="1"/>
<rect x="548.4" y="25.0" width="6.2" height="2.0" fill="#81E6D9" opacity="0.82" rx="1"/>
<rect x="548.4" y="17.2" width="6.2" height="2.0" fill="#81E6D9" opacity="0.79" rx="1"/>
<rect x="550.0" y="9.4" width="4.7" height="2.0" fill="#81E6D9" opacity="0.78" rx="1"/>
<rect x="550.0" y="14.0" width="4.7" height="2.0" fill="#81E6D9" opacity="0.79" rx="1"/>
<rect x="567.2" y="17.2" width="4.7" height="2.0" fill="#81E6D9" opacity="0.81" rx="1"/>
<rect x="567.2" y="25.0" width="4.7" height="2.0" fill="#81E6D9" opacity="0.82" rx="1"/>
<rect x="567.2" y="14.0" width="7.8" height="2.0" fill="#81E6D9" opacity="0.78" rx="1"/>
<rect x="567.2" y="9.4" width="9.4" height="2.0" fill="#81E6D9" opacity="0.81" rx="1"/>
<rect x="573.4" y="25.0" width="7.8" height="2.0" fill="#81E6D9" opacity="0.82" rx="1"/>
<rect x="600.0" y="25.0" width="6.2" height="2.0" fill="#81E6D9" opacity="0.79" rx="1"/>
<rect x="598.4" y="21.9" width="9.4" height="2.0" fill="#81E6D9" opacity="0.81" rx="1"/>
<rect x="650.0" y="18.7" width="3.1" height="2.0" fill="#81E6D9" opacity="0.79" rx="1"/>
<rect x="653.1" y="18.7" width="12.5" height="2.0" fill="#81E6D9" opacity="0.82" rx="1"/>
<rect x="650.0" y="25.0" width="21.9" height="2.0" fill="#81E6D9" opacity="0.82" rx="1"/>
<rect x="667.2" y="14.0" width="9.4" height="2.0" fill="#81E6D9" opacity="0.77" rx="1"/>
<rect x="675.0" y="35.9" width="1.6" height="2.0" fill="#81E6D9" opacity="0.81" rx="1"/>
<rect x="650.0" y="32.8" width="31.2" height="2.0" fill="#81E6D9" opacity="0.77" rx="1"/>
<rect x="692.2" y="32.8" width="12.5" height="2.0" fill="#81E6D9" opacity="0.82" rx="1"/>
<rect x="707.8" y="40.6" width="3.1" height="2.0" fill="#81E6D9" opacity="0.81" rx="1"/>
<rect x="707.8" y="35.9" width="3.1" height="2.0" fill="#81E6D9" opacity="0.78" rx="1"/>
<rect x="704.7" y="32.8" width="7.8" height="2.0" fill="#81E6D9" opacity="0.81" rx="1"/>
<rect x="693.8" y="25.0" width="23.4" height="2.0" fill="#81E6D9" opacity="0.81" rx="1"/>
<rect x="693.8" y="17.2" width="25.0" height="2.0" fill="#81E6D9" opacity="0.81" rx="1"/>
<rect x="715.7" y="46.8" width="4.7" height="2.0" fill="#81E6D9" opacity="0.77" rx="1"/>
<rect x="717.2" y="51.5" width="6.2" height="2.0" fill="#81E6D9" opacity="0.77" rx="1"/>
<rect x="721.9" y="54.6" width="1.6" height="2.0" fill="#81E6D9" opacity="0.81" rx="1"/>
<rect x="720.3" y="53.1" width="6.2" height="2.0" fill="#81E6D9" opacity="0.77" rx="1"/>
<rect x="723.4" y="54.6" width="3.1" height="2.0" fill="#81E6D9" opacity="0.82" rx="1"/>
<rect x="726.6" y="57.8" width="4.7" height="2.0" fill="#81E6D9" opacity="0.79" rx="1"/>
<rect x="795.3" y="57.8" width="1.6" height="2.0" fill="#81E6D9" opacity="0.76" rx="1"/>
<rect x="796.9" y="56.2" width="1.6" height="2.0" fill="#81E6D9" opacity="0.79" rx="1"/>
<rect x="798.4" y="51.5" width="1.6" height="2.0" fill="#81E6D9" opacity="0.76" rx="1"/>
<rect x="798.4" y="50.0" width="1.6" height="2.0" fill="#81E6D9" opacity="0.81" rx="1"/>
<rect x="100.0" y="39.0" width="15.6" height="2.0" fill="#8AAABB" opacity="0.86" rx="1"/>
<rect x="100.0" y="56.2" width="17.2" height="2.0" fill="#8AAABB" opacity="0.87" rx="1"/>
<rect x="100.0" y="45.3" width="25.0" height="2.0" fill="#8AAABB" opacity="0.85" rx="1"/>
<rect x="175.0" y="26.5" width="18.8" height="2.0" fill="#8AAABB" opacity="0.85" rx="1"/>
<rect x="175.0" y="45.3" width="25.0" height="2.0" fill="#8AAABB" opacity="0.86" rx="1"/>
<rect x="175.0" y="31.2" width="26.6" height="2.0" fill="#8AAABB" opacity="0.85" rx="1"/>
<rect x="217.2" y="39.0" width="9.4" height="2.0" fill="#8AAABB" opacity="0.87" rx="1"/>
<rect x="242.2" y="48.4" width="3.1" height="2.0" fill="#8AAABB" opacity="0.87" rx="1"/>
<rect x="242.2" y="26.5" width="3.1" height="2.0" fill="#8AAABB" opacity="0.84" rx="1"/>
<rect x="242.2" y="54.6" width="9.4" height="2.0" fill="#8AAABB" opacity="0.88" rx="1"/>
<rect x="250.0" y="45.3" width="9.4" height="2.0" fill="#8AAABB" opacity="0.86" rx="1"/>
<rect x="267.2" y="26.5" width="1.6" height="2.0" fill="#8AAABB" opacity="0.85" rx="1"/>
<rect x="275.0" y="45.3" width="4.7" height="2.0" fill="#8AAABB" opacity="0.85" rx="1"/>
<rect x="275.0" y="26.5" width="4.7" height="2.0" fill="#8AAABB" opacity="0.86" rx="1"/>
<rect x="292.2" y="26.5" width="3.1" height="2.0" fill="#8AAABB" opacity="0.85" rx="1"/>
<rect x="325.0" y="28.1" width="9.4" height="2.0" fill="#8AAABB" opacity="0.85" rx="1"/>
<rect x="328.1" y="48.4" width="7.8" height="2.0" fill="#8AAABB" opacity="0.85" rx="1"/>
<rect x="325.0" y="26.5" width="15.6" height="2.0" fill="#8AAABB" opacity="0.86" rx="1"/>
<rect x="325.0" y="56.2" width="18.8" height="2.0" fill="#8AAABB" opacity="0.84" rx="1"/>
<rect x="325.0" y="39.0" width="25.0" height="2.0" fill="#8AAABB" opacity="0.87" rx="1"/>
<rect x="325.0" y="31.2" width="26.6" height="2.0" fill="#8AAABB" opacity="0.85" rx="1"/>
<rect x="367.2" y="26.5" width="3.1" height="2.0" fill="#8AAABB" opacity="0.87" rx="1"/>
<rect x="367.2" y="31.2" width="6.2" height="2.0" fill="#8AAABB" opacity="0.86" rx="1"/>
<rect x="400.0" y="12.5" width="6.2" height="2.0" fill="#8AAABB" opacity="0.85" rx="1"/>
<rect x="400.0" y="48.4" width="18.8" height="2.0" fill="#8AAABB" opacity="0.85" rx="1"/>
<rect x="400.0" y="26.5" width="21.9" height="2.0" fill="#8AAABB" opacity="0.84" rx="1"/>
<rect x="404.7" y="15.6" width="18.8" height="2.0" fill="#8AAABB" opacity="0.85" rx="1"/>
<rect x="417.2" y="12.5" width="7.8" height="2.0" fill="#8AAABB" opacity="0.87" rx="1"/>
<rect x="425.0" y="54.6" width="6.2" height="2.0" fill="#8AAABB" opacity="0.84" rx="1"/>
<rect x="423.4" y="28.1" width="15.6" height="2.0" fill="#8AAABB" opacity="0.86" rx="1"/>
<rect x="442.2" y="45.3" width="6.2" height="2.0" fill="#8AAABB" opacity="0.87" rx="1"/>
<rect x="450.0" y="48.4" width="6.2" height="2.0" fill="#8AAABB" opacity="0.84" rx="1"/>
<rect x="450.0" y="45.3" width="6.2" height="2.0" fill="#8AAABB" opacity="0.85" rx="1"/>
<rect x="467.2" y="26.5" width="4.7" height="2.0" fill="#8AAABB" opacity="0.86" rx="1"/>
<rect x="500.0" y="28.1" width="6.2" height="2.0" fill="#8AAABB" opacity="0.86" rx="1"/>
<rect x="500.0" y="39.0" width="9.4" height="2.0" fill="#8AAABB" opacity="0.85" rx="1"/>
<rect x="500.0" y="25.0" width="10.9" height="2.0" fill="#8AAABB" opacity="0.85" rx="1"/>
<rect x="500.0" y="45.3" width="14.1" height="2.0" fill="#8AAABB" opacity="0.85" rx="1"/>
<rect x="517.2" y="56.2" width="15.6" height="2.0" fill="#8AAABB" opacity="0.86" rx="1"/>
<rect x="550.0" y="26.5" width="12.5" height="2.0" fill="#8AAABB" opacity="0.87" rx="1"/>
<rect x="567.2" y="26.5" width="3.1" height="2.0" fill="#8AAABB" opacity="0.86" rx="1"/>
<rect x="567.2" y="28.1" width="9.4" height="2.0" fill="#8AAABB" opacity="0.86" rx="1"/>
<rect x="570.3" y="26.5" width="7.8" height="2.0" fill="#8AAABB" opacity="0.86" rx="1"/>
<rect x="575.0" y="56.2" width="10.9" height="2.0" fill="#8AAABB" opacity="0.85" rx="1"/>
<rect x="625.0" y="53.1" width="7.8" height="2.0" fill="#8AAABB" opacity="0.86" rx="1"/>
<rect x="650.0" y="56.2" width="17.2" height="2.0" fill="#8AAABB" opacity="0.87" rx="1"/>
<rect x="650.0" y="39.0" width="35.9" height="2.0" fill="#8AAABB" opacity="0.85" rx="1"/>
<rect x="717.2" y="45.3" width="4.7" height="2.0" fill="#8AAABB" opacity="0.87" rx="1"/>
<rect x="693.8" y="20.3" width="29.7" height="2.0" fill="#8AAABB" opacity="0.86" rx="1"/>
<rect x="693.8" y="26.5" width="31.2" height="2.0" fill="#8AAABB" opacity="0.84" rx="1"/>
<rect x="750.0" y="45.3" width="4.7" height="2.0" fill="#8AAABB" opacity="0.86" rx="1"/>
<rect x="775.0" y="45.3" width="6.2" height="2.0" fill="#8AAABB" opacity="0.87" rx="1"/>
</svg>