<svg xmlns="http://www.w3.org/2000/svg" width="800" height="64" style="background:#0B1E26;border-radius:6px">
<rect x="51.1" y="25.0" width="25.6" height="2.0" fill="#4FD1C5" opacity="0.92" rx="1"/>
<rect x="506.2" y="14.0" width="16.0" height="2.0" fill="#4FD1C5" opacity="0.92" rx="1"/>
<rect x="512.1" y="10.9" width="11.2" height="2.0" fill="#4FD1C5" opacity="0.92" rx="1"/>
<rect x="524.8" y="17.2" width="8.0" height="2.0" fill="#4FD1C5" opacity="0.93" rx="1"/>
<rect x="537.4" y="14.0" width="16.0" height="2.0" fill="#4FD1C5" opacity="0.91" rx="1"/>
<rect x="599.8" y="18.7" width="6.4" height="2.0" fill="#4FD1C5" opacity="0.93" rx="1"/>
<rect x="612.9" y="21.9" width="4.8" height="2.0" fill="#4FD1C5" opacity="0.92" rx="1"/>
<rect x="641.1" y="14.0" width="8.0" height="2.0" fill="#4FD1C5" opacity="0.95" rx="1"/>
<rect x="675.1" y="17.2" width="8.0" height="2.0" fill="#4FD1C5" opacity="0.93" rx="1"/>
<rect x="727.4" y="25.0" width="4.8" height="2.0" fill="#4FD1C5" opacity="0.91" rx="1"/>
<rect x="756.3" y="18.7" width="3.1" height="2.0" fill="#4FD1C5" opacity="0.91" rx="1"/>
<rect x="762.3" y="21.9" width="4.8" height="2.0" fill="#4FD1C5" opacity="0.92" rx="1"/>
<rect x="767.2" y="18.7" width="12.8" height="2.0" fill="#4FD1C5" opacity="0.94" rx="1"/>
<rect x="776.7" y="25.0" width="4.8" height="2.0" fill="#4FD1C5" opacity="0.91" rx="1"/>
<rect x="793.6" y="18.7" width="6.4" height="2.0" fill="#4FD1C5" opacity="0.94" rx="1"/>
<rect x="734.8" y="51.5" width="4.8" height="2.0" fill="#F4C471" opacity="0.77" rx="1"/>
<rect x="51.4" y="10.9" width="6.4" height="2.0" fill="#81E6D9" opacity="0.79" rx="1"/>
<rect x="52.1" y="6.2" width="8.0" height="2.0" fill="#81E6D9" opacity="0.82" rx="1"/>
<rect x="256.9" y="17.2" width="4.8" height="2.0" fill="#81E6D9" opacity="0.82" rx="1"/>
<rect x="281.4" y="21.9" width="28.8" height="2.0" fill="#81E6D9" opacity="0.79" rx="1"/>
<rect x="384.7" y="18.7" width="4.8" height="2.0" fill="#81E6D9" opacity="0.82" rx="1"/>
<rect x="406.2" y="21.9" width="4.0" height="2.0" fill="#81E6D9" opacity="0.80" rx="1"/>
<rect x="404.4" y="18.7" width="9.6" height="2.0" fill="#81E6D9" opacity="0.80" rx="1"/>
<rect x="431.1" y="18.7" width="3.2" height="2.0" fill="#81E6D9" opacity="0.82" rx="1"/>
<rect x="428.5" y="10.9" width="6.4" height="2.0" fill="#81E6D9" opacity="0.83" rx="1"/>
<rect x="467.2" y="17.2" width="4.5" height="2.0" fill="#81E6D9" opacity="0.82" rx="1"/>
<rect x="467.8" y="25.0" width="6.4" height="2.0" fill="#81E6D9" opacity="0.83" rx="1"/>
<rect x="486.9" y="18.7" width="4.8" height="2.0" fill="#81E6D9" opacity="0.81" rx="1"/>
<rect x="492.8" y="21.9" width="6.4" height="2.0" fill="#81E6D9" opacity="0.83" rx="1"/>
<rect x="493.7" y="14.0" width="6.6" height="2.0" fill="#81E6D9" opacity="0.80" rx="1"/>
<rect x="493.4" y="10.9" width="8.0" height="2.0" fill="#81E6D9" opacity="0.83" rx="1"/>
<rect x="492.7" y="18.7" width="9.6" height="2.0" fill="#81E6D9" opacity="0.80" rx="1"/>
<rect x="493.7" y="29.7" width="9.6" height="2.0" fill="#81E6D9" opacity="0.83" rx="1"/>
<rect x="500.2" y="21.9" width="3.2" height="2.0" fill="#81E6D9" opacity="0.82" rx="1"/>
<rect x="614.1" y="17.2" width="19.2" height="2.0" fill="#81E6D9" opacity="0.81" rx="1"/>
<rect x="692.0" y="18.7" width="1.6" height="2.0" fill="#81E6D9" opacity="0.80" rx="1"/>
<rect x="710.1" y="10.9" width="6.4" height="2.0" fill="#81E6D9" opacity="0.81" rx="1"/>
<rect x="727.6" y="18.7" width="4.8" height="2.0" fill="#81E6D9" opacity="0.80" rx="1"/>
<rect x="730.6" y="14.0" width="6.4" height="2.0" fill="#81E6D9" opacity="0.83" rx="1"/>
<rect x="256.1" y="50.0" width="14.4" height="2.0" fill="#8AAABB" opacity="0.86" rx="1"/>
<rect x="345.8" y="51.5" width="6.4" height="2.0" fill="#8AAABB" opacity="0.84" rx="1"/>
<rect x="416.2" y="50.0" width="6.4" height="2.0" fill="#8AAABB" opacity="0.84" rx="1"/>
<rect x="485.0" y="39.0" width="6.4" height="2.0" fill="#8AAABB" opacity="0.84" rx="1"/>
<rect x="611.5" y="57.8" width="9.6" height="2.0" fill="#8AAABB" opacity="0.85" rx="1"/>
<rect x="638.7" y="26.5" width="12.8" height="2.0" fill="#8AAABB" opacity="0.84" rx="1"/>
<rect x="728.3" y="51.5" width="4.8" height="2.0" fill="#8AAABB" opacity="0.84" rx="1"/>
<rect x="747.5" y="26.5" width="4.8" height="2.0" fill="#8AAABB" opacity="0.84" rx="1"/>
</svg>