<svg xmlns="http://www.w3.org/2000/svg" width="800" height="64" style="background:#0B1E26;border-radius:6px">
<rect x="50.6" y="25.0" width="25.0" height="2.0" fill="#4FD1C5" opacity="0.91" rx="1"/>
<rect x="494.0" y="14.0" width="15.7" height="2.0" fill="#4FD1C5" opacity="0.93" rx="1"/>
<rect x="500.2" y="10.9" width="11.0" height="2.0" fill="#4FD1C5" opacity="0.91" rx="1"/>
<rect x="513.7" y="17.2" width="7.8" height="2.0" fill="#4FD1C5" opacity="0.92" rx="1"/>
<rect x="526.5" y="14.0" width="15.7" height="2.0" fill="#4FD1C5" opacity="0.91" rx="1"/>
<rect x="586.3" y="18.7" width="6.3" height="2.0" fill="#4FD1C5" opacity="0.93" rx="1"/>
<rect x="598.8" y="21.9" width="4.7" height="2.0" fill="#4FD1C5" opacity="0.92" rx="1"/>
<rect x="625.9" y="14.0" width="7.8" height="2.0" fill="#4FD1C5" opacity="0.93" rx="1"/>
<rect x="660.0" y="17.2" width="7.8" height="2.0" fill="#4FD1C5" opacity="0.93" rx="1"/>
<rect x="711.3" y="25.0" width="4.7" height="2.0" fill="#4FD1C5" opacity="0.93" rx="1"/>
<rect x="738.1" y="18.7" width="3.1" height="2.0" fill="#4FD1C5" opacity="0.94" rx="1"/>
<rect x="745.4" y="21.9" width="4.7" height="2.0" fill="#4FD1C5" opacity="0.91" rx="1"/>
<rect x="749.2" y="18.7" width="12.5" height="2.0" fill="#4FD1C5" opacity="0.93" rx="1"/>
<rect x="759.5" y="25.0" width="4.7" height="2.0" fill="#4FD1C5" opacity="0.92" rx="1"/>
<rect x="775.6" y="18.7" width="6.3" height="2.0" fill="#4FD1C5" opacity="0.94" rx="1"/>
<rect x="783.5" y="17.2" width="4.7" height="2.0" fill="#4FD1C5" opacity="0.91" rx="1"/>
<rect x="787.3" y="21.9" width="6.3" height="2.0" fill="#4FD1C5" opacity="0.90" rx="1"/>
<rect x="795.3" y="21.9" width="4.7" height="2.0" fill="#4FD1C5" opacity="0.93" rx="1"/>
<rect x="718.0" y="51.5" width="4.7" height="2.0" fill="#F4C471" opacity="0.75" rx="1"/>
<rect x="49.3" y="10.9" width="6.3" height="2.0" fill="#81E6D9" opacity="0.79" rx="1"/>
<rect x="50.8" y="6.2" width="7.8" height="2.0" fill="#81E6D9" opacity="0.82" rx="1"/>
<rect x="249.7" y="17.2" width="4.7" height="2.0" fill="#81E6D9" opacity="0.78" rx="1"/>
<rect x="275.8" y="21.9" width="28.2" height="2.0" fill="#81E6D9" opacity="0.79" rx="1"/>
<rect x="375.3" y="18.7" width="4.7" height="2.0" fill="#81E6D9" opacity="0.81" rx="1"/>
<rect x="397.9" y="21.9" width="3.1" height="2.0" fill="#81E6D9" opacity="0.78" rx="1"/>
<rect x="396.1" y="18.7" width="9.4" height="2.0" fill="#81E6D9" opacity="0.81" rx="1"/>
<rect x="421.3" y="18.7" width="3.1" height="2.0" fill="#81E6D9" opacity="0.81" rx="1"/>
<rect x="419.5" y="10.9" width="6.3" height="2.0" fill="#81E6D9" opacity="0.81" rx="1"/>
<rect x="456.7" y="17.2" width="4.7" height="2.0" fill="#81E6D9" opacity="0.80" rx="1"/>
<rect x="457.0" y="25.0" width="6.3" height="2.0" fill="#81E6D9" opacity="0.79" rx="1"/>
<rect x="475.9" y="18.7" width="4.7" height="2.0" fill="#81E6D9" opacity="0.82" rx="1"/>
<rect x="487.8" y="21.9" width="1.5" height="2.0" fill="#81E6D9" opacity="0.78" rx="1"/>
<rect x="482.8" y="14.0" width="6.3" height="2.0" fill="#81E6D9" opacity="0.79" rx="1"/>
<rect x="481.6" y="10.9" width="7.8" height="2.0" fill="#81E6D9" opacity="0.81" rx="1"/>
<rect x="481.6" y="18.7" width="9.4" height="2.0" fill="#81E6D9" opacity="0.82" rx="1"/>
<rect x="482.3" y="29.7" width="9.4" height="2.0" fill="#81E6D9" opacity="0.82" rx="1"/>
<rect x="600.7" y="17.2" width="18.8" height="2.0" fill="#81E6D9" opacity="0.79" rx="1"/>
<rect x="676.8" y="18.7" width="1.6" height="2.0" fill="#81E6D9" opacity="0.78" rx="1"/>
<rect x="695.5" y="10.9" width="6.3" height="2.0" fill="#81E6D9" opacity="0.78" rx="1"/>
<rect x="712.4" y="18.7" width="4.7" height="2.0" fill="#81E6D9" opacity="0.78" rx="1"/>
<rect x="714.1" y="14.0" width="6.3" height="2.0" fill="#81E6D9" opacity="0.81" rx="1"/>
<rect x="250.5" y="50.0" width="14.1" height="2.0" fill="#8AAABB" opacity="0.87" rx="1"/>
<rect x="338.1" y="51.5" width="6.3" height="2.0" fill="#8AAABB" opacity="0.87" rx="1"/>
<rect x="407.0" y="50.0" width="6.3" height="2.0" fill="#8AAABB" opacity="0.84" rx="1"/>
<rect x="474.3" y="39.0" width="6.3" height="2.0" fill="#8AAABB" opacity="0.87" rx="1"/>
<rect x="598.0" y="57.8" width="9.4" height="2.0" fill="#8AAABB" opacity="0.84" rx="1"/>
<rect x="624.6" y="26.5" width="12.5" height="2.0" fill="#8AAABB" opacity="0.84" rx="1"/>
<rect x="712.2" y="51.5" width="4.7" height="2.0" fill="#8AAABB" opacity="0.85" rx="1"/>
<rect x="731.0" y="26.5" width="4.7" height="2.0" fill="#8AAABB" opacity="0.86" rx="1"/>
</svg>