<svg xmlns="http://www.w3.org/2000/svg" width="800" height="64" style="background:#0B1E26;border-radius:6px">
<rect x="50.7" y="25.0" width="25.1" height="2.0" fill="#4FD1C5" opacity="0.92" rx="1"/>
<rect x="495.7" y="14.0" width="15.7" height="2.0" fill="#4FD1C5" opacity="0.93" rx="1"/>
<rect x="501.9" y="10.9" width="11.0" height="2.0" fill="#4FD1C5" opacity="0.93" rx="1"/>
<rect x="514.5" y="17.2" width="7.8" height="2.0" fill="#4FD1C5" opacity="0.91" rx="1"/>
<rect x="527.0" y="14.0" width="15.7" height="2.0" fill="#4FD1C5" opacity="0.93" rx="1"/>
<rect x="587.4" y="18.7" width="6.3" height="2.0" fill="#4FD1C5" opacity="0.91" rx="1"/>
<rect x="600.6" y="21.9" width="4.7" height="2.0" fill="#4FD1C5" opacity="0.91" rx="1"/>
<rect x="627.3" y="14.0" width="7.8" height="2.0" fill="#4FD1C5" opacity="0.95" rx="1"/>
<rect x="660.6" y="17.2" width="7.8" height="2.0" fill="#4FD1C5" opacity="0.92" rx="1"/>
<rect x="712.1" y="25.0" width="4.7" height="2.0" fill="#4FD1C5" opacity="0.91" rx="1"/>
<rect x="739.0" y="18.7" width="3.1" height="2.0" fill="#4FD1C5" opacity="0.94" rx="1"/>
<rect x="745.5" y="21.9" width="4.7" height="2.0" fill="#4FD1C5" opacity="0.93" rx="1"/>
<rect x="751.5" y="18.7" width="12.5" height="2.0" fill="#4FD1C5" opacity="0.93" rx="1"/>
<rect x="759.9" y="25.0" width="4.7" height="2.0" fill="#4FD1C5" opacity="0.91" rx="1"/>
<rect x="775.7" y="18.7" width="6.3" height="2.0" fill="#4FD1C5" opacity="0.94" rx="1"/>
<rect x="785.8" y="17.2" width="4.7" height="2.0" fill="#4FD1C5" opacity="0.92" rx="1"/>
<rect x="788.8" y="21.9" width="6.3" height="2.0" fill="#4FD1C5" opacity="0.90" rx="1"/>
<rect x="795.3" y="21.9" width="4.7" height="2.0" fill="#4FD1C5" opacity="0.94" rx="1"/>
<rect x="719.1" y="51.5" width="4.7" height="2.0" fill="#F4C471" opacity="0.75" rx="1"/>
<rect x="49.4" y="10.9" width="6.3" height="2.0" fill="#81E6D9" opacity="0.79" rx="1"/>
<rect x="50.5" y="6.2" width="7.8" height="2.0" fill="#81E6D9" opacity="0.78" rx="1"/>
<rect x="250.0" y="17.2" width="4.7" height="2.0" fill="#81E6D9" opacity="0.77" rx="1"/>
<rect x="276.0" y="21.9" width="28.2" height="2.0" fill="#81E6D9" opacity="0.78" rx="1"/>
<rect x="376.2" y="18.7" width="4.7" height="2.0" fill="#81E6D9" opacity="0.82" rx="1"/>
<rect x="398.3" y="21.9" width="3.1" height="2.0" fill="#81E6D9" opacity="0.81" rx="1"/>
<rect x="397.2" y="18.7" width="9.4" height="2.0" fill="#81E6D9" opacity="0.78" rx="1"/>
<rect x="421.2" y="18.7" width="3.1" height="2.0" fill="#81E6D9" opacity="0.82" rx="1"/>
<rect x="419.6" y="10.9" width="6.3" height="2.0" fill="#81E6D9" opacity="0.81" rx="1"/>
<rect x="457.2" y="17.2" width="4.7" height="2.0" fill="#81E6D9" opacity="0.79" rx="1"/>
<rect x="456.8" y="25.0" width="6.3" height="2.0" fill="#81E6D9" opacity="0.78" rx="1"/>
<rect x="476.1" y="18.7" width="4.7" height="2.0" fill="#81E6D9" opacity="0.79" rx="1"/>
<rect x="483.1" y="14.0" width="6.3" height="2.0" fill="#81E6D9" opacity="0.79" rx="1"/>
<rect x="488.6" y="21.9" width="1.6" height="2.0" fill="#81E6D9" opacity="0.77" rx="1"/>
<rect x="482.5" y="10.9" width="7.8" height="2.0" fill="#81E6D9" opacity="0.81" rx="1"/>
<rect x="482.6" y="29.7" width="9.4" height="2.0" fill="#81E6D9" opacity="0.81" rx="1"/>
<rect x="483.2" y="18.7" width="9.4" height="2.0" fill="#81E6D9" opacity="0.82" rx="1"/>
<rect x="602.3" y="17.2" width="18.8" height="2.0" fill="#81E6D9" opacity="0.80" rx="1"/>
<rect x="676.3" y="18.7" width="1.6" height="2.0" fill="#81E6D9" opacity="0.79" rx="1"/>
<rect x="696.4" y="10.9" width="6.3" height="2.0" fill="#81E6D9" opacity="0.81" rx="1"/>
<rect x="712.6" y="18.7" width="4.7" height="2.0" fill="#81E6D9" opacity="0.81" rx="1"/>
<rect x="714.4" y="14.0" width="6.3" height="2.0" fill="#81E6D9" opacity="0.78" rx="1"/>
<rect x="250.7" y="50.0" width="14.1" height="2.0" fill="#8AAABB" opacity="0.85" rx="1"/>
<rect x="338.5" y="51.5" width="6.3" height="2.0" fill="#8AAABB" opacity="0.85" rx="1"/>
<rect x="407.4" y="50.0" width="6.3" height="2.0" fill="#8AAABB" opacity="0.87" rx="1"/>
<rect x="474.8" y="39.0" width="6.3" height="2.0" fill="#8AAABB" opacity="0.85" rx="1"/>
<rect x="598.6" y="57.8" width="9.4" height="2.0" fill="#8AAABB" opacity="0.86" rx="1"/>
<rect x="625.3" y="26.5" width="12.5" height="2.0" fill="#8AAABB" opacity="0.84" rx="1"/>
<rect x="713.0" y="51.5" width="4.7" height="2.0" fill="#8AAABB" opacity="0.84" rx="1"/>
<rect x="731.8" y="26.5" width="4.7" height="2.0" fill="#8AAABB" opacity="0.84" rx="1"/>
</svg>