<svg xmlns="http://www.w3.org/2000/svg" width="800" height="64" style="background:#0B1E26;border-radius:6px">
<rect x="433.3" y="5.4" width="36.3" height="2.0" fill="#4FD1C5" opacity="0.90" rx="1"/>
<rect x="581.2" y="16.3" width="145.0" height="2.0" fill="#4FD1C5" opacity="0.89" rx="1"/>
<rect x="506.0" y="12.3" width="290.1" height="2.0" fill="#4FD1C5" opacity="0.89" rx="1"/>
<rect x="506.9" y="9.5" width="290.1" height="2.0" fill="#4FD1C5" opacity="0.88" rx="1"/>
<rect x="507.6" y="5.4" width="290.1" height="2.0" fill="#4FD1C5" opacity="0.91" rx="1"/>
<rect x="509.5" y="15.0" width="290.1" height="2.0" fill="#4FD1C5" opacity="0.86" rx="1"/>
<rect x="290.5" y="36.8" width="9.1" height="2.0" fill="#F4C471" opacity="0.82" rx="1"/>
<rect x="294.2" y="39.5" width="8.2" height="2.0" fill="#F4C471" opacity="0.89" rx="1"/>
<rect x="304.6" y="42.2" width="2.1" height="2.0" fill="#F4C471" opacity="0.87" rx="1"/>
<rect x="300.1" y="46.3" width="9.1" height="2.0" fill="#F4C471" opacity="0.90" rx="1"/>
<rect x="302.8" y="47.7" width="9.1" height="2.0" fill="#F4C471" opacity="0.87" rx="1"/>
<rect x="302.9" y="49.0" width="9.1" height="2.0" fill="#F4C471" opacity="0.84" rx="1"/>
<rect x="307.6" y="53.1" width="9.1" height="2.0" fill="#F4C471" opacity="0.88" rx="1"/>
<rect x="310.0" y="54.5" width="8.3" height="2.0" fill="#F4C471" opacity="0.85" rx="1"/>
<rect x="314.6" y="55.8" width="8.9" height="2.0" fill="#F4C471" opacity="0.89" rx="1"/>
<rect x="316.5" y="58.6" width="9.1" height="2.0" fill="#F4C471" opacity="0.89" rx="1"/>
<rect x="340.7" y="55.8" width="1.8" height="2.0" fill="#F4C471" opacity="0.83" rx="1"/>
<rect x="338.1" y="53.1" width="4.5" height="2.0" fill="#F4C471" opacity="0.89" rx="1"/>
<rect x="342.2" y="54.5" width="1.5" height="2.0" fill="#F4C471" opacity="0.89" rx="1"/>
<rect x="341.9" y="49.0" width="3.0" height="2.0" fill="#F4C471" opacity="0.84" rx="1"/>
<rect x="343.7" y="55.8" width="1.5" height="2.0" fill="#F4C471" opacity="0.90" rx="1"/>
<rect x="341.8" y="58.6" width="4.5" height="2.0" fill="#F4C471" opacity="0.86" rx="1"/>
<rect x="346.1" y="54.5" width="1.5" height="2.0" fill="#F4C471" opacity="0.91" rx="1"/>
<rect x="346.0" y="55.8" width="2.3" height="2.0" fill="#F4C471" opacity="0.84" rx="1"/>
<rect x="348.3" y="54.5" width="2.4" height="2.0" fill="#F4C471" opacity="0.87" rx="1"/>
<rect x="346.7" y="49.0" width="4.5" height="2.0" fill="#F4C471" opacity="0.91" rx="1"/>
<rect x="349.6" y="53.1" width="4.5" height="2.0" fill="#F4C471" opacity="0.84" rx="1"/>
<rect x="351.0" y="55.8" width="4.5" height="2.0" fill="#F4C471" opacity="0.85" rx="1"/>
<rect x="351.3" y="47.7" width="5.6" height="2.0" fill="#F4C471" opacity="0.90" rx="1"/>
<rect x="349.0" y="58.6" width="9.1" height="2.0" fill="#F4C471" opacity="0.85" rx="1"/>
<rect x="357.5" y="54.5" width="2.1" height="2.0" fill="#F4C471" opacity="0.87" rx="1"/>
<rect x="358.4" y="42.2" width="2.0" height="2.0" fill="#F4C471" opacity="0.89" rx="1"/>
<rect x="359.4" y="55.8" width="4.5" height="2.0" fill="#F4C471" opacity="0.86" rx="1"/>
<rect x="509.3" y="28.6" width="71.5" height="2.0" fill="#F4C471" opacity="0.89" rx="1"/>
<rect x="505.4" y="42.2" width="290.1" height="2.0" fill="#F4C471" opacity="0.84" rx="1"/>
<rect x="505.5" y="21.8" width="290.1" height="2.0" fill="#F4C471" opacity="0.82" rx="1"/>
<rect x="507.2" y="25.9" width="290.1" height="2.0" fill="#F4C471" opacity="0.82" rx="1"/>
<rect x="508.1" y="19.1" width="290.1" height="2.0" fill="#F4C471" opacity="0.83" rx="1"/>
<rect x="509.2" y="39.5" width="290.1" height="2.0" fill="#F4C471" opacity="0.86" rx="1"/>
<rect x="509.9" y="38.1" width="290.1" height="2.0" fill="#F4C471" opacity="0.83" rx="1"/>
<rect x="325.1" y="23.1" width="35.7" height="2.0" fill="#81E6D9" opacity="0.79" rx="1"/>
<rect x="325.6" y="6.8" width="36.3" height="2.0" fill="#81E6D9" opacity="0.77" rx="1"/>
<rect x="362.5" y="19.1" width="36.3" height="2.0" fill="#81E6D9" opacity="0.81" rx="1"/>
<rect x="507.6" y="5.4" width="217.6" height="2.0" fill="#81E6D9" opacity="0.79" rx="1"/>
<rect x="509.5" y="9.5" width="217.6" height="2.0" fill="#81E6D9" opacity="0.81" rx="1"/>
<rect x="505.5" y="12.3" width="290.1" height="2.0" fill="#81E6D9" opacity="0.83" rx="1"/>
</svg>