<svg xmlns="http://www.w3.org/2000/svg" width="800" height="64" style="background:#0B1E26;border-radius:6px">
<rect x="149.2" y="14.9" width="12.5" height="2.0" fill="#4FD1C5" opacity="0.89" rx="1"/>
<rect x="200.2" y="24.0" width="50.0" height="2.0" fill="#4FD1C5" opacity="0.87" rx="1"/>
<rect x="174.4" y="22.9" width="100.0" height="2.0" fill="#4FD1C5" opacity="0.84" rx="1"/>
<rect x="175.0" y="20.6" width="100.0" height="2.0" fill="#4FD1C5" opacity="0.88" rx="1"/>
<rect x="275.2" y="14.9" width="1.5" height="2.0" fill="#4FD1C5" opacity="0.87" rx="1"/>
<rect x="274.3" y="18.3" width="1.5" height="2.0" fill="#4FD1C5" opacity="0.85" rx="1"/>
<rect x="224.7" y="16.0" width="75.0" height="2.0" fill="#4FD1C5" opacity="0.88" rx="1"/>
<rect x="324.6" y="20.6" width="1.5" height="2.0" fill="#4FD1C5" opacity="0.88" rx="1"/>
<rect x="324.3" y="18.3" width="25.0" height="2.0" fill="#4FD1C5" opacity="0.86" rx="1"/>
<rect x="349.2" y="20.6" width="1.5" height="2.0" fill="#4FD1C5" opacity="0.84" rx="1"/>
<rect x="274.8" y="9.1" width="75.0" height="2.0" fill="#4FD1C5" opacity="0.91" rx="1"/>
<rect x="275.1" y="22.9" width="75.0" height="2.0" fill="#4FD1C5" opacity="0.88" rx="1"/>
<rect x="274.4" y="10.3" width="100.0" height="2.0" fill="#4FD1C5" opacity="0.87" rx="1"/>
<rect x="374.0" y="24.0" width="1.5" height="2.0" fill="#4FD1C5" opacity="0.90" rx="1"/>
<rect x="274.7" y="12.6" width="100.0" height="2.0" fill="#4FD1C5" opacity="0.86" rx="1"/>
<rect x="350.4" y="22.9" width="25.0" height="2.0" fill="#4FD1C5" opacity="0.90" rx="1"/>
<rect x="399.0" y="20.6" width="1.5" height="2.0" fill="#4FD1C5" opacity="0.85" rx="1"/>
<rect x="425.1" y="24.0" width="6.2" height="2.0" fill="#4FD1C5" opacity="0.90" rx="1"/>
<rect x="431.4" y="24.0" width="6.2" height="2.0" fill="#4FD1C5" opacity="0.82" rx="1"/>
<rect x="425.4" y="20.6" width="12.5" height="2.0" fill="#4FD1C5" opacity="0.90" rx="1"/>
<rect x="424.1" y="26.3" width="25.0" height="2.0" fill="#4FD1C5" opacity="0.90" rx="1"/>
<rect x="450.2" y="16.0" width="1.5" height="2.0" fill="#4FD1C5" opacity="0.90" rx="1"/>
<rect x="374.9" y="9.1" width="100.0" height="2.0" fill="#4FD1C5" opacity="0.90" rx="1"/>
<rect x="425.0" y="18.3" width="50.0" height="2.0" fill="#4FD1C5" opacity="0.89" rx="1"/>
<rect x="425.1" y="14.9" width="50.0" height="2.0" fill="#4FD1C5" opacity="0.90" rx="1"/>
<rect x="375.5" y="12.6" width="100.0" height="2.0" fill="#4FD1C5" opacity="0.85" rx="1"/>
<rect x="400.6" y="4.6" width="74.9" height="2.0" fill="#4FD1C5" opacity="0.83" rx="1"/>
<rect x="475.4" y="10.3" width="12.5" height="2.0" fill="#4FD1C5" opacity="0.85" rx="1"/>
<rect x="499.6" y="18.3" width="1.5" height="2.0" fill="#4FD1C5" opacity="0.88" rx="1"/>
<rect x="518.5" y="16.0" width="12.5" height="2.0" fill="#4FD1C5" opacity="0.89" rx="1"/>
<rect x="537.8" y="14.9" width="25.0" height="2.0" fill="#4FD1C5" opacity="0.87" rx="1"/>
<rect x="555.7" y="18.3" width="18.7" height="2.0" fill="#4FD1C5" opacity="0.89" rx="1"/>
<rect x="574.9" y="10.3" width="12.5" height="2.0" fill="#4FD1C5" opacity="0.87" rx="1"/>
<rect x="599.9" y="18.3" width="12.5" height="2.0" fill="#4FD1C5" opacity="0.85" rx="1"/>
<rect x="611.7" y="14.9" width="12.5" height="2.0" fill="#4FD1C5" opacity="0.89" rx="1"/>
<rect x="618.2" y="12.6" width="31.2" height="2.0" fill="#4FD1C5" opacity="0.82" rx="1"/>
<rect x="650.2" y="9.1" width="25.0" height="2.0" fill="#4FD1C5" opacity="0.87" rx="1"/>
<rect x="712.1" y="20.6" width="6.2" height="2.0" fill="#4FD1C5" opacity="0.90" rx="1"/>
<rect x="730.8" y="12.6" width="6.2" height="2.0" fill="#4FD1C5" opacity="0.90" rx="1"/>
<rect x="755.6" y="20.6" width="3.1" height="2.0" fill="#4FD1C5" opacity="0.84" rx="1"/>
<rect x="793.0" y="22.9" width="6.2" height="2.0" fill="#4FD1C5" opacity="0.83" rx="1"/>
<rect x="787.5" y="10.3" width="12.5" height="2.0" fill="#4FD1C5" opacity="0.83" rx="1"/>
<rect x="99.7" y="42.3" width="3.1" height="2.0" fill="#F4C471" opacity="0.81" rx="1"/>
<rect x="101.9" y="43.4" width="3.1" height="2.0" fill="#F4C471" opacity="0.88" rx="1"/>
<rect x="105.1" y="50.3" width="1.7" height="2.0" fill="#F4C471" opacity="0.84" rx="1"/>
<rect x="105.2" y="45.7" width="1.6" height="2.0" fill="#F4C471" opacity="0.85" rx="1"/>
<rect x="104.4" y="51.4" width="3.1" height="2.0" fill="#F4C471" opacity="0.82" rx="1"/>
<rect x="106.9" y="56.0" width="2.7" height="2.0" fill="#F4C471" opacity="0.84" rx="1"/>
<rect x="107.8" y="57.1" width="3.1" height="2.0" fill="#F4C471" opacity="0.84" rx="1"/>
<rect x="109.5" y="59.4" width="3.1" height="2.0" fill="#F4C471" opacity="0.87" rx="1"/>
<rect x="116.9" y="51.4" width="1.6" height="2.0" fill="#F4C471" opacity="0.87" rx="1"/>
<rect x="118.0" y="57.1" width="1.5" height="2.0" fill="#F4C471" opacity="0.89" rx="1"/>
<rect x="117.1" y="56.0" width="1.6" height="2.0" fill="#F4C471" opacity="0.89" rx="1"/>
<rect x="117.3" y="59.4" width="1.6" height="2.0" fill="#F4C471" opacity="0.84" rx="1"/>
<rect x="118.6" y="51.4" width="1.6" height="2.0" fill="#F4C471" opacity="0.89" rx="1"/>
<rect x="120.0" y="56.0" width="1.5" height="2.0" fill="#F4C471" opacity="0.84" rx="1"/>
<rect x="120.3" y="57.1" width="1.6" height="2.0" fill="#F4C471" opacity="0.81" rx="1"/>
<rect x="121.5" y="50.3" width="1.6" height="2.0" fill="#F4C471" opacity="0.85" rx="1"/>
<rect x="120.6" y="59.4" width="3.1" height="2.0" fill="#F4C471" opacity="0.87" rx="1"/>
<rect x="122.8" y="56.0" width="1.6" height="2.0" fill="#F4C471" opacity="0.87" rx="1"/>
<rect x="123.3" y="45.7" width="1.6" height="2.0" fill="#F4C471" opacity="0.87" rx="1"/>
<rect x="123.8" y="57.1" width="1.6" height="2.0" fill="#F4C471" opacity="0.89" rx="1"/>
<rect x="175.5" y="34.3" width="25.0" height="2.0" fill="#F4C471" opacity="0.87" rx="1"/>
<rect x="175.2" y="43.4" width="75.0" height="2.0" fill="#F4C471" opacity="0.83" rx="1"/>
<rect x="250.3" y="43.4" width="12.5" height="2.0" fill="#F4C471" opacity="0.82" rx="1"/>
<rect x="174.2" y="32.0" width="100.0" height="2.0" fill="#F4C471" opacity="0.89" rx="1"/>
<rect x="174.6" y="26.3" width="100.0" height="2.0" fill="#F4C471" opacity="0.89" rx="1"/>
<rect x="174.8" y="45.7" width="100.0" height="2.0" fill="#F4C471" opacity="0.87" rx="1"/>
<rect x="175.1" y="42.3" width="100.0" height="2.0" fill="#F4C471" opacity="0.80" rx="1"/>
<rect x="175.1" y="28.6" width="100.0" height="2.0" fill="#F4C471" opacity="0.83" rx="1"/>
<rect x="288.1" y="42.3" width="12.5" height="2.0" fill="#F4C471" opacity="0.85" rx="1"/>
<rect x="274.1" y="40.0" width="100.0" height="2.0" fill="#F4C471" opacity="0.82" rx="1"/>
<rect x="375.1" y="28.6" width="12.5" height="2.0" fill="#F4C471" opacity="0.83" rx="1"/>
<rect x="375.1" y="29.7" width="23.4" height="2.0" fill="#F4C471" opacity="0.88" rx="1"/>
<rect x="374.5" y="32.0" width="25.0" height="2.0" fill="#F4C471" opacity="0.81" rx="1"/>
<rect x="425.6" y="26.3" width="12.5" height="2.0" fill="#F4C471" opacity="0.80" rx="1"/>
<rect x="112.0" y="29.7" width="12.5" height="2.0" fill="#81E6D9" opacity="0.78" rx="1"/>
<rect x="112.9" y="16.0" width="12.5" height="2.0" fill="#81E6D9" opacity="0.79" rx="1"/>
<rect x="124.4" y="26.3" width="12.5" height="2.0" fill="#81E6D9" opacity="0.75" rx="1"/>
<rect x="174.5" y="18.3" width="43.7" height="2.0" fill="#81E6D9" opacity="0.83" rx="1"/>
<rect x="175.0" y="14.9" width="50.0" height="2.0" fill="#81E6D9" opacity="0.79" rx="1"/>
<rect x="225.0" y="14.9" width="12.5" height="2.0" fill="#81E6D9" opacity="0.82" rx="1"/>
<rect x="218.8" y="18.3" width="18.7" height="2.0" fill="#81E6D9" opacity="0.83" rx="1"/>
<rect x="237.1" y="12.6" width="1.5" height="2.0" fill="#81E6D9" opacity="0.83" rx="1"/>
<rect x="236.8" y="10.3" width="12.5" height="2.0" fill="#81E6D9" opacity="0.80" rx="1"/>
<rect x="243.2" y="14.9" width="25.0" height="2.0" fill="#81E6D9" opacity="0.76" rx="1"/>
<rect x="174.5" y="20.6" width="100.0" height="2.0" fill="#81E6D9" opacity="0.81" rx="1"/>
<rect x="237.1" y="16.0" width="37.5" height="2.0" fill="#81E6D9" opacity="0.81" rx="1"/>
<rect x="275.1" y="32.0" width="37.5" height="2.0" fill="#81E6D9" opacity="0.84" rx="1"/>
<rect x="274.3" y="22.9" width="50.0" height="2.0" fill="#81E6D9" opacity="0.78" rx="1"/>
<rect x="275.0" y="14.9" width="50.0" height="2.0" fill="#81E6D9" opacity="0.80" rx="1"/>
<rect x="324.4" y="18.3" width="1.5" height="2.0" fill="#81E6D9" opacity="0.80" rx="1"/>
<rect x="324.3" y="10.3" width="1.5" height="2.0" fill="#81E6D9" opacity="0.84" rx="1"/>
<rect x="275.0" y="28.6" width="75.0" height="2.0" fill="#81E6D9" opacity="0.77" rx="1"/>
<rect x="325.5" y="22.9" width="25.0" height="2.0" fill="#81E6D9" opacity="0.81" rx="1"/>
<rect x="349.2" y="14.9" width="13.7" height="2.0" fill="#81E6D9" opacity="0.83" rx="1"/>
<rect x="349.4" y="10.3" width="25.0" height="2.0" fill="#81E6D9" opacity="0.79" rx="1"/>
<rect x="362.0" y="20.6" width="12.5" height="2.0" fill="#81E6D9" opacity="0.84" rx="1"/>
<rect x="274.6" y="12.6" width="100.0" height="2.0" fill="#81E6D9" opacity="0.82" rx="1"/>
<rect x="374.0" y="32.0" width="25.0" height="2.0" fill="#81E6D9" opacity="0.80" rx="1"/>
<rect x="374.7" y="14.9" width="24.6" height="2.0" fill="#81E6D9" opacity="0.78" rx="1"/>
<rect x="424.1" y="24.0" width="1.5" height="2.0" fill="#81E6D9" opacity="0.83" rx="1"/>
<rect x="431.1" y="24.0" width="1.5" height="2.0" fill="#81E6D9" opacity="0.83" rx="1"/>
<rect x="425.0" y="18.3" width="12.2" height="2.0" fill="#81E6D9" opacity="0.81" rx="1"/>
<rect x="425.1" y="26.3" width="12.5" height="2.0" fill="#81E6D9" opacity="0.79" rx="1"/>
<rect x="424.2" y="22.9" width="25.0" height="2.0" fill="#81E6D9" opacity="0.78" rx="1"/>
<rect x="424.5" y="20.6" width="25.0" height="2.0" fill="#81E6D9" opacity="0.75" rx="1"/>
<rect x="450.4" y="10.3" width="25.0" height="2.0" fill="#81E6D9" opacity="0.82" rx="1"/>
</svg>