<svg xmlns="http://www.w3.org/2000/svg" width="800" height="64" style="background:#0B1E26;border-radius:6px">
<rect x="149.2" y="14.9" width="12.5" height="2.0" fill="#4FD1C5" opacity="0.83" rx="1"/>
<rect x="199.9" y="24.0" width="50.0" height="2.0" fill="#4FD1C5" opacity="0.83" rx="1"/>
<rect x="175.1" y="20.6" width="100.0" height="2.0" fill="#4FD1C5" opacity="0.83" rx="1"/>
<rect x="175.6" y="22.9" width="100.0" height="2.0" fill="#4FD1C5" opacity="0.86" rx="1"/>
<rect x="274.8" y="18.3" width="1.6" height="2.0" fill="#4FD1C5" opacity="0.84" rx="1"/>
<rect x="275.1" y="14.9" width="1.6" height="2.0" fill="#4FD1C5" opacity="0.89" rx="1"/>
<rect x="225.5" y="16.0" width="75.0" height="2.0" fill="#4FD1C5" opacity="0.84" rx="1"/>
<rect x="325.6" y="20.6" width="1.6" height="2.0" fill="#4FD1C5" opacity="0.90" rx="1"/>
<rect x="275.5" y="9.1" width="75.0" height="2.0" fill="#4FD1C5" opacity="0.87" rx="1"/>
<rect x="325.6" y="18.3" width="25.0" height="2.0" fill="#4FD1C5" opacity="0.86" rx="1"/>
<rect x="349.8" y="22.9" width="1.5" height="2.0" fill="#4FD1C5" opacity="0.92" rx="1"/>
<rect x="350.4" y="20.6" width="1.6" height="2.0" fill="#4FD1C5" opacity="0.88" rx="1"/>
<rect x="274.5" y="10.3" width="100.0" height="2.0" fill="#4FD1C5" opacity="0.84" rx="1"/>
<rect x="374.3" y="12.6" width="1.5" height="2.0" fill="#4FD1C5" opacity="0.88" rx="1"/>
<rect x="375.0" y="24.0" width="1.6" height="2.0" fill="#4FD1C5" opacity="0.87" rx="1"/>
<rect x="399.4" y="20.6" width="1.6" height="2.0" fill="#4FD1C5" opacity="0.89" rx="1"/>
<rect x="431.7" y="24.0" width="1.5" height="2.0" fill="#4FD1C5" opacity="0.84" rx="1"/>
<rect x="425.2" y="20.6" width="12.5" height="2.0" fill="#4FD1C5" opacity="0.88" rx="1"/>
<rect x="425.5" y="26.3" width="25.0" height="2.0" fill="#4FD1C5" opacity="0.87" rx="1"/>
<rect x="449.4" y="16.0" width="1.6" height="2.0" fill="#4FD1C5" opacity="0.85" rx="1"/>
<rect x="374.9" y="9.1" width="100.0" height="2.0" fill="#4FD1C5" opacity="0.90" rx="1"/>
<rect x="425.3" y="18.3" width="50.0" height="2.0" fill="#4FD1C5" opacity="0.88" rx="1"/>
<rect x="425.7" y="14.9" width="50.0" height="2.0" fill="#4FD1C5" opacity="0.89" rx="1"/>
<rect x="400.8" y="4.6" width="75.0" height="2.0" fill="#4FD1C5" opacity="0.84" rx="1"/>
<rect x="475.6" y="10.3" width="12.5" height="2.0" fill="#4FD1C5" opacity="0.87" rx="1"/>
<rect x="500.7" y="18.3" width="1.6" height="2.0" fill="#4FD1C5" opacity="0.85" rx="1"/>
<rect x="519.1" y="16.0" width="12.5" height="2.0" fill="#4FD1C5" opacity="0.91" rx="1"/>
<rect x="537.7" y="14.9" width="25.0" height="2.0" fill="#4FD1C5" opacity="0.90" rx="1"/>
<rect x="555.9" y="18.3" width="18.8" height="2.0" fill="#4FD1C5" opacity="0.87" rx="1"/>
<rect x="575.3" y="10.3" width="12.5" height="2.0" fill="#4FD1C5" opacity="0.88" rx="1"/>
<rect x="599.4" y="18.3" width="12.5" height="2.0" fill="#4FD1C5" opacity="0.82" rx="1"/>
<rect x="613.3" y="14.9" width="12.5" height="2.0" fill="#4FD1C5" opacity="0.91" rx="1"/>
<rect x="619.4" y="12.6" width="31.3" height="2.0" fill="#4FD1C5" opacity="0.86" rx="1"/>
<rect x="650.7" y="9.1" width="25.0" height="2.0" fill="#4FD1C5" opacity="0.91" rx="1"/>
<rect x="712.1" y="20.6" width="6.3" height="2.0" fill="#4FD1C5" opacity="0.84" rx="1"/>
<rect x="730.6" y="12.6" width="6.3" height="2.0" fill="#4FD1C5" opacity="0.84" rx="1"/>
<rect x="757.1" y="20.6" width="3.1" height="2.0" fill="#4FD1C5" opacity="0.83" rx="1"/>
<rect x="793.4" y="22.9" width="6.3" height="2.0" fill="#4FD1C5" opacity="0.82" rx="1"/>
<rect x="787.5" y="10.3" width="12.5" height="2.0" fill="#4FD1C5" opacity="0.87" rx="1"/>
<rect x="99.3" y="42.3" width="3.1" height="2.0" fill="#F4C471" opacity="0.82" rx="1"/>
<rect x="101.3" y="43.4" width="3.1" height="2.0" fill="#F4C471" opacity="0.83" rx="1"/>
<rect x="103.9" y="45.7" width="1.6" height="2.0" fill="#F4C471" opacity="0.83" rx="1"/>
<rect x="104.0" y="50.3" width="1.6" height="2.0" fill="#F4C471" opacity="0.87" rx="1"/>
<rect x="105.4" y="51.4" width="3.1" height="2.0" fill="#F4C471" opacity="0.84" rx="1"/>
<rect x="106.4" y="56.0" width="3.1" height="2.0" fill="#F4C471" opacity="0.87" rx="1"/>
<rect x="108.4" y="57.1" width="3.1" height="2.0" fill="#F4C471" opacity="0.82" rx="1"/>
<rect x="109.8" y="59.4" width="3.1" height="2.0" fill="#F4C471" opacity="0.88" rx="1"/>
<rect x="116.8" y="59.4" width="1.6" height="2.0" fill="#F4C471" opacity="0.84" rx="1"/>
<rect x="118.6" y="51.4" width="1.5" height="2.0" fill="#F4C471" opacity="0.83" rx="1"/>
<rect x="117.4" y="56.0" width="1.6" height="2.0" fill="#F4C471" opacity="0.87" rx="1"/>
<rect x="118.7" y="57.1" width="1.6" height="2.0" fill="#F4C471" opacity="0.85" rx="1"/>
<rect x="119.9" y="56.0" width="1.6" height="2.0" fill="#F4C471" opacity="0.88" rx="1"/>
<rect x="120.3" y="57.1" width="1.6" height="2.0" fill="#F4C471" opacity="0.89" rx="1"/>
<rect x="121.7" y="50.3" width="1.6" height="2.0" fill="#F4C471" opacity="0.82" rx="1"/>
<rect x="121.1" y="59.4" width="3.1" height="2.0" fill="#F4C471" opacity="0.84" rx="1"/>
<rect x="123.7" y="56.0" width="1.6" height="2.0" fill="#F4C471" opacity="0.86" rx="1"/>
<rect x="123.8" y="45.7" width="1.6" height="2.0" fill="#F4C471" opacity="0.82" rx="1"/>
<rect x="123.8" y="57.1" width="1.6" height="2.0" fill="#F4C471" opacity="0.89" rx="1"/>
<rect x="174.9" y="34.3" width="25.0" height="2.0" fill="#F4C471" opacity="0.88" rx="1"/>
<rect x="174.9" y="43.4" width="75.0" height="2.0" fill="#F4C471" opacity="0.84" rx="1"/>
<rect x="250.1" y="43.4" width="12.5" height="2.0" fill="#F4C471" opacity="0.85" rx="1"/>
<rect x="174.5" y="28.6" width="100.0" height="2.0" fill="#F4C471" opacity="0.82" rx="1"/>
<rect x="174.9" y="42.3" width="100.0" height="2.0" fill="#F4C471" opacity="0.85" rx="1"/>
<rect x="175.0" y="32.0" width="100.0" height="2.0" fill="#F4C471" opacity="0.84" rx="1"/>
<rect x="175.5" y="26.3" width="100.0" height="2.0" fill="#F4C471" opacity="0.83" rx="1"/>
<rect x="175.6" y="45.7" width="100.0" height="2.0" fill="#F4C471" opacity="0.89" rx="1"/>
<rect x="287.1" y="42.3" width="12.5" height="2.0" fill="#F4C471" opacity="0.87" rx="1"/>
<rect x="275.0" y="40.0" width="100.0" height="2.0" fill="#F4C471" opacity="0.87" rx="1"/>
<rect x="375.0" y="28.6" width="12.5" height="2.0" fill="#F4C471" opacity="0.83" rx="1"/>
<rect x="375.6" y="29.7" width="23.4" height="2.0" fill="#F4C471" opacity="0.88" rx="1"/>
<rect x="375.2" y="32.0" width="25.0" height="2.0" fill="#F4C471" opacity="0.80" rx="1"/>
<rect x="424.6" y="26.3" width="12.5" height="2.0" fill="#F4C471" opacity="0.87" rx="1"/>
<rect x="112.4" y="16.0" width="12.5" height="2.0" fill="#81E6D9" opacity="0.81" rx="1"/>
<rect x="112.6" y="29.7" width="12.5" height="2.0" fill="#81E6D9" opacity="0.77" rx="1"/>
<rect x="125.5" y="26.3" width="12.5" height="2.0" fill="#81E6D9" opacity="0.75" rx="1"/>
<rect x="174.6" y="18.3" width="43.8" height="2.0" fill="#81E6D9" opacity="0.82" rx="1"/>
<rect x="224.9" y="14.9" width="1.5" height="2.0" fill="#81E6D9" opacity="0.83" rx="1"/>
<rect x="219.1" y="18.3" width="18.8" height="2.0" fill="#81E6D9" opacity="0.80" rx="1"/>
<rect x="236.7" y="12.6" width="1.6" height="2.0" fill="#81E6D9" opacity="0.81" rx="1"/>
<rect x="238.2" y="10.3" width="12.5" height="2.0" fill="#81E6D9" opacity="0.82" rx="1"/>
<rect x="243.6" y="14.9" width="25.0" height="2.0" fill="#81E6D9" opacity="0.79" rx="1"/>
<rect x="237.1" y="16.0" width="37.5" height="2.0" fill="#81E6D9" opacity="0.78" rx="1"/>
<rect x="175.6" y="20.6" width="100.0" height="2.0" fill="#81E6D9" opacity="0.83" rx="1"/>
<rect x="275.8" y="32.0" width="37.5" height="2.0" fill="#81E6D9" opacity="0.78" rx="1"/>
<rect x="274.4" y="14.9" width="50.0" height="2.0" fill="#81E6D9" opacity="0.83" rx="1"/>
<rect x="274.5" y="22.9" width="50.0" height="2.0" fill="#81E6D9" opacity="0.81" rx="1"/>
<rect x="324.9" y="18.3" width="1.6" height="2.0" fill="#81E6D9" opacity="0.79" rx="1"/>
<rect x="325.8" y="10.3" width="1.6" height="2.0" fill="#81E6D9" opacity="0.81" rx="1"/>
<rect x="275.0" y="28.6" width="75.0" height="2.0" fill="#81E6D9" opacity="0.81" rx="1"/>
<rect x="325.2" y="22.9" width="25.0" height="2.0" fill="#81E6D9" opacity="0.76" rx="1"/>
<rect x="350.3" y="14.9" width="14.1" height="2.0" fill="#81E6D9" opacity="0.77" rx="1"/>
<rect x="361.8" y="20.6" width="12.5" height="2.0" fill="#81E6D9" opacity="0.79" rx="1"/>
<rect x="349.7" y="10.3" width="25.0" height="2.0" fill="#81E6D9" opacity="0.77" rx="1"/>
<rect x="275.7" y="12.6" width="100.0" height="2.0" fill="#81E6D9" opacity="0.80" rx="1"/>
<rect x="374.5" y="14.9" width="25.0" height="2.0" fill="#81E6D9" opacity="0.77" rx="1"/>
<rect x="375.3" y="32.0" width="25.0" height="2.0" fill="#81E6D9" opacity="0.77" rx="1"/>
<rect x="425.4" y="24.0" width="1.6" height="2.0" fill="#81E6D9" opacity="0.79" rx="1"/>
<rect x="431.7" y="24.0" width="1.6" height="2.0" fill="#81E6D9" opacity="0.83" rx="1"/>
<rect x="424.7" y="26.3" width="12.5" height="2.0" fill="#81E6D9" opacity="0.79" rx="1"/>
<rect x="424.9" y="18.3" width="12.5" height="2.0" fill="#81E6D9" opacity="0.79" rx="1"/>
<rect x="425.0" y="22.9" width="25.0" height="2.0" fill="#81E6D9" opacity="0.78" rx="1"/>
<rect x="425.5" y="20.6" width="25.0" height="2.0" fill="#81E6D9" opacity="0.75" rx="1"/>
<rect x="450.5" y="10.3" width="25.0" height="2.0" fill="#81E6D9" opacity="0.83" rx="1"/>
</svg>