<svg xmlns="http://www.w3.org/2000/svg" width="800" height="64" style="background:#0B1E26;border-radius:6px">
<rect x="0.0" y="37.7" width="47.4" height="2.0" fill="#4FD1C5" opacity="0.93" rx="1"/>
<rect x="353.9" y="37.7" width="15.8" height="2.0" fill="#4FD1C5" opacity="0.94" rx="1"/>
<rect x="366.2" y="31.2" width="22.1" height="2.0" fill="#4FD1C5" opacity="0.93" rx="1"/>
<rect x="379.7" y="42.7" width="15.8" height="2.0" fill="#4FD1C5" opacity="0.92" rx="1"/>
<rect x="376.4" y="26.3" width="22.1" height="2.0" fill="#4FD1C5" opacity="0.93" rx="1"/>
<rect x="404.6" y="23.0" width="19.0" height="2.0" fill="#4FD1C5" opacity="0.95" rx="1"/>
<rect x="429.5" y="29.5" width="3.2" height="2.0" fill="#4FD1C5" opacity="0.96" rx="1"/>
<rect x="429.5" y="26.3" width="15.8" height="2.0" fill="#4FD1C5" opacity="0.93" rx="1"/>
<rect x="439.0" y="31.2" width="10.1" height="2.0" fill="#4FD1C5" opacity="0.93" rx="1"/>
<rect x="433.0" y="23.0" width="37.9" height="2.0" fill="#4FD1C5" opacity="0.95" rx="1"/>
<rect x="518.2" y="26.3" width="3.1" height="2.0" fill="#4FD1C5" opacity="0.94" rx="1"/>
<rect x="520.7" y="31.2" width="9.5" height="2.0" fill="#4FD1C5" opacity="0.94" rx="1"/>
<rect x="530.5" y="23.0" width="1.5" height="2.0" fill="#4FD1C5" opacity="0.93" rx="1"/>
<rect x="555.7" y="18.1" width="3.2" height="2.0" fill="#4FD1C5" opacity="0.96" rx="1"/>
<rect x="584.0" y="18.1" width="3.2" height="2.0" fill="#4FD1C5" opacity="0.94" rx="1"/>
<rect x="584.1" y="14.8" width="6.3" height="2.0" fill="#4FD1C5" opacity="0.93" rx="1"/>
<rect x="606.0" y="18.1" width="3.2" height="2.0" fill="#4FD1C5" opacity="0.95" rx="1"/>
<rect x="580.9" y="57.4" width="37.9" height="2.0" fill="#4FD1C5" opacity="0.93" rx="1"/>
<rect x="581.6" y="54.2" width="41.1" height="2.0" fill="#4FD1C5" opacity="0.94" rx="1"/>
<rect x="593.8" y="11.5" width="37.9" height="2.0" fill="#4FD1C5" opacity="0.95" rx="1"/>
<rect x="637.8" y="14.8" width="3.2" height="2.0" fill="#4FD1C5" opacity="0.95" rx="1"/>
<rect x="638.5" y="9.8" width="3.2" height="2.0" fill="#4FD1C5" opacity="0.92" rx="1"/>
<rect x="640.9" y="11.5" width="3.2" height="2.0" fill="#4FD1C5" opacity="0.96" rx="1"/>
<rect x="657.3" y="6.6" width="6.3" height="2.0" fill="#4FD1C5" opacity="0.91" rx="1"/>
<rect x="691.3" y="14.8" width="3.2" height="2.0" fill="#4FD1C5" opacity="0.95" rx="1"/>
<rect x="723.0" y="23.0" width="3.2" height="2.0" fill="#4FD1C5" opacity="0.95" rx="1"/>
<rect x="760.8" y="11.5" width="3.2" height="2.0" fill="#4FD1C5" opacity="0.95" rx="1"/>
<rect x="761.0" y="16.4" width="3.2" height="2.0" fill="#4FD1C5" opacity="0.93" rx="1"/>
<rect x="767.7" y="11.5" width="1.5" height="2.0" fill="#4FD1C5" opacity="0.96" rx="1"/>
<rect x="770.4" y="14.8" width="1.5" height="2.0" fill="#4FD1C5" opacity="0.93" rx="1"/>
<rect x="767.6" y="18.1" width="3.2" height="2.0" fill="#4FD1C5" opacity="0.96" rx="1"/>
<rect x="771.6" y="23.0" width="1.9" height="2.0" fill="#4FD1C5" opacity="0.94" rx="1"/>
<rect x="773.6" y="11.5" width="3.2" height="2.0" fill="#4FD1C5" opacity="0.95" rx="1"/>
<rect x="774.4" y="26.3" width="6.3" height="2.0" fill="#4FD1C5" opacity="0.94" rx="1"/>
<rect x="768.4" y="50.9" width="21.1" height="2.0" fill="#4FD1C5" opacity="0.93" rx="1"/>
<rect x="770.7" y="54.2" width="25.3" height="2.0" fill="#4FD1C5" opacity="0.96" rx="1"/>
<rect x="770.4" y="42.7" width="28.4" height="2.0" fill="#4FD1C5" opacity="0.92" rx="1"/>
</svg>