<svg xmlns="http://www.w3.org/2000/svg" width="800" height="64" style="background:#0B1E26;border-radius:6px">
<rect x="0.5" y="37.7" width="47.5" height="2.0" fill="#4FD1C5" opacity="0.94" rx="1"/>
<rect x="354.7" y="37.7" width="15.8" height="2.0" fill="#4FD1C5" opacity="0.91" rx="1"/>
<rect x="367.4" y="31.2" width="22.2" height="2.0" fill="#4FD1C5" opacity="0.90" rx="1"/>
<rect x="379.3" y="42.7" width="15.8" height="2.0" fill="#4FD1C5" opacity="0.93" rx="1"/>
<rect x="376.7" y="26.3" width="22.2" height="2.0" fill="#4FD1C5" opacity="0.94" rx="1"/>
<rect x="404.6" y="23.0" width="19.0" height="2.0" fill="#4FD1C5" opacity="0.95" rx="1"/>
<rect x="431.0" y="31.2" width="3.2" height="2.0" fill="#4FD1C5" opacity="0.95" rx="1"/>
<rect x="430.8" y="26.3" width="15.8" height="2.0" fill="#4FD1C5" opacity="0.93" rx="1"/>
<rect x="440.0" y="31.2" width="9.5" height="2.0" fill="#4FD1C5" opacity="0.93" rx="1"/>
<rect x="433.9" y="23.0" width="38.0" height="2.0" fill="#4FD1C5" opacity="0.91" rx="1"/>
<rect x="518.9" y="26.3" width="3.2" height="2.0" fill="#4FD1C5" opacity="0.93" rx="1"/>
<rect x="521.7" y="31.2" width="9.5" height="2.0" fill="#4FD1C5" opacity="0.94" rx="1"/>
<rect x="531.4" y="23.0" width="3.2" height="2.0" fill="#4FD1C5" opacity="0.92" rx="1"/>
<rect x="557.6" y="18.1" width="3.2" height="2.0" fill="#4FD1C5" opacity="0.95" rx="1"/>
<rect x="584.9" y="18.1" width="3.2" height="2.0" fill="#4FD1C5" opacity="0.95" rx="1"/>
<rect x="585.5" y="14.8" width="6.3" height="2.0" fill="#4FD1C5" opacity="0.93" rx="1"/>
<rect x="607.5" y="18.1" width="3.2" height="2.0" fill="#4FD1C5" opacity="0.91" rx="1"/>
<rect x="582.3" y="57.4" width="38.0" height="2.0" fill="#4FD1C5" opacity="0.95" rx="1"/>
<rect x="582.4" y="54.2" width="41.1" height="2.0" fill="#4FD1C5" opacity="0.95" rx="1"/>
<rect x="594.9" y="11.5" width="38.0" height="2.0" fill="#4FD1C5" opacity="0.94" rx="1"/>
<rect x="639.1" y="14.8" width="3.2" height="2.0" fill="#4FD1C5" opacity="0.95" rx="1"/>
<rect x="639.1" y="11.5" width="3.2" height="2.0" fill="#4FD1C5" opacity="0.94" rx="1"/>
<rect x="642.3" y="11.5" width="3.2" height="2.0" fill="#4FD1C5" opacity="0.94" rx="1"/>
<rect x="657.7" y="6.6" width="6.3" height="2.0" fill="#4FD1C5" opacity="0.94" rx="1"/>
<rect x="693.7" y="14.8" width="3.2" height="2.0" fill="#4FD1C5" opacity="0.92" rx="1"/>
<rect x="725.2" y="23.0" width="3.2" height="2.0" fill="#4FD1C5" opacity="0.94" rx="1"/>
<rect x="762.9" y="11.5" width="3.2" height="2.0" fill="#4FD1C5" opacity="0.94" rx="1"/>
<rect x="763.1" y="14.8" width="3.2" height="2.0" fill="#4FD1C5" opacity="0.93" rx="1"/>
<rect x="768.5" y="18.1" width="3.2" height="2.0" fill="#4FD1C5" opacity="0.94" rx="1"/>
<rect x="769.1" y="11.5" width="3.2" height="2.0" fill="#4FD1C5" opacity="0.91" rx="1"/>
<rect x="771.6" y="14.8" width="3.2" height="2.0" fill="#4FD1C5" opacity="0.93" rx="1"/>
<rect x="772.2" y="23.0" width="3.2" height="2.0" fill="#4FD1C5" opacity="0.91" rx="1"/>
<rect x="775.0" y="11.5" width="3.2" height="2.0" fill="#4FD1C5" opacity="0.94" rx="1"/>
<rect x="774.8" y="26.3" width="6.3" height="2.0" fill="#4FD1C5" opacity="0.94" rx="1"/>
<rect x="784.5" y="31.2" width="3.2" height="2.0" fill="#4FD1C5" opacity="0.94" rx="1"/>
<rect x="769.0" y="50.9" width="22.2" height="2.0" fill="#4FD1C5" opacity="0.95" rx="1"/>
<rect x="772.0" y="54.2" width="25.3" height="2.0" fill="#4FD1C5" opacity="0.95" rx="1"/>
<rect x="771.5" y="42.7" width="28.5" height="2.0" fill="#4FD1C5" opacity="0.93" rx="1"/>
</svg>