<svg xmlns="http://www.w3.org/2000/svg" width="800" height="64" style="background:#0B1E26;border-radius:6px">
<rect x="341.1" y="39.2" width="21.3" height="2.0" fill="#4FD1C5" opacity="1.00" rx="1"/>
<rect x="385.7" y="30.0" width="1.5" height="2.0" fill="#4FD1C5" opacity="0.99" rx="1"/>
<rect x="386.5" y="23.5" width="1.5" height="2.0" fill="#4FD1C5" opacity="0.99" rx="1"/>
<rect x="396.3" y="14.4" width="1.5" height="2.0" fill="#4FD1C5" opacity="1.00" rx="1"/>
<rect x="383.3" y="18.3" width="32.0" height="2.0" fill="#4FD1C5" opacity="0.93" rx="1"/>
<rect x="383.4" y="24.8" width="34.6" height="2.0" fill="#4FD1C5" opacity="0.95" rx="1"/>
<rect x="424.1" y="39.2" width="8.0" height="2.0" fill="#4FD1C5" opacity="0.92" rx="1"/>
<rect x="434.5" y="23.5" width="1.5" height="2.0" fill="#4FD1C5" opacity="0.98" rx="1"/>
<rect x="471.4" y="14.4" width="2.7" height="2.0" fill="#4FD1C5" opacity="1.00" rx="1"/>
<rect x="469.0" y="18.3" width="8.0" height="2.0" fill="#4FD1C5" opacity="1.00" rx="1"/>
<rect x="474.7" y="14.4" width="8.0" height="2.0" fill="#4FD1C5" opacity="0.94" rx="1"/>
<rect x="471.2" y="30.0" width="13.3" height="2.0" fill="#4FD1C5" opacity="1.00" rx="1"/>
<rect x="471.5" y="39.2" width="13.3" height="2.0" fill="#4FD1C5" opacity="0.97" rx="1"/>
<rect x="471.9" y="26.1" width="13.3" height="2.0" fill="#4FD1C5" opacity="0.98" rx="1"/>
<rect x="472.0" y="23.5" width="21.3" height="2.0" fill="#4FD1C5" opacity="1.00" rx="1"/>
<rect x="597.0" y="19.6" width="32.0" height="2.0" fill="#4FD1C5" opacity="0.89" rx="1"/>
<rect x="623.2" y="15.7" width="10.7" height="2.0" fill="#4FD1C5" opacity="0.97" rx="1"/>
<rect x="638.8" y="30.0" width="10.7" height="2.0" fill="#4FD1C5" opacity="0.95" rx="1"/>
<rect x="636.2" y="19.6" width="13.3" height="2.0" fill="#4FD1C5" opacity="1.00" rx="1"/>
<rect x="639.8" y="23.5" width="10.7" height="2.0" fill="#4FD1C5" opacity="0.99" rx="1"/>
<rect x="637.3" y="40.5" width="32.0" height="2.0" fill="#4FD1C5" opacity="0.98" rx="1"/>
<rect x="638.9" y="14.4" width="32.0" height="2.0" fill="#4FD1C5" opacity="0.92" rx="1"/>
<rect x="708.1" y="14.4" width="5.3" height="2.0" fill="#4FD1C5" opacity="0.97" rx="1"/>
<rect x="709.3" y="34.0" width="10.7" height="2.0" fill="#4FD1C5" opacity="0.96" rx="1"/>
<rect x="717.1" y="20.9" width="8.0" height="2.0" fill="#4FD1C5" opacity="0.92" rx="1"/>
<rect x="726.9" y="39.2" width="13.3" height="2.0" fill="#4FD1C5" opacity="0.93" rx="1"/>
<rect x="737.4" y="23.5" width="5.3" height="2.0" fill="#4FD1C5" opacity="0.93" rx="1"/>
<rect x="735.2" y="15.7" width="10.7" height="2.0" fill="#4FD1C5" opacity="0.95" rx="1"/>
<rect x="751.2" y="23.5" width="1.5" height="2.0" fill="#4FD1C5" opacity="0.99" rx="1"/>
<rect x="729.7" y="14.4" width="26.6" height="2.0" fill="#4FD1C5" opacity="0.94" rx="1"/>
<rect x="751.2" y="18.3" width="5.3" height="2.0" fill="#4FD1C5" opacity="0.95" rx="1"/>
<rect x="729.6" y="20.9" width="32.0" height="2.0" fill="#4FD1C5" opacity="0.99" rx="1"/>
<rect x="792.0" y="24.8" width="8.0" height="2.0" fill="#4FD1C5" opacity="0.94" rx="1"/>
<rect x="383.8" y="54.9" width="10.7" height="2.0" fill="#F4C471" opacity="0.93" rx="1"/>
<rect x="455.6" y="54.9" width="10.7" height="2.0" fill="#F4C471" opacity="0.95" rx="1"/>
<rect x="471.8" y="54.9" width="13.3" height="2.0" fill="#F4C471" opacity="0.95" rx="1"/>
<rect x="511.0" y="58.8" width="24.0" height="2.0" fill="#F4C471" opacity="0.93" rx="1"/>
<rect x="497.8" y="54.9" width="37.3" height="2.0" fill="#F4C471" opacity="0.89" rx="1"/>
<rect x="636.5" y="56.2" width="26.6" height="2.0" fill="#F4C471" opacity="0.94" rx="1"/>
<rect x="710.9" y="56.2" width="10.7" height="2.0" fill="#F4C471" opacity="0.91" rx="1"/>
<rect x="727.2" y="49.6" width="53.3" height="2.0" fill="#F4C471" opacity="0.93" rx="1"/>
<rect x="383.1" y="14.4" width="5.3" height="2.0" fill="#81E6D9" opacity="0.95" rx="1"/>
<rect x="383.7" y="18.3" width="5.3" height="2.0" fill="#81E6D9" opacity="1.00" rx="1"/>
<rect x="415.6" y="18.3" width="2.7" height="2.0" fill="#81E6D9" opacity="0.99" rx="1"/>
<rect x="389.3" y="14.4" width="29.3" height="2.0" fill="#81E6D9" opacity="1.00" rx="1"/>
<rect x="386.4" y="20.9" width="34.6" height="2.0" fill="#81E6D9" opacity="1.00" rx="1"/>
<rect x="425.8" y="7.8" width="45.3" height="2.0" fill="#81E6D9" opacity="0.96" rx="1"/>
<rect x="471.1" y="10.4" width="2.7" height="2.0" fill="#81E6D9" opacity="0.92" rx="1"/>
<rect x="426.7" y="23.5" width="50.6" height="2.0" fill="#81E6D9" opacity="0.98" rx="1"/>
<rect x="493.3" y="11.8" width="2.7" height="2.0" fill="#81E6D9" opacity="0.94" rx="1"/>
<rect x="554.1" y="14.4" width="10.7" height="2.0" fill="#81E6D9" opacity="1.00" rx="1"/>
<rect x="577.8" y="11.8" width="45.3" height="2.0" fill="#81E6D9" opacity="1.00" rx="1"/>
<rect x="634.7" y="9.1" width="13.3" height="2.0" fill="#81E6D9" opacity="1.00" rx="1"/>
<rect x="684.3" y="14.4" width="10.7" height="2.0" fill="#81E6D9" opacity="1.00" rx="1"/>
<rect x="710.7" y="14.4" width="13.3" height="2.0" fill="#81E6D9" opacity="1.00" rx="1"/>
<rect x="727.6" y="5.2" width="5.3" height="2.0" fill="#81E6D9" opacity="1.00" rx="1"/>
<rect x="748.3" y="14.4" width="1.5" height="2.0" fill="#81E6D9" opacity="0.97" rx="1"/>
<rect x="721.7" y="18.3" width="40.0" height="2.0" fill="#81E6D9" opacity="1.00" rx="1"/>
<rect x="724.9" y="15.7" width="45.3" height="2.0" fill="#81E6D9" opacity="1.00" rx="1"/>
<rect x="0.0" y="50.9" width="45.3" height="2.0" fill="#8AAABB" opacity="0.88" rx="1"/>
<rect x="85.3" y="50.9" width="40.0" height="2.0" fill="#8AAABB" opacity="0.88" rx="1"/>
<rect x="127.9" y="50.9" width="42.6" height="2.0" fill="#8AAABB" opacity="0.88" rx="1"/>
<rect x="170.5" y="50.9" width="40.0" height="2.0" fill="#8AAABB" opacity="0.87" rx="1"/>
<rect x="213.2" y="49.6" width="5.3" height="2.0" fill="#8AAABB" opacity="0.85" rx="1"/>
<rect x="213.2" y="39.2" width="37.3" height="2.0" fill="#8AAABB" opacity="0.99" rx="1"/>
<rect x="213.2" y="50.9" width="45.3" height="2.0" fill="#8AAABB" opacity="0.87" rx="1"/>
<rect x="255.8" y="49.6" width="2.7" height="2.0" fill="#8AAABB" opacity="0.90" rx="1"/>
<rect x="261.1" y="49.6" width="5.3" height="2.0" fill="#8AAABB" opacity="0.85" rx="1"/>
<rect x="266.5" y="49.6" width="2.7" height="2.0" fill="#8AAABB" opacity="0.88" rx="1"/>
<rect x="269.1" y="49.6" width="2.7" height="2.0" fill="#8AAABB" opacity="0.88" rx="1"/>
<rect x="271.8" y="49.6" width="2.7" height="2.0" fill="#8AAABB" opacity="0.88" rx="1"/>
<rect x="269.1" y="52.2" width="8.0" height="2.0" fill="#8AAABB" opacity="0.88" rx="1"/>
<rect x="271.8" y="40.5" width="8.0" height="2.0" fill="#8AAABB" opacity="0.93" rx="1"/>
<rect x="277.1" y="49.6" width="2.7" height="2.0" fill="#8AAABB" opacity="0.86" rx="1"/>
<rect x="285.1" y="49.6" width="8.0" height="2.0" fill="#8AAABB" opacity="0.94" rx="1"/>
<rect x="285.1" y="52.2" width="8.0" height="2.0" fill="#8AAABB" opacity="0.87" rx="1"/>
<rect x="298.4" y="52.2" width="5.3" height="2.0" fill="#8AAABB" opacity="0.87" rx="1"/>
<rect x="327.7" y="39.2" width="8.0" height="2.0" fill="#8AAABB" opacity="0.98" rx="1"/>
</svg>