<svg xmlns="http://www.w3.org/2000/svg" width="800" height="64" style="background:#0B1E26;border-radius:6px">
<rect x="212.5" y="39.2" width="13.3" height="2.0" fill="#4FD1C5" opacity="0.98" rx="1"/>
<rect x="240.8" y="23.5" width="1.7" height="2.0" fill="#4FD1C5" opacity="0.97" rx="1"/>
<rect x="241.0" y="30.0" width="1.7" height="2.0" fill="#4FD1C5" opacity="0.99" rx="1"/>
<rect x="247.1" y="14.4" width="1.7" height="2.0" fill="#4FD1C5" opacity="1.00" rx="1"/>
<rect x="238.5" y="18.3" width="19.9" height="2.0" fill="#4FD1C5" opacity="0.95" rx="1"/>
<rect x="239.2" y="24.8" width="21.6" height="2.0" fill="#4FD1C5" opacity="0.98" rx="1"/>
<rect x="263.8" y="39.2" width="5.0" height="2.0" fill="#4FD1C5" opacity="0.89" rx="1"/>
<rect x="270.7" y="23.5" width="1.7" height="2.0" fill="#4FD1C5" opacity="1.00" rx="1"/>
<rect x="294.9" y="14.4" width="1.5" height="2.0" fill="#4FD1C5" opacity="0.93" rx="1"/>
<rect x="291.9" y="18.3" width="5.0" height="2.0" fill="#4FD1C5" opacity="0.99" rx="1"/>
<rect x="293.5" y="30.0" width="8.3" height="2.0" fill="#4FD1C5" opacity="1.00" rx="1"/>
<rect x="293.5" y="24.8" width="8.3" height="2.0" fill="#4FD1C5" opacity="0.97" rx="1"/>
<rect x="293.8" y="39.2" width="8.3" height="2.0" fill="#4FD1C5" opacity="0.98" rx="1"/>
<rect x="293.9" y="23.5" width="13.3" height="2.0" fill="#4FD1C5" opacity="1.00" rx="1"/>
<rect x="371.8" y="19.6" width="19.9" height="2.0" fill="#4FD1C5" opacity="0.88" rx="1"/>
<rect x="388.3" y="15.7" width="6.6" height="2.0" fill="#4FD1C5" opacity="0.95" rx="1"/>
<rect x="398.0" y="30.0" width="6.6" height="2.0" fill="#4FD1C5" opacity="0.95" rx="1"/>
<rect x="396.7" y="19.6" width="8.3" height="2.0" fill="#4FD1C5" opacity="0.99" rx="1"/>
<rect x="398.5" y="23.5" width="6.6" height="2.0" fill="#4FD1C5" opacity="0.98" rx="1"/>
<rect x="397.9" y="14.4" width="19.9" height="2.0" fill="#4FD1C5" opacity="0.91" rx="1"/>
<rect x="441.1" y="14.4" width="3.3" height="2.0" fill="#4FD1C5" opacity="0.96" rx="1"/>
<rect x="441.6" y="34.0" width="6.6" height="2.0" fill="#4FD1C5" opacity="0.98" rx="1"/>
<rect x="446.3" y="20.9" width="5.0" height="2.0" fill="#4FD1C5" opacity="0.94" rx="1"/>
<rect x="453.0" y="39.2" width="8.3" height="2.0" fill="#4FD1C5" opacity="0.92" rx="1"/>
<rect x="459.5" y="23.5" width="3.3" height="2.0" fill="#4FD1C5" opacity="0.96" rx="1"/>
<rect x="457.7" y="15.7" width="6.6" height="2.0" fill="#4FD1C5" opacity="0.94" rx="1"/>
<rect x="468.0" y="23.5" width="1.7" height="2.0" fill="#4FD1C5" opacity="0.97" rx="1"/>
<rect x="467.8" y="18.3" width="3.3" height="2.0" fill="#4FD1C5" opacity="0.97" rx="1"/>
<rect x="454.8" y="14.4" width="16.6" height="2.0" fill="#4FD1C5" opacity="0.96" rx="1"/>
<rect x="454.1" y="20.9" width="19.9" height="2.0" fill="#4FD1C5" opacity="1.00" rx="1"/>
<rect x="492.3" y="20.9" width="5.0" height="2.0" fill="#4FD1C5" opacity="0.96" rx="1"/>
<rect x="492.4" y="24.8" width="5.0" height="2.0" fill="#4FD1C5" opacity="0.93" rx="1"/>
<rect x="520.7" y="23.5" width="3.3" height="2.0" fill="#4FD1C5" opacity="0.94" rx="1"/>
<rect x="520.8" y="20.9" width="5.0" height="2.0" fill="#4FD1C5" opacity="0.95" rx="1"/>
<rect x="521.2" y="24.8" width="5.0" height="2.0" fill="#4FD1C5" opacity="1.00" rx="1"/>
<rect x="522.6" y="34.0" width="5.0" height="2.0" fill="#4FD1C5" opacity="0.93" rx="1"/>
<rect x="549.5" y="15.7" width="6.6" height="2.0" fill="#4FD1C5" opacity="0.98" rx="1"/>
<rect x="574.3" y="31.3" width="1.7" height="2.0" fill="#4FD1C5" opacity="0.99" rx="1"/>
<rect x="575.2" y="30.0" width="6.6" height="2.0" fill="#4FD1C5" opacity="1.00" rx="1"/>
<rect x="575.2" y="27.4" width="6.6" height="2.0" fill="#4FD1C5" opacity="0.99" rx="1"/>
<rect x="575.7" y="14.4" width="6.6" height="2.0" fill="#4FD1C5" opacity="1.00" rx="1"/>
<rect x="575.8" y="11.8" width="6.6" height="2.0" fill="#4FD1C5" opacity="0.98" rx="1"/>
<rect x="585.5" y="15.7" width="1.7" height="2.0" fill="#4FD1C5" opacity="0.99" rx="1"/>
<rect x="585.2" y="20.9" width="5.0" height="2.0" fill="#4FD1C5" opacity="1.00" rx="1"/>
<rect x="594.1" y="20.9" width="1.5" height="2.0" fill="#4FD1C5" opacity="0.96" rx="1"/>
<rect x="600.6" y="15.7" width="1.7" height="2.0" fill="#4FD1C5" opacity="0.96" rx="1"/>
<rect x="593.8" y="9.1" width="10.0" height="2.0" fill="#4FD1C5" opacity="0.97" rx="1"/>
<rect x="602.5" y="15.7" width="3.3" height="2.0" fill="#4FD1C5" opacity="1.00" rx="1"/>
<rect x="630.0" y="18.3" width="1.8" height="2.0" fill="#4FD1C5" opacity="0.95" rx="1"/>
<rect x="628.7" y="9.1" width="5.0" height="2.0" fill="#4FD1C5" opacity="1.00" rx="1"/>
<rect x="628.9" y="23.5" width="6.6" height="2.0" fill="#4FD1C5" opacity="0.98" rx="1"/>
<rect x="630.8" y="24.8" width="6.6" height="2.0" fill="#4FD1C5" opacity="0.95" rx="1"/>
<rect x="658.7" y="14.4" width="1.7" height="2.0" fill="#4FD1C5" opacity="0.97" rx="1"/>
<rect x="658.7" y="23.5" width="6.6" height="2.0" fill="#4FD1C5" opacity="0.95" rx="1"/>
<rect x="660.2" y="30.0" width="14.9" height="2.0" fill="#4FD1C5" opacity="0.98" rx="1"/>
<rect x="663.7" y="14.4" width="11.6" height="2.0" fill="#4FD1C5" opacity="0.98" rx="1"/>
<rect x="686.6" y="14.4" width="6.6" height="2.0" fill="#4FD1C5" opacity="0.93" rx="1"/>
<rect x="746.1" y="19.6" width="3.3" height="2.0" fill="#4FD1C5" opacity="1.00" rx="1"/>
<rect x="740.1" y="39.2" width="10.0" height="2.0" fill="#4FD1C5" opacity="0.96" rx="1"/>
<rect x="750.0" y="15.7" width="1.5" height="2.0" fill="#4FD1C5" opacity="0.97" rx="1"/>
<rect x="749.6" y="19.6" width="1.7" height="2.0" fill="#4FD1C5" opacity="0.96" rx="1"/>
<rect x="752.8" y="15.7" width="1.5" height="2.0" fill="#4FD1C5" opacity="1.00" rx="1"/>
<rect x="748.6" y="27.4" width="6.6" height="2.0" fill="#4FD1C5" opacity="0.95" rx="1"/>
<rect x="756.0" y="15.7" width="1.5" height="2.0" fill="#4FD1C5" opacity="0.98" rx="1"/>
<rect x="756.5" y="19.6" width="1.5" height="2.0" fill="#4FD1C5" opacity="0.95" rx="1"/>
<rect x="753.4" y="35.3" width="5.0" height="2.0" fill="#4FD1C5" opacity="0.95" rx="1"/>
<rect x="754.5" y="11.8" width="6.6" height="2.0" fill="#4FD1C5" opacity="0.98" rx="1"/>
<rect x="764.3" y="15.7" width="1.5" height="2.0" fill="#4FD1C5" opacity="0.93" rx="1"/>
<rect x="761.2" y="24.8" width="6.6" height="2.0" fill="#4FD1C5" opacity="0.91" rx="1"/>
<rect x="761.7" y="19.6" width="13.3" height="2.0" fill="#4FD1C5" opacity="0.94" rx="1"/>
<rect x="769.6" y="36.6" width="11.6" height="2.0" fill="#4FD1C5" opacity="0.94" rx="1"/>
<rect x="789.6" y="15.7" width="3.3" height="2.0" fill="#4FD1C5" opacity="0.91" rx="1"/>
<rect x="798.3" y="24.8" width="1.7" height="2.0" fill="#4FD1C5" opacity="1.00" rx="1"/>
<rect x="239.0" y="54.9" width="6.6" height="2.0" fill="#F4C471" opacity="0.91" rx="1"/>
<rect x="283.5" y="54.9" width="6.6" height="2.0" fill="#F4C471" opacity="0.95" rx="1"/>
<rect x="293.2" y="54.9" width="8.3" height="2.0" fill="#F4C471" opacity="0.93" rx="1"/>
<rect x="309.8" y="54.9" width="23.2" height="2.0" fill="#F4C471" opacity="0.88" rx="1"/>
<rect x="318.6" y="58.8" width="14.9" height="2.0" fill="#F4C471" opacity="0.95" rx="1"/>
<rect x="396.4" y="56.2" width="16.6" height="2.0" fill="#F4C471" opacity="0.94" rx="1"/>
<rect x="442.6" y="56.2" width="6.6" height="2.0" fill="#F4C471" opacity="0.94" rx="1"/>
<rect x="452.6" y="49.6" width="33.2" height="2.0" fill="#F4C471" opacity="0.95" rx="1"/>
<rect x="585.7" y="56.2" width="11.6" height="2.0" fill="#F4C471" opacity="0.94" rx="1"/>
<rect x="611.8" y="58.8" width="10.0" height="2.0" fill="#F4C471" opacity="0.95" rx="1"/>
<rect x="238.7" y="14.4" width="3.3" height="2.0" fill="#81E6D9" opacity="0.94" rx="1"/>
<rect x="238.7" y="18.3" width="3.3" height="2.0" fill="#81E6D9" opacity="1.00" rx="1"/>
<rect x="258.6" y="18.3" width="1.7" height="2.0" fill="#81E6D9" opacity="1.00" rx="1"/>
<rect x="242.5" y="14.4" width="18.2" height="2.0" fill="#81E6D9" opacity="1.00" rx="1"/>
<rect x="241.0" y="20.9" width="21.6" height="2.0" fill="#81E6D9" opacity="0.97" rx="1"/>
<rect x="265.5" y="7.8" width="28.2" height="2.0" fill="#81E6D9" opacity="0.94" rx="1"/>
<rect x="293.2" y="9.1" width="1.7" height="2.0" fill="#81E6D9" opacity="0.90" rx="1"/>
<rect x="265.6" y="23.5" width="31.5" height="2.0" fill="#81E6D9" opacity="0.97" rx="1"/>
<rect x="307.1" y="11.8" width="1.7" height="2.0" fill="#81E6D9" opacity="0.93" rx="1"/>
<rect x="344.7" y="14.4" width="6.6" height="2.0" fill="#81E6D9" opacity="0.99" rx="1"/>
<rect x="360.4" y="11.8" width="28.2" height="2.0" fill="#81E6D9" opacity="1.00" rx="1"/>
<rect x="394.4" y="9.1" width="8.3" height="2.0" fill="#81E6D9" opacity="1.00" rx="1"/>
<rect x="426.5" y="14.4" width="6.6" height="2.0" fill="#81E6D9" opacity="1.00" rx="1"/>
<rect x="443.2" y="14.4" width="8.3" height="2.0" fill="#81E6D9" opacity="1.00" rx="1"/>
<rect x="452.5" y="5.2" width="3.3" height="2.0" fill="#81E6D9" opacity="0.98" rx="1"/>
<rect x="465.7" y="14.4" width="1.7" height="2.0" fill="#81E6D9" opacity="0.99" rx="1"/>
<rect x="449.2" y="18.3" width="24.9" height="2.0" fill="#81E6D9" opacity="1.00" rx="1"/>
<rect x="451.5" y="15.7" width="28.2" height="2.0" fill="#81E6D9" opacity="1.00" rx="1"/>
<rect x="493.9" y="14.4" width="1.7" height="2.0" fill="#81E6D9" opacity="0.96" rx="1"/>
<rect x="492.9" y="18.3" width="8.3" height="2.0" fill="#81E6D9" opacity="1.00" rx="1"/>
<rect x="504.7" y="15.7" width="18.2" height="2.0" fill="#81E6D9" opacity="0.98" rx="1"/>
<rect x="522.3" y="11.8" width="1.5" height="2.0" fill="#81E6D9" opacity="0.94" rx="1"/>
<rect x="521.0" y="14.4" width="6.6" height="2.0" fill="#81E6D9" opacity="0.98" rx="1"/>
<rect x="523.0" y="15.7" width="5.0" height="2.0" fill="#81E6D9" opacity="0.98" rx="1"/>
<rect x="528.0" y="15.7" width="1.7" height="2.0" fill="#81E6D9" opacity="0.97" rx="1"/>
<rect x="539.1" y="11.8" width="1.7" height="2.0" fill="#81E6D9" opacity="1.00" rx="1"/>
<rect x="575.9" y="14.4" width="6.6" height="2.0" fill="#81E6D9" opacity="0.93" rx="1"/>
<rect x="585.2" y="20.9" width="1.7" height="2.0" fill="#81E6D9" opacity="1.00" rx="1"/>
<rect x="582.4" y="30.0" width="5.0" height="2.0" fill="#81E6D9" opacity="1.00" rx="1"/>
<rect x="586.0" y="15.7" width="6.5" height="2.0" fill="#81E6D9" opacity="1.00" rx="1"/>
<rect x="594.2" y="27.4" width="1.7" height="2.0" fill="#81E6D9" opacity="1.00" rx="1"/>
<rect x="593.9" y="20.9" width="3.3" height="2.0" fill="#81E6D9" opacity="0.99" rx="1"/>
<rect x="597.3" y="20.9" width="3.3" height="2.0" fill="#81E6D9" opacity="1.00" rx="1"/>
<rect x="585.5" y="5.2" width="18.2" height="2.0" fill="#81E6D9" opacity="1.00" rx="1"/>
<rect x="586.8" y="24.8" width="19.9" height="2.0" fill="#81E6D9" opacity="1.00" rx="1"/>
<rect x="629.0" y="20.9" width="6.6" height="2.0" fill="#81E6D9" opacity="1.00" rx="1"/>
<rect x="638.7" y="23.5" width="18.2" height="2.0" fill="#81E6D9" opacity="0.98" rx="1"/>
<rect x="658.9" y="30.0" width="1.7" height="2.0" fill="#81E6D9" opacity="0.95" rx="1"/>
<rect x="690.0" y="14.4" width="1.5" height="2.0" fill="#81E6D9" opacity="1.00" rx="1"/>
<rect x="720.3" y="18.3" width="3.3" height="2.0" fill="#81E6D9" opacity="1.00" rx="1"/>
<rect x="747.9" y="19.6" width="1.5" height="2.0" fill="#81E6D9" opacity="0.98" rx="1"/>
<rect x="748.5" y="19.6" width="1.5" height="2.0" fill="#81E6D9" opacity="0.95" rx="1"/>
<rect x="754.5" y="15.7" width="1.5" height="2.0" fill="#81E6D9" opacity="1.00" rx="1"/>
<rect x="748.1" y="24.8" width="10.0" height="2.0" fill="#81E6D9" opacity="0.94" rx="1"/>
<rect x="755.0" y="27.4" width="3.3" height="2.0" fill="#81E6D9" opacity="0.94" rx="1"/>
<rect x="756.3" y="19.6" width="3.3" height="2.0" fill="#81E6D9" opacity="0.95" rx="1"/>
<rect x="761.2" y="15.7" width="1.5" height="2.0" fill="#81E6D9" opacity="0.98" rx="1"/>
<rect x="761.6" y="15.7" width="1.5" height="2.0" fill="#81E6D9" opacity="0.98" rx="1"/>
<rect x="758.5" y="24.8" width="6.6" height="2.0" fill="#81E6D9" opacity="0.94" rx="1"/>
<rect x="762.8" y="19.6" width="3.3" height="2.0" fill="#81E6D9" opacity="0.94" rx="1"/>
<rect x="791.3" y="23.5" width="3.3" height="2.0" fill="#81E6D9" opacity="0.96" rx="1"/>
<rect x="0.0" y="50.9" width="28.2" height="2.0" fill="#8AAABB" opacity="0.88" rx="1"/>
<rect x="53.1" y="50.9" width="24.9" height="2.0" fill="#8AAABB" opacity="0.90" rx="1"/>
<rect x="79.6" y="50.9" width="26.5" height="2.0" fill="#8AAABB" opacity="0.87" rx="1"/>
<rect x="106.2" y="50.9" width="24.9" height="2.0" fill="#8AAABB" opacity="0.86" rx="1"/>
<rect x="132.7" y="49.6" width="3.3" height="2.0" fill="#8AAABB" opacity="0.84" rx="1"/>
<rect x="132.7" y="39.2" width="23.2" height="2.0" fill="#8AAABB" opacity="1.00" rx="1"/>
<rect x="132.7" y="50.9" width="28.2" height="2.0" fill="#8AAABB" opacity="0.87" rx="1"/>
<rect x="159.2" y="49.6" width="1.7" height="2.0" fill="#8AAABB" opacity="0.88" rx="1"/>
<rect x="162.6" y="49.6" width="3.3" height="2.0" fill="#8AAABB" opacity="0.85" rx="1"/>
<rect x="165.9" y="49.6" width="1.7" height="2.0" fill="#8AAABB" opacity="0.89" rx="1"/>
<rect x="167.5" y="49.6" width="1.7" height="2.0" fill="#8AAABB" opacity="0.89" rx="1"/>
<rect x="169.2" y="49.6" width="1.7" height="2.0" fill="#8AAABB" opacity="0.88" rx="1"/>
<rect x="167.5" y="52.2" width="5.0" height="2.0" fill="#8AAABB" opacity="0.87" rx="1"/>
<rect x="169.2" y="40.5" width="5.0" height="2.0" fill="#8AAABB" opacity="0.94" rx="1"/>
<rect x="172.5" y="49.6" width="1.7" height="2.0" fill="#8AAABB" opacity="0.87" rx="1"/>
<rect x="177.5" y="49.6" width="5.0" height="2.0" fill="#8AAABB" opacity="0.94" rx="1"/>
<rect x="177.5" y="52.2" width="5.0" height="2.0" fill="#8AAABB" opacity="0.88" rx="1"/>
<rect x="185.8" y="52.2" width="3.3" height="2.0" fill="#8AAABB" opacity="0.88" rx="1"/>
<rect x="204.0" y="39.2" width="5.0" height="2.0" fill="#8AAABB" opacity="0.98" rx="1"/>
</svg>