<svg xmlns="http://www.w3.org/2000/svg" width="800" height="64" style="background:#0B1E26;border-radius:6px">
<rect x="200.3" y="39.2" width="12.5" height="2.0" fill="#4FD1C5" opacity="0.97" rx="1"/>
<rect x="226.6" y="30.0" width="1.6" height="2.0" fill="#4FD1C5" opacity="0.98" rx="1"/>
<rect x="227.4" y="23.5" width="1.6" height="2.0" fill="#4FD1C5" opacity="0.94" rx="1"/>
<rect x="232.9" y="14.4" width="1.6" height="2.0" fill="#4FD1C5" opacity="1.00" rx="1"/>
<rect x="225.7" y="18.3" width="18.8" height="2.0" fill="#4FD1C5" opacity="0.96" rx="1"/>
<rect x="225.4" y="24.8" width="20.3" height="2.0" fill="#4FD1C5" opacity="1.00" rx="1"/>
<rect x="249.0" y="39.2" width="4.7" height="2.0" fill="#4FD1C5" opacity="0.87" rx="1"/>
<rect x="254.9" y="23.5" width="1.6" height="2.0" fill="#4FD1C5" opacity="1.00" rx="1"/>
<rect x="278.6" y="14.4" width="1.6" height="2.0" fill="#4FD1C5" opacity="0.91" rx="1"/>
<rect x="275.7" y="18.3" width="4.7" height="2.0" fill="#4FD1C5" opacity="1.00" rx="1"/>
<rect x="276.8" y="24.8" width="7.8" height="2.0" fill="#4FD1C5" opacity="0.95" rx="1"/>
<rect x="276.8" y="39.2" width="7.8" height="2.0" fill="#4FD1C5" opacity="0.96" rx="1"/>
<rect x="277.3" y="30.0" width="7.8" height="2.0" fill="#4FD1C5" opacity="1.00" rx="1"/>
<rect x="276.9" y="23.5" width="12.5" height="2.0" fill="#4FD1C5" opacity="1.00" rx="1"/>
<rect x="350.5" y="19.6" width="18.8" height="2.0" fill="#4FD1C5" opacity="0.90" rx="1"/>
<rect x="365.9" y="15.7" width="6.3" height="2.0" fill="#4FD1C5" opacity="0.93" rx="1"/>
<rect x="375.4" y="30.0" width="6.3" height="2.0" fill="#4FD1C5" opacity="0.93" rx="1"/>
<rect x="374.0" y="19.6" width="7.8" height="2.0" fill="#4FD1C5" opacity="0.99" rx="1"/>
<rect x="375.6" y="23.5" width="6.3" height="2.0" fill="#4FD1C5" opacity="0.99" rx="1"/>
<rect x="375.9" y="14.4" width="18.8" height="2.0" fill="#4FD1C5" opacity="0.94" rx="1"/>
<rect x="416.6" y="14.4" width="3.1" height="2.0" fill="#4FD1C5" opacity="0.95" rx="1"/>
<rect x="416.6" y="34.0" width="6.3" height="2.0" fill="#4FD1C5" opacity="0.98" rx="1"/>
<rect x="421.2" y="20.9" width="4.7" height="2.0" fill="#4FD1C5" opacity="0.93" rx="1"/>
<rect x="426.9" y="39.2" width="7.8" height="2.0" fill="#4FD1C5" opacity="0.95" rx="1"/>
<rect x="433.2" y="23.5" width="3.1" height="2.0" fill="#4FD1C5" opacity="0.95" rx="1"/>
<rect x="431.7" y="15.7" width="6.3" height="2.0" fill="#4FD1C5" opacity="0.95" rx="1"/>
<rect x="441.3" y="23.5" width="1.6" height="2.0" fill="#4FD1C5" opacity="0.98" rx="1"/>
<rect x="429.0" y="14.4" width="15.7" height="2.0" fill="#4FD1C5" opacity="0.95" rx="1"/>
<rect x="441.7" y="18.3" width="3.1" height="2.0" fill="#4FD1C5" opacity="0.96" rx="1"/>
<rect x="428.7" y="20.9" width="18.8" height="2.0" fill="#4FD1C5" opacity="0.98" rx="1"/>
<rect x="464.7" y="24.8" width="4.7" height="2.0" fill="#4FD1C5" opacity="0.93" rx="1"/>
<rect x="465.1" y="20.9" width="4.7" height="2.0" fill="#4FD1C5" opacity="0.99" rx="1"/>
<rect x="491.9" y="23.5" width="3.1" height="2.0" fill="#4FD1C5" opacity="0.96" rx="1"/>
<rect x="491.0" y="24.8" width="4.7" height="2.0" fill="#4FD1C5" opacity="1.00" rx="1"/>
<rect x="491.7" y="20.9" width="4.7" height="2.0" fill="#4FD1C5" opacity="0.95" rx="1"/>
<rect x="493.2" y="34.0" width="4.7" height="2.0" fill="#4FD1C5" opacity="0.93" rx="1"/>
<rect x="518.3" y="15.7" width="6.3" height="2.0" fill="#4FD1C5" opacity="0.99" rx="1"/>
<rect x="541.2" y="31.3" width="1.6" height="2.0" fill="#4FD1C5" opacity="1.00" rx="1"/>
<rect x="542.8" y="11.8" width="6.3" height="2.0" fill="#4FD1C5" opacity="0.98" rx="1"/>
<rect x="543.0" y="14.4" width="6.3" height="2.0" fill="#4FD1C5" opacity="1.00" rx="1"/>
<rect x="543.2" y="30.0" width="6.3" height="2.0" fill="#4FD1C5" opacity="0.98" rx="1"/>
<rect x="543.5" y="27.4" width="6.3" height="2.0" fill="#4FD1C5" opacity="1.00" rx="1"/>
<rect x="552.9" y="15.7" width="1.6" height="2.0" fill="#4FD1C5" opacity="1.00" rx="1"/>
<rect x="552.1" y="20.9" width="4.7" height="2.0" fill="#4FD1C5" opacity="1.00" rx="1"/>
<rect x="560.6" y="20.9" width="1.6" height="2.0" fill="#4FD1C5" opacity="0.99" rx="1"/>
<rect x="566.6" y="15.7" width="1.6" height="2.0" fill="#4FD1C5" opacity="0.94" rx="1"/>
<rect x="560.5" y="9.1" width="9.4" height="2.0" fill="#4FD1C5" opacity="1.00" rx="1"/>
<rect x="568.6" y="15.7" width="3.1" height="2.0" fill="#4FD1C5" opacity="0.98" rx="1"/>
<rect x="594.8" y="18.3" width="1.6" height="2.0" fill="#4FD1C5" opacity="0.97" rx="1"/>
<rect x="593.5" y="9.1" width="4.7" height="2.0" fill="#4FD1C5" opacity="1.00" rx="1"/>
<rect x="593.3" y="23.5" width="6.3" height="2.0" fill="#4FD1C5" opacity="1.00" rx="1"/>
<rect x="595.1" y="24.8" width="6.3" height="2.0" fill="#4FD1C5" opacity="0.99" rx="1"/>
<rect x="621.5" y="14.4" width="1.6" height="2.0" fill="#4FD1C5" opacity="0.99" rx="1"/>
<rect x="621.1" y="23.5" width="6.3" height="2.0" fill="#4FD1C5" opacity="0.94" rx="1"/>
<rect x="626.1" y="14.4" width="11.0" height="2.0" fill="#4FD1C5" opacity="1.00" rx="1"/>
<rect x="623.1" y="30.0" width="14.1" height="2.0" fill="#4FD1C5" opacity="1.00" rx="1"/>
<rect x="647.8" y="14.4" width="6.3" height="2.0" fill="#4FD1C5" opacity="0.94" rx="1"/>
<rect x="707.0" y="19.6" width="1.5" height="2.0" fill="#4FD1C5" opacity="0.96" rx="1"/>
<rect x="698.3" y="39.2" width="9.4" height="2.0" fill="#4FD1C5" opacity="0.97" rx="1"/>
<rect x="707.6" y="15.7" width="1.6" height="2.0" fill="#4FD1C5" opacity="1.00" rx="1"/>
<rect x="710.4" y="15.7" width="1.6" height="2.0" fill="#4FD1C5" opacity="0.98" rx="1"/>
<rect x="706.0" y="27.4" width="6.3" height="2.0" fill="#4FD1C5" opacity="0.98" rx="1"/>
<rect x="713.3" y="19.6" width="1.6" height="2.0" fill="#4FD1C5" opacity="0.94" rx="1"/>
<rect x="710.2" y="35.3" width="4.7" height="2.0" fill="#4FD1C5" opacity="0.97" rx="1"/>
<rect x="713.4" y="15.7" width="1.6" height="2.0" fill="#4FD1C5" opacity="0.98" rx="1"/>
<rect x="712.3" y="11.8" width="6.3" height="2.0" fill="#4FD1C5" opacity="0.99" rx="1"/>
<rect x="721.8" y="15.7" width="1.6" height="2.0" fill="#4FD1C5" opacity="0.93" rx="1"/>
<rect x="718.3" y="24.8" width="6.3" height="2.0" fill="#4FD1C5" opacity="0.94" rx="1"/>
<rect x="718.2" y="19.6" width="12.5" height="2.0" fill="#4FD1C5" opacity="0.91" rx="1"/>
<rect x="726.0" y="36.6" width="11.0" height="2.0" fill="#4FD1C5" opacity="0.95" rx="1"/>
<rect x="745.3" y="15.7" width="3.1" height="2.0" fill="#4FD1C5" opacity="0.90" rx="1"/>
<rect x="753.3" y="15.7" width="1.6" height="2.0" fill="#4FD1C5" opacity="0.98" rx="1"/>
<rect x="768.3" y="24.8" width="1.5" height="2.0" fill="#4FD1C5" opacity="0.96" rx="1"/>
<rect x="768.1" y="11.8" width="4.7" height="2.0" fill="#4FD1C5" opacity="1.00" rx="1"/>
<rect x="769.7" y="31.3" width="3.1" height="2.0" fill="#4FD1C5" opacity="0.99" rx="1"/>
<rect x="768.5" y="15.7" width="6.3" height="2.0" fill="#4FD1C5" opacity="0.95" rx="1"/>
<rect x="776.7" y="30.0" width="4.7" height="2.0" fill="#4FD1C5" opacity="0.91" rx="1"/>
<rect x="794.7" y="23.5" width="3.1" height="2.0" fill="#4FD1C5" opacity="0.99" rx="1"/>
<rect x="793.4" y="11.8" width="4.7" height="2.0" fill="#4FD1C5" opacity="0.94" rx="1"/>
<rect x="793.7" y="24.8" width="6.3" height="2.0" fill="#4FD1C5" opacity="0.97" rx="1"/>
<rect x="225.2" y="54.9" width="6.3" height="2.0" fill="#F4C471" opacity="0.93" rx="1"/>
<rect x="267.5" y="54.9" width="6.3" height="2.0" fill="#F4C471" opacity="0.93" rx="1"/>
<rect x="276.7" y="54.9" width="7.8" height="2.0" fill="#F4C471" opacity="0.94" rx="1"/>
<rect x="292.3" y="54.9" width="21.9" height="2.0" fill="#F4C471" opacity="0.86" rx="1"/>
<rect x="300.5" y="58.8" width="14.1" height="2.0" fill="#F4C471" opacity="0.95" rx="1"/>
<rect x="373.7" y="56.2" width="15.7" height="2.0" fill="#F4C471" opacity="0.96" rx="1"/>
<rect x="418.3" y="56.2" width="6.3" height="2.0" fill="#F4C471" opacity="0.95" rx="1"/>
<rect x="427.4" y="49.6" width="31.3" height="2.0" fill="#F4C471" opacity="0.95" rx="1"/>
<rect x="552.7" y="56.2" width="11.0" height="2.0" fill="#F4C471" opacity="0.96" rx="1"/>
<rect x="577.1" y="58.8" width="9.4" height="2.0" fill="#F4C471" opacity="0.93" rx="1"/>
<rect x="225.1" y="18.3" width="3.1" height="2.0" fill="#81E6D9" opacity="1.00" rx="1"/>
<rect x="228.1" y="14.4" width="1.5" height="2.0" fill="#81E6D9" opacity="0.98" rx="1"/>
<rect x="243.9" y="18.3" width="1.6" height="2.0" fill="#81E6D9" opacity="1.00" rx="1"/>
<rect x="227.4" y="20.9" width="20.3" height="2.0" fill="#81E6D9" opacity="0.97" rx="1"/>
<rect x="250.6" y="7.8" width="26.6" height="2.0" fill="#81E6D9" opacity="0.94" rx="1"/>
<rect x="277.2" y="9.1" width="1.6" height="2.0" fill="#81E6D9" opacity="0.91" rx="1"/>
<rect x="250.3" y="23.5" width="29.7" height="2.0" fill="#81E6D9" opacity="0.97" rx="1"/>
<rect x="289.4" y="11.8" width="1.6" height="2.0" fill="#81E6D9" opacity="0.95" rx="1"/>
<rect x="325.5" y="14.4" width="6.3" height="2.0" fill="#81E6D9" opacity="1.00" rx="1"/>
<rect x="339.5" y="11.8" width="26.6" height="2.0" fill="#81E6D9" opacity="1.00" rx="1"/>
<rect x="372.6" y="9.1" width="7.8" height="2.0" fill="#81E6D9" opacity="1.00" rx="1"/>
<rect x="401.9" y="14.4" width="6.3" height="2.0" fill="#81E6D9" opacity="0.99" rx="1"/>
<rect x="418.1" y="14.4" width="7.8" height="2.0" fill="#81E6D9" opacity="0.99" rx="1"/>
<rect x="427.2" y="5.2" width="3.1" height="2.0" fill="#81E6D9" opacity="0.99" rx="1"/>
<rect x="440.2" y="14.4" width="1.6" height="2.0" fill="#81E6D9" opacity="1.00" rx="1"/>
<rect x="424.1" y="18.3" width="23.5" height="2.0" fill="#81E6D9" opacity="1.00" rx="1"/>
<rect x="425.5" y="15.7" width="26.6" height="2.0" fill="#81E6D9" opacity="1.00" rx="1"/>
<rect x="466.3" y="14.4" width="1.6" height="2.0" fill="#81E6D9" opacity="0.99" rx="1"/>
<rect x="464.8" y="18.3" width="7.8" height="2.0" fill="#81E6D9" opacity="1.00" rx="1"/>
<rect x="492.9" y="15.7" width="1.5" height="2.0" fill="#81E6D9" opacity="0.96" rx="1"/>
<rect x="493.0" y="11.8" width="1.6" height="2.0" fill="#81E6D9" opacity="0.96" rx="1"/>
<rect x="491.1" y="14.4" width="6.3" height="2.0" fill="#81E6D9" opacity="0.97" rx="1"/>
<rect x="497.8" y="15.7" width="1.6" height="2.0" fill="#81E6D9" opacity="0.97" rx="1"/>
<rect x="509.1" y="11.8" width="1.6" height="2.0" fill="#81E6D9" opacity="1.00" rx="1"/>
<rect x="542.8" y="14.4" width="6.3" height="2.0" fill="#81E6D9" opacity="0.93" rx="1"/>
<rect x="552.2" y="20.9" width="1.6" height="2.0" fill="#81E6D9" opacity="1.00" rx="1"/>
<rect x="549.3" y="30.0" width="4.7" height="2.0" fill="#81E6D9" opacity="0.98" rx="1"/>
<rect x="552.2" y="15.7" width="6.3" height="2.0" fill="#81E6D9" opacity="0.99" rx="1"/>
<rect x="560.3" y="27.4" width="1.6" height="2.0" fill="#81E6D9" opacity="1.00" rx="1"/>
<rect x="563.1" y="20.9" width="1.5" height="2.0" fill="#81E6D9" opacity="1.00" rx="1"/>
<rect x="552.8" y="5.2" width="17.2" height="2.0" fill="#81E6D9" opacity="1.00" rx="1"/>
<rect x="553.6" y="24.8" width="18.8" height="2.0" fill="#81E6D9" opacity="1.00" rx="1"/>
<rect x="593.3" y="20.9" width="6.3" height="2.0" fill="#81E6D9" opacity="0.99" rx="1"/>
<rect x="602.9" y="23.5" width="17.2" height="2.0" fill="#81E6D9" opacity="0.99" rx="1"/>
<rect x="621.7" y="30.0" width="1.6" height="2.0" fill="#81E6D9" opacity="0.95" rx="1"/>
<rect x="650.7" y="14.4" width="1.6" height="2.0" fill="#81E6D9" opacity="1.00" rx="1"/>
<rect x="679.2" y="18.3" width="3.1" height="2.0" fill="#81E6D9" opacity="0.99" rx="1"/>
<rect x="706.2" y="19.6" width="1.6" height="2.0" fill="#81E6D9" opacity="0.94" rx="1"/>
<rect x="712.2" y="15.7" width="1.6" height="2.0" fill="#81E6D9" opacity="1.00" rx="1"/>
<rect x="715.2" y="24.8" width="1.5" height="2.0" fill="#81E6D9" opacity="0.97" rx="1"/>
<rect x="712.4" y="27.4" width="3.1" height="2.0" fill="#81E6D9" opacity="0.93" rx="1"/>
<rect x="713.7" y="19.6" width="3.1" height="2.0" fill="#81E6D9" opacity="0.94" rx="1"/>
<rect x="718.6" y="15.7" width="1.6" height="2.0" fill="#81E6D9" opacity="0.99" rx="1"/>
<rect x="719.8" y="19.6" width="3.1" height="2.0" fill="#81E6D9" opacity="0.93" rx="1"/>
<rect x="746.3" y="23.5" width="3.1" height="2.0" fill="#81E6D9" opacity="0.95" rx="1"/>
<rect x="752.8" y="19.6" width="1.6" height="2.0" fill="#81E6D9" opacity="0.99" rx="1"/>
<rect x="753.1" y="15.7" width="1.5" height="2.0" fill="#81E6D9" opacity="0.95" rx="1"/>
<rect x="757.7" y="15.7" width="1.6" height="2.0" fill="#81E6D9" opacity="1.00" rx="1"/>
<rect x="766.5" y="19.6" width="1.6" height="2.0" fill="#81E6D9" opacity="0.99" rx="1"/>
<rect x="769.7" y="15.7" width="1.5" height="2.0" fill="#81E6D9" opacity="0.99" rx="1"/>
<rect x="769.9" y="19.6" width="3.1" height="2.0" fill="#81E6D9" opacity="1.00" rx="1"/>
<rect x="796.6" y="30.0" width="1.6" height="2.0" fill="#81E6D9" opacity="0.95" rx="1"/>
<rect x="0.0" y="50.9" width="26.6" height="2.0" fill="#8AAABB" opacity="0.88" rx="1"/>
<rect x="50.1" y="50.9" width="23.5" height="2.0" fill="#8AAABB" opacity="0.90" rx="1"/>
<rect x="75.1" y="50.9" width="25.0" height="2.0" fill="#8AAABB" opacity="0.88" rx="1"/>
<rect x="100.2" y="50.9" width="23.5" height="2.0" fill="#8AAABB" opacity="0.88" rx="1"/>
<rect x="125.2" y="49.6" width="3.1" height="2.0" fill="#8AAABB" opacity="0.85" rx="1"/>
<rect x="125.2" y="39.2" width="21.9" height="2.0" fill="#8AAABB" opacity="1.00" rx="1"/>
<rect x="125.2" y="50.9" width="26.6" height="2.0" fill="#8AAABB" opacity="0.88" rx="1"/>
<rect x="150.3" y="49.6" width="1.6" height="2.0" fill="#8AAABB" opacity="0.89" rx="1"/>
<rect x="153.4" y="49.6" width="3.1" height="2.0" fill="#8AAABB" opacity="0.87" rx="1"/>
<rect x="156.5" y="49.6" width="1.6" height="2.0" fill="#8AAABB" opacity="0.89" rx="1"/>
<rect x="158.1" y="49.6" width="1.6" height="2.0" fill="#8AAABB" opacity="0.89" rx="1"/>
<rect x="159.6" y="49.6" width="1.6" height="2.0" fill="#8AAABB" opacity="0.87" rx="1"/>
<rect x="158.1" y="52.2" width="4.7" height="2.0" fill="#8AAABB" opacity="0.86" rx="1"/>
<rect x="159.6" y="40.5" width="4.7" height="2.0" fill="#8AAABB" opacity="0.94" rx="1"/>
<rect x="162.8" y="49.6" width="1.6" height="2.0" fill="#8AAABB" opacity="0.88" rx="1"/>
<rect x="167.5" y="49.6" width="4.7" height="2.0" fill="#8AAABB" opacity="0.93" rx="1"/>
<rect x="167.5" y="52.2" width="4.7" height="2.0" fill="#8AAABB" opacity="0.87" rx="1"/>
<rect x="175.3" y="52.2" width="3.1" height="2.0" fill="#8AAABB" opacity="0.89" rx="1"/>
<rect x="192.5" y="39.2" width="4.7" height="2.0" fill="#8AAABB" opacity="0.97" rx="1"/>
</svg>