<svg xmlns="http://www.w3.org/2000/svg" width="800" height="64" style="background:#0B1E26;border-radius:6px">
<rect x="0.0" y="37.7" width="47.1" height="2.0" fill="#4FD1C5" opacity="0.95" rx="1"/>
<rect x="351.1" y="37.7" width="15.7" height="2.0" fill="#4FD1C5" opacity="0.93" rx="1"/>
<rect x="364.0" y="31.2" width="22.0" height="2.0" fill="#4FD1C5" opacity="0.92" rx="1"/>
<rect x="376.5" y="42.7" width="15.7" height="2.0" fill="#4FD1C5" opacity="0.90" rx="1"/>
<rect x="373.2" y="26.3" width="22.0" height="2.0" fill="#4FD1C5" opacity="0.92" rx="1"/>
<rect x="401.4" y="23.0" width="18.8" height="2.0" fill="#4FD1C5" opacity="0.93" rx="1"/>
<rect x="426.9" y="31.2" width="3.1" height="2.0" fill="#4FD1C5" opacity="0.94" rx="1"/>
<rect x="426.8" y="26.3" width="15.7" height="2.0" fill="#4FD1C5" opacity="0.93" rx="1"/>
<rect x="436.1" y="31.2" width="9.4" height="2.0" fill="#4FD1C5" opacity="0.90" rx="1"/>
<rect x="430.8" y="23.0" width="37.7" height="2.0" fill="#4FD1C5" opacity="0.90" rx="1"/>
<rect x="514.9" y="26.3" width="3.1" height="2.0" fill="#4FD1C5" opacity="0.95" rx="1"/>
<rect x="517.5" y="31.2" width="9.4" height="2.0" fill="#4FD1C5" opacity="0.94" rx="1"/>
<rect x="526.9" y="23.0" width="3.1" height="2.0" fill="#4FD1C5" opacity="0.94" rx="1"/>
<rect x="552.2" y="18.1" width="3.1" height="2.0" fill="#4FD1C5" opacity="0.91" rx="1"/>
<rect x="581.3" y="18.1" width="3.1" height="2.0" fill="#4FD1C5" opacity="0.94" rx="1"/>
<rect x="581.4" y="14.8" width="6.3" height="2.0" fill="#4FD1C5" opacity="0.95" rx="1"/>
<rect x="602.9" y="18.1" width="3.1" height="2.0" fill="#4FD1C5" opacity="0.91" rx="1"/>
<rect x="577.4" y="57.4" width="37.7" height="2.0" fill="#4FD1C5" opacity="0.95" rx="1"/>
<rect x="577.1" y="54.2" width="40.8" height="2.0" fill="#4FD1C5" opacity="0.94" rx="1"/>
<rect x="590.0" y="11.5" width="37.7" height="2.0" fill="#4FD1C5" opacity="0.91" rx="1"/>
<rect x="633.7" y="11.5" width="3.1" height="2.0" fill="#4FD1C5" opacity="0.95" rx="1"/>
<rect x="633.8" y="14.8" width="3.1" height="2.0" fill="#4FD1C5" opacity="0.92" rx="1"/>
<rect x="636.9" y="11.5" width="3.1" height="2.0" fill="#4FD1C5" opacity="0.92" rx="1"/>
<rect x="653.2" y="6.6" width="6.3" height="2.0" fill="#4FD1C5" opacity="0.95" rx="1"/>
<rect x="687.9" y="14.8" width="3.1" height="2.0" fill="#4FD1C5" opacity="0.94" rx="1"/>
<rect x="718.5" y="23.0" width="3.1" height="2.0" fill="#4FD1C5" opacity="0.95" rx="1"/>
<rect x="756.3" y="14.8" width="3.1" height="2.0" fill="#4FD1C5" opacity="0.95" rx="1"/>
<rect x="756.6" y="11.5" width="3.1" height="2.0" fill="#4FD1C5" opacity="0.94" rx="1"/>
<rect x="762.7" y="18.1" width="3.1" height="2.0" fill="#4FD1C5" opacity="0.95" rx="1"/>
<rect x="763.5" y="11.5" width="3.1" height="2.0" fill="#4FD1C5" opacity="0.93" rx="1"/>
<rect x="766.1" y="23.0" width="3.1" height="2.0" fill="#4FD1C5" opacity="0.92" rx="1"/>
<rect x="766.6" y="14.8" width="3.1" height="2.0" fill="#4FD1C5" opacity="0.92" rx="1"/>
<rect x="769.5" y="11.5" width="3.1" height="2.0" fill="#4FD1C5" opacity="0.91" rx="1"/>
<rect x="768.8" y="26.3" width="6.3" height="2.0" fill="#4FD1C5" opacity="0.94" rx="1"/>
<rect x="778.0" y="31.2" width="3.1" height="2.0" fill="#4FD1C5" opacity="0.92" rx="1"/>
<rect x="778.9" y="18.1" width="3.1" height="2.0" fill="#4FD1C5" opacity="0.91" rx="1"/>
<rect x="763.0" y="50.9" width="22.0" height="2.0" fill="#4FD1C5" opacity="0.94" rx="1"/>
<rect x="782.4" y="18.1" width="3.1" height="2.0" fill="#4FD1C5" opacity="0.95" rx="1"/>
<rect x="785.6" y="23.0" width="3.1" height="2.0" fill="#4FD1C5" opacity="0.91" rx="1"/>
<rect x="765.8" y="54.2" width="25.1" height="2.0" fill="#4FD1C5" opacity="0.91" rx="1"/>
<rect x="791.3" y="18.1" width="3.1" height="2.0" fill="#4FD1C5" opacity="0.93" rx="1"/>
<rect x="782.0" y="31.2" width="12.6" height="2.0" fill="#4FD1C5" opacity="0.90" rx="1"/>
<rect x="766.4" y="42.7" width="28.3" height="2.0" fill="#4FD1C5" opacity="0.91" rx="1"/>
<rect x="784.3" y="26.3" width="15.7" height="2.0" fill="#4FD1C5" opacity="0.94" rx="1"/>
</svg>