<svg xmlns="http://www.w3.org/2000/svg" width="800" height="64" style="background:#0B1E26;border-radius:6px">
<rect x="116.5" y="9.1" width="1.8" height="2.3" fill="#4FD1C5" opacity="0.88" rx="1"/>
<rect x="122.9" y="9.1" width="1.8" height="2.3" fill="#4FD1C5" opacity="0.89" rx="1"/>
<rect x="130.8" y="9.1" width="1.5" height="2.3" fill="#4FD1C5" opacity="0.89" rx="1"/>
<rect x="166.9" y="9.1" width="1.8" height="2.3" fill="#4FD1C5" opacity="0.94" rx="1"/>
<rect x="174.2" y="9.1" width="1.8" height="2.3" fill="#4FD1C5" opacity="0.94" rx="1"/>
<rect x="202.9" y="9.1" width="1.8" height="2.3" fill="#4FD1C5" opacity="0.88" rx="1"/>
<rect x="210.6" y="9.1" width="1.8" height="2.3" fill="#4FD1C5" opacity="0.92" rx="1"/>
<rect x="217.0" y="11.4" width="1.8" height="2.3" fill="#4FD1C5" opacity="0.94" rx="1"/>
<rect x="225.0" y="13.7" width="1.8" height="2.3" fill="#4FD1C5" opacity="0.92" rx="1"/>
<rect x="268.7" y="11.4" width="1.8" height="2.3" fill="#4FD1C5" opacity="0.91" rx="1"/>
<rect x="275.7" y="11.4" width="1.8" height="2.3" fill="#4FD1C5" opacity="0.90" rx="1"/>
<rect x="311.3" y="16.0" width="1.8" height="2.3" fill="#4FD1C5" opacity="0.90" rx="1"/>
<rect x="362.2" y="11.4" width="1.8" height="2.3" fill="#4FD1C5" opacity="0.90" rx="1"/>
<rect x="384.3" y="9.1" width="1.8" height="2.3" fill="#4FD1C5" opacity="0.88" rx="1"/>
<rect x="463.7" y="9.1" width="1.8" height="2.3" fill="#4FD1C5" opacity="0.94" rx="1"/>
<rect x="493.2" y="11.4" width="1.8" height="2.3" fill="#4FD1C5" opacity="0.88" rx="1"/>
<rect x="529.1" y="9.1" width="1.6" height="2.3" fill="#4FD1C5" opacity="0.90" rx="1"/>
<rect x="536.8" y="9.1" width="1.8" height="2.3" fill="#4FD1C5" opacity="0.94" rx="1"/>
<rect x="579.4" y="9.1" width="1.8" height="2.3" fill="#4FD1C5" opacity="0.94" rx="1"/>
<rect x="586.8" y="9.1" width="1.8" height="2.3" fill="#4FD1C5" opacity="0.94" rx="1"/>
<rect x="601.5" y="9.1" width="1.8" height="2.3" fill="#4FD1C5" opacity="0.89" rx="1"/>
<rect x="623.0" y="11.4" width="1.8" height="2.3" fill="#4FD1C5" opacity="0.90" rx="1"/>
<rect x="623.6" y="9.1" width="1.8" height="2.3" fill="#4FD1C5" opacity="0.90" rx="1"/>
<rect x="631.1" y="9.1" width="1.8" height="2.3" fill="#4FD1C5" opacity="0.93" rx="1"/>
<rect x="739.3" y="9.1" width="1.8" height="2.3" fill="#4FD1C5" opacity="0.94" rx="1"/>
<rect x="747.3" y="9.1" width="1.8" height="2.3" fill="#4FD1C5" opacity="0.92" rx="1"/>
<rect x="522.5" y="54.9" width="14.5" height="2.3" fill="#F4C471" opacity="0.81" rx="1"/>
<rect x="594.6" y="54.9" width="9.1" height="2.3" fill="#F4C471" opacity="0.77" rx="1"/>
<rect x="623.3" y="52.6" width="3.6" height="2.3" fill="#F4C471" opacity="0.78" rx="1"/>
<rect x="630.3" y="52.6" width="7.3" height="2.3" fill="#F4C471" opacity="0.77" rx="1"/>
<rect x="666.7" y="43.4" width="9.1" height="2.3" fill="#F4C471" opacity="0.81" rx="1"/>
<rect x="667.4" y="54.9" width="12.7" height="2.3" fill="#F4C471" opacity="0.77" rx="1"/>
<rect x="790.9" y="38.9" width="9.1" height="2.3" fill="#F4C471" opacity="0.81" rx="1"/>
</svg>