<svg xmlns="http://www.w3.org/2000/svg" width="800" height="64" style="background:#0B1E26;border-radius:6px">
<rect x="105.8" y="9.1" width="1.6" height="2.3" fill="#4FD1C5" opacity="0.92" rx="1"/>
<rect x="112.1" y="9.1" width="1.6" height="2.3" fill="#4FD1C5" opacity="0.93" rx="1"/>
<rect x="118.7" y="9.1" width="1.6" height="2.3" fill="#4FD1C5" opacity="0.88" rx="1"/>
<rect x="151.9" y="9.1" width="1.6" height="2.3" fill="#4FD1C5" opacity="0.94" rx="1"/>
<rect x="158.2" y="9.1" width="1.6" height="2.3" fill="#4FD1C5" opacity="0.94" rx="1"/>
<rect x="184.0" y="9.1" width="1.6" height="2.3" fill="#4FD1C5" opacity="0.89" rx="1"/>
<rect x="190.8" y="9.1" width="1.6" height="2.3" fill="#4FD1C5" opacity="0.93" rx="1"/>
<rect x="197.6" y="11.4" width="1.6" height="2.3" fill="#4FD1C5" opacity="0.94" rx="1"/>
<rect x="204.7" y="11.4" width="1.6" height="2.3" fill="#4FD1C5" opacity="0.90" rx="1"/>
<rect x="243.8" y="11.4" width="1.6" height="2.3" fill="#4FD1C5" opacity="0.90" rx="1"/>
<rect x="251.2" y="11.4" width="1.6" height="2.3" fill="#4FD1C5" opacity="0.94" rx="1"/>
<rect x="283.0" y="16.0" width="1.6" height="2.3" fill="#4FD1C5" opacity="0.91" rx="1"/>
<rect x="329.9" y="11.4" width="1.6" height="2.3" fill="#4FD1C5" opacity="0.93" rx="1"/>
<rect x="350.0" y="9.1" width="1.6" height="2.3" fill="#4FD1C5" opacity="0.95" rx="1"/>
<rect x="422.7" y="9.1" width="1.6" height="2.3" fill="#4FD1C5" opacity="0.92" rx="1"/>
<rect x="449.1" y="11.4" width="1.6" height="2.3" fill="#4FD1C5" opacity="0.94" rx="1"/>
<rect x="482.0" y="9.1" width="1.6" height="2.3" fill="#4FD1C5" opacity="0.90" rx="1"/>
<rect x="488.6" y="9.1" width="1.6" height="2.3" fill="#4FD1C5" opacity="0.89" rx="1"/>
<rect x="527.8" y="9.1" width="1.6" height="2.3" fill="#4FD1C5" opacity="0.92" rx="1"/>
<rect x="534.1" y="9.1" width="1.6" height="2.3" fill="#4FD1C5" opacity="0.91" rx="1"/>
<rect x="547.2" y="9.1" width="1.6" height="2.3" fill="#4FD1C5" opacity="0.89" rx="1"/>
<rect x="567.7" y="11.4" width="1.6" height="2.3" fill="#4FD1C5" opacity="0.89" rx="1"/>
<rect x="567.7" y="9.1" width="1.6" height="2.3" fill="#4FD1C5" opacity="0.95" rx="1"/>
<rect x="573.8" y="9.1" width="1.6" height="2.3" fill="#4FD1C5" opacity="0.90" rx="1"/>
<rect x="673.4" y="9.1" width="1.6" height="2.3" fill="#4FD1C5" opacity="0.93" rx="1"/>
<rect x="679.7" y="9.1" width="1.6" height="2.3" fill="#4FD1C5" opacity="0.94" rx="1"/>
<rect x="725.6" y="11.4" width="1.5" height="2.3" fill="#4FD1C5" opacity="0.90" rx="1"/>
<rect x="731.8" y="11.4" width="1.6" height="2.3" fill="#4FD1C5" opacity="0.95" rx="1"/>
<rect x="751.5" y="11.4" width="1.6" height="2.3" fill="#4FD1C5" opacity="0.89" rx="1"/>
<rect x="791.6" y="11.4" width="1.6" height="2.3" fill="#4FD1C5" opacity="0.91" rx="1"/>
<rect x="798.4" y="11.4" width="1.6" height="2.3" fill="#4FD1C5" opacity="0.91" rx="1"/>
<rect x="475.4" y="54.9" width="13.2" height="2.3" fill="#F4C471" opacity="0.80" rx="1"/>
<rect x="541.0" y="54.9" width="8.2" height="2.3" fill="#F4C471" opacity="0.80" rx="1"/>
<rect x="567.0" y="52.6" width="3.3" height="2.3" fill="#F4C471" opacity="0.81" rx="1"/>
<rect x="573.8" y="52.6" width="6.6" height="2.3" fill="#F4C471" opacity="0.80" rx="1"/>
<rect x="606.6" y="43.4" width="8.2" height="2.3" fill="#F4C471" opacity="0.79" rx="1"/>
<rect x="606.3" y="54.9" width="11.5" height="2.3" fill="#F4C471" opacity="0.75" rx="1"/>
<rect x="719.0" y="32.0" width="8.2" height="2.3" fill="#F4C471" opacity="0.81" rx="1"/>
<rect x="719.1" y="38.9" width="8.2" height="2.3" fill="#F4C471" opacity="0.75" rx="1"/>
</svg>