<svg xmlns="http://www.w3.org/2000/svg" width="800" height="64" style="background:#0B1E26;border-radius:6px">
<rect x="101.4" y="9.1" width="1.6" height="2.3" fill="#4FD1C5" opacity="0.94" rx="1"/>
<rect x="107.3" y="9.1" width="1.6" height="2.3" fill="#4FD1C5" opacity="0.90" rx="1"/>
<rect x="114.0" y="9.1" width="1.6" height="2.3" fill="#4FD1C5" opacity="0.92" rx="1"/>
<rect x="146.1" y="9.1" width="1.6" height="2.3" fill="#4FD1C5" opacity="0.91" rx="1"/>
<rect x="152.5" y="9.1" width="1.6" height="2.3" fill="#4FD1C5" opacity="0.95" rx="1"/>
<rect x="177.0" y="9.1" width="1.6" height="2.3" fill="#4FD1C5" opacity="0.90" rx="1"/>
<rect x="183.9" y="9.1" width="1.6" height="2.3" fill="#4FD1C5" opacity="0.92" rx="1"/>
<rect x="190.7" y="11.4" width="1.6" height="2.3" fill="#4FD1C5" opacity="0.96" rx="1"/>
<rect x="196.2" y="11.4" width="1.6" height="2.3" fill="#4FD1C5" opacity="0.91" rx="1"/>
<rect x="234.2" y="11.4" width="1.6" height="2.3" fill="#4FD1C5" opacity="0.91" rx="1"/>
<rect x="241.4" y="11.4" width="1.6" height="2.3" fill="#4FD1C5" opacity="0.92" rx="1"/>
<rect x="271.8" y="16.0" width="1.6" height="2.3" fill="#4FD1C5" opacity="0.91" rx="1"/>
<rect x="316.5" y="11.4" width="1.6" height="2.3" fill="#4FD1C5" opacity="0.95" rx="1"/>
<rect x="335.4" y="9.1" width="1.6" height="2.3" fill="#4FD1C5" opacity="0.95" rx="1"/>
<rect x="405.0" y="9.1" width="1.6" height="2.3" fill="#4FD1C5" opacity="0.92" rx="1"/>
<rect x="430.8" y="11.4" width="1.6" height="2.3" fill="#4FD1C5" opacity="0.96" rx="1"/>
<rect x="462.2" y="9.1" width="1.6" height="2.3" fill="#4FD1C5" opacity="0.89" rx="1"/>
<rect x="468.9" y="9.1" width="1.6" height="2.3" fill="#4FD1C5" opacity="0.95" rx="1"/>
<rect x="506.8" y="9.1" width="1.6" height="2.3" fill="#4FD1C5" opacity="0.91" rx="1"/>
<rect x="513.8" y="9.1" width="1.6" height="2.3" fill="#4FD1C5" opacity="0.94" rx="1"/>
<rect x="525.3" y="9.1" width="1.6" height="2.3" fill="#4FD1C5" opacity="0.94" rx="1"/>
<rect x="545.0" y="11.4" width="1.6" height="2.3" fill="#4FD1C5" opacity="0.88" rx="1"/>
<rect x="545.3" y="9.1" width="1.6" height="2.3" fill="#4FD1C5" opacity="0.90" rx="1"/>
<rect x="550.8" y="9.1" width="1.6" height="2.3" fill="#4FD1C5" opacity="0.94" rx="1"/>
<rect x="646.5" y="9.1" width="1.6" height="2.3" fill="#4FD1C5" opacity="0.95" rx="1"/>
<rect x="653.3" y="9.1" width="1.6" height="2.3" fill="#4FD1C5" opacity="0.94" rx="1"/>
<rect x="697.5" y="11.4" width="1.6" height="2.3" fill="#4FD1C5" opacity="0.93" rx="1"/>
<rect x="703.5" y="11.4" width="1.6" height="2.3" fill="#4FD1C5" opacity="0.93" rx="1"/>
<rect x="722.0" y="11.4" width="1.6" height="2.3" fill="#4FD1C5" opacity="0.93" rx="1"/>
<rect x="761.0" y="11.4" width="1.6" height="2.3" fill="#4FD1C5" opacity="0.93" rx="1"/>
<rect x="767.3" y="11.4" width="1.6" height="2.3" fill="#4FD1C5" opacity="0.94" rx="1"/>
<rect x="773.1" y="11.4" width="1.6" height="2.3" fill="#4FD1C5" opacity="0.93" rx="1"/>
<rect x="773.2" y="18.3" width="1.6" height="2.3" fill="#4FD1C5" opacity="0.94" rx="1"/>
<rect x="792.3" y="9.1" width="1.6" height="2.3" fill="#4FD1C5" opacity="0.88" rx="1"/>
<rect x="798.4" y="9.1" width="1.6" height="2.3" fill="#4FD1C5" opacity="0.87" rx="1"/>
<rect x="455.9" y="54.9" width="12.7" height="2.3" fill="#F4C471" opacity="0.79" rx="1"/>
<rect x="519.8" y="54.9" width="7.9" height="2.3" fill="#F4C471" opacity="0.74" rx="1"/>
<rect x="545.2" y="52.6" width="3.2" height="2.3" fill="#F4C471" opacity="0.81" rx="1"/>
<rect x="551.1" y="52.6" width="6.3" height="2.3" fill="#F4C471" opacity="0.75" rx="1"/>
<rect x="582.9" y="43.4" width="7.9" height="2.3" fill="#F4C471" opacity="0.78" rx="1"/>
<rect x="583.6" y="54.9" width="11.1" height="2.3" fill="#F4C471" opacity="0.76" rx="1"/>
<rect x="690.3" y="38.9" width="7.9" height="2.3" fill="#F4C471" opacity="0.76" rx="1"/>
<rect x="691.2" y="32.0" width="7.9" height="2.3" fill="#F4C471" opacity="0.79" rx="1"/>
<rect x="786.1" y="54.9" width="12.7" height="2.3" fill="#F4C471" opacity="0.73" rx="1"/>
<rect x="785.3" y="27.4" width="3.2" height="2.3" fill="#81E6D9" opacity="0.82" rx="1"/>
<rect x="787.4" y="32.0" width="1.6" height="2.3" fill="#81E6D9" opacity="0.78" rx="1"/>
<rect x="785.8" y="9.1" width="4.8" height="2.3" fill="#81E6D9" opacity="0.80" rx="1"/>
<rect x="786.1" y="11.4" width="11.1" height="2.3" fill="#81E6D9" opacity="0.79" rx="1"/>
<rect x="786.2" y="36.6" width="11.1" height="2.3" fill="#81E6D9" opacity="0.81" rx="1"/>
</svg>